<svg width="1920" height="250" viewBox="0 0 1920 250" fill="none" xmlns="http://www.w3.org/2000/svg">
<path d="M-1407.87 0C-1539.21 0 -1708.84 93.9499 -1777.25 140.925V517.105H4118.05V140.925C3970.5 182.955 3831.15 276.737 3577.19 140.925C3465.57 81.2329 3294.9 0 3127.2 0C3076.87 0 2919.35 28.185 2691.87 140.925C2464.38 253.665 2212.16 206.677 2071.85 140.925C2007.84 93.9499 1828.24 0 1621.86 0C1363.89 0 1337.77 59.5511 1146.95 140.925C934.337 231.595 736.625 229.445 513.743 140.925C388.236 91.0781 330.815 0 103.329 0C-181.029 0 -166.371 74.171 -390.633 140.925C-570.043 194.328 -848.44 163.176 -965.212 140.925C-1090.71 117.01 -1276.54 0 -1407.87 0Z" fill="#FCFCFC"/>
<path d="M-1530.63 39.8955C-1661.96 39.8955 -1831.6 133.845 -1900 180.82V557H3995.3V180.82C3847.75 222.851 3708.39 316.633 3454.43 180.82C3342.81 121.128 3172.14 39.8955 3004.44 39.8955C2954.12 39.8955 2796.6 68.0805 2569.11 180.82C2341.63 293.56 2089.4 246.573 1949.09 180.82C1885.09 133.845 1705.48 39.8955 1499.1 39.8955C1241.13 39.8955 1215.01 99.4466 1024.2 180.82C811.582 271.491 613.87 269.341 390.988 180.82C265.481 130.974 208.061 39.8955 -19.4259 39.8955C-303.784 39.8955 -289.126 114.066 -513.388 180.82C-692.797 234.223 -971.195 203.072 -1087.97 180.82C-1213.47 156.906 -1399.3 39.8955 -1530.63 39.8955Z" fill="#FF34CD"/>
</svg>
