<svg width="1920" height="216" viewBox="0 0 1920 216" fill="none" xmlns="http://www.w3.org/2000/svg">
<g clip-path="url(#clip0_13_469)">
<path d="M-509.852 0C-586.482 0 -685.463 54.8182 -725.375 82.2272V301.722H2714.43V82.2272C2628.34 106.751 2547.03 161.472 2398.85 82.2272C2333.72 47.398 2234.13 0 2136.28 0C2106.92 0 2015.01 16.4454 1882.28 82.2272C1749.54 148.009 1602.37 120.593 1520.51 82.2272C1459.5 53.6382 1378.36 0 1257.95 0C1107.42 0 1092.18 34.7471 980.845 82.2272C856.787 135.132 741.426 133.877 611.378 82.2272C538.147 53.1426 504.643 0 371.908 0C205.99 0 214.543 43.2775 83.6899 82.2272C-20.9924 113.387 -183.433 95.2105 -251.567 82.2272C-324.795 68.2736 -433.222 0 -509.852 0Z" fill="#FCFCFC"/>
<path d="M-581.478 23.2783C-658.108 23.2783 -757.088 78.0965 -797 105.506V325H2642.81V105.506C2556.71 130.029 2475.4 184.75 2327.22 105.506C2262.09 70.6764 2162.51 23.2783 2064.66 23.2783C2035.3 23.2783 1943.39 39.7238 1810.65 105.506C1677.92 171.287 1542 155.5 1448.88 105.506C1402.76 80.7446 1306.74 23.2783 1186.32 23.2783C1035.8 23.2783 1020.56 58.0254 909.22 105.506C785.162 158.41 672.548 151.15 542.5 99.5C465.747 69.0168 421.5 27.0077 300.283 23.2783C134.443 18.1761 142.917 66.5558 12.0645 105.506C-92.6178 136.665 -255.058 118.489 -323.193 105.506C-396.42 91.5519 -504.847 23.2783 -581.478 23.2783Z" fill="#FF34CD"/>
</g>
<defs>
<clipPath id="clip0_13_469">
<rect width="3512" height="216" fill="white" transform="translate(-797)"/>
</clipPath>
</defs>
</svg>
