<svg width="800" height="785" viewBox="0 0 800 785" fill="none" xmlns="http://www.w3.org/2000/svg">
<path d="M800 0V785H0L800 0Z" fill="#FF34CD"/>
<path d="M307.768 362V342.632H313.384V362H307.768ZM310.576 339.932C309.544 339.932 308.704 339.632 308.056 339.032C307.408 338.432 307.084 337.688 307.084 336.8C307.084 335.912 307.408 335.168 308.056 334.568C308.704 333.968 309.544 333.668 310.576 333.668C311.608 333.668 312.448 333.956 313.096 334.532C313.744 335.084 314.068 335.804 314.068 336.692C314.068 337.628 313.744 338.408 313.096 339.032C312.472 339.632 311.632 339.932 310.576 339.932ZM343.4 342.344C344.936 342.344 346.292 342.656 347.468 343.28C348.668 343.88 349.604 344.816 350.276 346.088C350.972 347.336 351.32 348.944 351.32 350.912V362H345.704V351.776C345.704 350.216 345.38 349.064 344.732 348.32C344.084 347.576 343.172 347.204 341.996 347.204C341.18 347.204 340.448 347.396 339.8 347.78C339.152 348.14 338.648 348.692 338.288 349.436C337.928 350.18 337.748 351.128 337.748 352.28V362H332.132V351.776C332.132 350.216 331.808 349.064 331.16 348.32C330.536 347.576 329.636 347.204 328.46 347.204C327.644 347.204 326.912 347.396 326.264 347.78C325.616 348.14 325.112 348.692 324.752 349.436C324.392 350.18 324.212 351.128 324.212 352.28V362H318.596V342.632H323.96V347.924L322.952 346.376C323.624 345.056 324.572 344.06 325.796 343.388C327.044 342.692 328.46 342.344 330.044 342.344C331.82 342.344 333.368 342.8 334.688 343.712C336.032 344.6 336.92 345.968 337.352 347.816L335.372 347.276C336.02 345.764 337.052 344.564 338.468 343.676C339.908 342.788 341.552 342.344 343.4 342.344ZM368.234 362V358.22L367.874 357.392V350.624C367.874 349.424 367.502 348.488 366.758 347.816C366.038 347.144 364.922 346.808 363.41 346.808C362.378 346.808 361.358 346.976 360.35 347.312C359.366 347.624 358.526 348.056 357.83 348.608L355.814 344.684C356.87 343.94 358.142 343.364 359.63 342.956C361.118 342.548 362.63 342.344 364.166 342.344C367.118 342.344 369.41 343.04 371.042 344.432C372.674 345.824 373.49 347.996 373.49 350.948V362H368.234ZM362.33 362.288C360.818 362.288 359.522 362.036 358.442 361.532C357.362 361.004 356.534 360.296 355.958 359.408C355.382 358.52 355.094 357.524 355.094 356.42C355.094 355.268 355.37 354.26 355.922 353.396C356.498 352.532 357.398 351.86 358.622 351.38C359.846 350.876 361.442 350.624 363.41 350.624H368.558V353.9H364.022C362.702 353.9 361.79 354.116 361.286 354.548C360.806 354.98 360.566 355.52 360.566 356.168C360.566 356.888 360.842 357.464 361.394 357.896C361.97 358.304 362.75 358.508 363.734 358.508C364.67 358.508 365.51 358.292 366.254 357.86C366.998 357.404 367.538 356.744 367.874 355.88L368.738 358.472C368.33 359.72 367.586 360.668 366.506 361.316C365.426 361.964 364.034 362.288 362.33 362.288ZM387.821 369.272C385.997 369.272 384.233 369.044 382.529 368.588C380.849 368.156 379.445 367.496 378.317 366.608L380.549 362.576C381.365 363.248 382.397 363.776 383.645 364.16C384.917 364.568 386.165 364.772 387.389 364.772C389.381 364.772 390.821 364.328 391.709 363.44C392.621 362.552 393.077 361.232 393.077 359.48V356.564L393.437 351.704L393.365 346.808V342.632H398.693V358.76C398.693 362.36 397.757 365.012 395.885 366.716C394.013 368.42 391.325 369.272 387.821 369.272ZM386.957 361.064C385.157 361.064 383.525 360.68 382.061 359.912C380.621 359.12 379.457 358.028 378.569 356.636C377.705 355.22 377.273 353.576 377.273 351.704C377.273 349.808 377.705 348.164 378.569 346.772C379.457 345.356 380.621 344.264 382.061 343.496C383.525 342.728 385.157 342.344 386.957 342.344C388.589 342.344 390.029 342.68 391.277 343.352C392.525 344 393.497 345.02 394.193 346.412C394.889 347.78 395.237 349.544 395.237 351.704C395.237 353.84 394.889 355.604 394.193 356.996C393.497 358.364 392.525 359.384 391.277 360.056C390.029 360.728 388.589 361.064 386.957 361.064ZM388.073 356.456C389.057 356.456 389.933 356.264 390.701 355.88C391.469 355.472 392.069 354.908 392.501 354.188C392.933 353.468 393.149 352.64 393.149 351.704C393.149 350.744 392.933 349.916 392.501 349.22C392.069 348.5 391.469 347.948 390.701 347.564C389.933 347.156 389.057 346.952 388.073 346.952C387.089 346.952 386.213 347.156 385.445 347.564C384.677 347.948 384.065 348.5 383.609 349.22C383.177 349.916 382.961 350.744 382.961 351.704C382.961 352.64 383.177 353.468 383.609 354.188C384.065 354.908 384.677 355.472 385.445 355.88C386.213 356.264 387.089 356.456 388.073 356.456ZM413.532 362.288C411.324 362.288 409.38 361.856 407.7 360.992C406.044 360.128 404.76 358.952 403.848 357.464C402.936 355.952 402.48 354.236 402.48 352.316C402.48 350.372 402.924 348.656 403.812 347.168C404.724 345.656 405.96 344.48 407.52 343.64C409.08 342.776 410.844 342.344 412.812 342.344C414.708 342.344 416.412 342.752 417.924 343.568C419.46 344.36 420.672 345.512 421.56 347.024C422.448 348.512 422.892 350.3 422.892 352.388C422.892 352.604 422.88 352.856 422.856 353.144C422.832 353.408 422.808 353.66 422.784 353.9H407.052V350.624H419.832L417.672 351.596C417.672 350.588 417.468 349.712 417.06 348.968C416.652 348.224 416.088 347.648 415.368 347.24C414.648 346.808 413.808 346.592 412.848 346.592C411.888 346.592 411.036 346.808 410.292 347.24C409.572 347.648 409.008 348.236 408.6 349.004C408.192 349.748 407.988 350.636 407.988 351.668V352.532C407.988 353.588 408.216 354.524 408.672 355.34C409.152 356.132 409.812 356.744 410.652 357.176C411.516 357.584 412.524 357.788 413.676 357.788C414.708 357.788 415.608 357.632 416.376 357.32C417.168 357.008 417.888 356.54 418.536 355.916L421.524 359.156C420.636 360.164 419.52 360.944 418.176 361.496C416.832 362.024 415.284 362.288 413.532 362.288ZM438.403 342.344C439.939 342.344 441.307 342.656 442.507 343.28C443.731 343.88 444.691 344.816 445.387 346.088C446.083 347.336 446.431 348.944 446.431 350.912V362H440.815V351.776C440.815 350.216 440.467 349.064 439.771 348.32C439.099 347.576 438.139 347.204 436.891 347.204C436.003 347.204 435.199 347.396 434.479 347.78C433.783 348.14 433.231 348.704 432.823 349.472C432.439 350.24 432.247 351.224 432.247 352.424V362H426.631V342.632H431.995V347.996L430.987 346.376C431.683 345.08 432.679 344.084 433.975 343.388C435.271 342.692 436.747 342.344 438.403 342.344ZM471.077 362.288C468.989 362.288 467.129 361.868 465.497 361.028C463.865 360.164 462.581 358.976 461.645 357.464C460.733 355.952 460.277 354.236 460.277 352.316C460.277 350.372 460.733 348.656 461.645 347.168C462.581 345.656 463.865 344.48 465.497 343.64C467.129 342.776 468.989 342.344 471.077 342.344C473.117 342.344 474.893 342.776 476.405 343.64C477.917 344.48 479.033 345.692 479.753 347.276L475.397 349.616C474.893 348.704 474.257 348.032 473.489 347.6C472.745 347.168 471.929 346.952 471.041 346.952C470.081 346.952 469.217 347.168 468.449 347.6C467.681 348.032 467.069 348.644 466.613 349.436C466.181 350.228 465.965 351.188 465.965 352.316C465.965 353.444 466.181 354.404 466.613 355.196C467.069 355.988 467.681 356.6 468.449 357.032C469.217 357.464 470.081 357.68 471.041 357.68C471.929 357.68 472.745 357.476 473.489 357.068C474.257 356.636 474.893 355.952 475.397 355.016L479.753 357.392C479.033 358.952 477.917 360.164 476.405 361.028C474.893 361.868 473.117 362.288 471.077 362.288ZM491.956 362.288C489.892 362.288 488.056 361.856 486.448 360.992C484.864 360.128 483.604 358.952 482.668 357.464C481.756 355.952 481.3 354.236 481.3 352.316C481.3 350.372 481.756 348.656 482.668 347.168C483.604 345.656 484.864 344.48 486.448 343.64C488.056 342.776 489.892 342.344 491.956 342.344C493.996 342.344 495.82 342.776 497.428 343.64C499.036 344.48 500.296 345.644 501.208 347.132C502.12 348.62 502.576 350.348 502.576 352.316C502.576 354.236 502.12 355.952 501.208 357.464C500.296 358.952 499.036 360.128 497.428 360.992C495.82 361.856 493.996 362.288 491.956 362.288ZM491.956 357.68C492.892 357.68 493.732 357.464 494.476 357.032C495.22 356.6 495.808 355.988 496.24 355.196C496.672 354.38 496.888 353.42 496.888 352.316C496.888 351.188 496.672 350.228 496.24 349.436C495.808 348.644 495.22 348.032 494.476 347.6C493.732 347.168 492.892 346.952 491.956 346.952C491.02 346.952 490.18 347.168 489.436 347.6C488.692 348.032 488.092 348.644 487.636 349.436C487.204 350.228 486.988 351.188 486.988 352.316C486.988 353.42 487.204 354.38 487.636 355.196C488.092 355.988 488.692 356.6 489.436 357.032C490.18 357.464 491.02 357.68 491.956 357.68ZM518.102 342.344C519.638 342.344 521.006 342.656 522.206 343.28C523.43 343.88 524.39 344.816 525.086 346.088C525.782 347.336 526.13 348.944 526.13 350.912V362H520.514V351.776C520.514 350.216 520.166 349.064 519.47 348.32C518.798 347.576 517.838 347.204 516.59 347.204C515.702 347.204 514.898 347.396 514.178 347.78C513.482 348.14 512.93 348.704 512.522 349.472C512.138 350.24 511.946 351.224 511.946 352.424V362H506.33V342.632H511.694V347.996L510.686 346.376C511.382 345.08 512.378 344.084 513.674 343.388C514.97 342.692 516.446 342.344 518.102 342.344ZM264.735 406V386.2C264.735 384.016 265.383 382.276 266.679 380.98C267.975 379.66 269.823 379 272.223 379C273.039 379 273.819 379.084 274.563 379.252C275.331 379.42 275.979 379.684 276.507 380.044L275.031 384.112C274.719 383.896 274.371 383.728 273.987 383.608C273.603 383.488 273.195 383.428 272.763 383.428C271.947 383.428 271.311 383.668 270.855 384.148C270.423 384.604 270.207 385.3 270.207 386.236V388.036L270.351 390.448V406H264.735ZM261.747 391.384V387.064H275.175V391.384H261.747ZM286.145 406.288C284.537 406.288 283.097 405.976 281.825 405.352C280.577 404.728 279.605 403.78 278.909 402.508C278.213 401.212 277.865 399.568 277.865 397.576V386.632H283.481V396.748C283.481 398.356 283.817 399.544 284.489 400.312C285.185 401.056 286.157 401.428 287.405 401.428C288.269 401.428 289.037 401.248 289.709 400.888C290.381 400.504 290.909 399.928 291.293 399.16C291.677 398.368 291.869 397.384 291.869 396.208V386.632H297.485V406H292.157V400.672L293.129 402.22C292.481 403.564 291.521 404.584 290.249 405.28C289.001 405.952 287.633 406.288 286.145 406.288ZM312.048 406.288C309.96 406.288 308.1 405.868 306.468 405.028C304.836 404.164 303.552 402.976 302.616 401.464C301.704 399.952 301.248 398.236 301.248 396.316C301.248 394.372 301.704 392.656 302.616 391.168C303.552 389.656 304.836 388.48 306.468 387.64C308.1 386.776 309.96 386.344 312.048 386.344C314.088 386.344 315.864 386.776 317.376 387.64C318.888 388.48 320.004 389.692 320.724 391.276L316.368 393.616C315.864 392.704 315.228 392.032 314.46 391.6C313.716 391.168 312.9 390.952 312.012 390.952C311.052 390.952 310.188 391.168 309.42 391.6C308.652 392.032 308.04 392.644 307.584 393.436C307.152 394.228 306.936 395.188 306.936 396.316C306.936 397.444 307.152 398.404 307.584 399.196C308.04 399.988 308.652 400.6 309.42 401.032C310.188 401.464 311.052 401.68 312.012 401.68C312.9 401.68 313.716 401.476 314.46 401.068C315.228 400.636 315.864 399.952 316.368 399.016L320.724 401.392C320.004 402.952 318.888 404.164 317.376 405.028C315.864 405.868 314.088 406.288 312.048 406.288ZM330.473 406.288C328.817 406.288 327.221 406.096 325.685 405.712C324.173 405.304 322.973 404.8 322.085 404.2L323.957 400.168C324.845 400.72 325.889 401.176 327.089 401.536C328.313 401.872 329.513 402.04 330.689 402.04C331.985 402.04 332.897 401.884 333.425 401.572C333.977 401.26 334.253 400.828 334.253 400.276C334.253 399.82 334.037 399.484 333.605 399.268C333.197 399.028 332.645 398.848 331.949 398.728C331.253 398.608 330.485 398.488 329.645 398.368C328.829 398.248 328.001 398.092 327.161 397.9C326.321 397.684 325.553 397.372 324.857 396.964C324.161 396.556 323.597 396.004 323.165 395.308C322.757 394.612 322.553 393.712 322.553 392.608C322.553 391.384 322.901 390.304 323.597 389.368C324.317 388.432 325.349 387.7 326.693 387.172C328.037 386.62 329.645 386.344 331.517 386.344C332.837 386.344 334.181 386.488 335.549 386.776C336.917 387.064 338.057 387.484 338.969 388.036L337.097 392.032C336.161 391.48 335.213 391.108 334.253 390.916C333.317 390.7 332.405 390.592 331.517 390.592C330.269 390.592 329.357 390.76 328.781 391.096C328.205 391.432 327.917 391.864 327.917 392.392C327.917 392.872 328.121 393.232 328.529 393.472C328.961 393.712 329.525 393.904 330.221 394.048C330.917 394.192 331.673 394.324 332.489 394.444C333.329 394.54 334.169 394.696 335.009 394.912C335.849 395.128 336.605 395.44 337.277 395.848C337.973 396.232 338.537 396.772 338.969 397.468C339.401 398.14 339.617 399.028 339.617 400.132C339.617 401.332 339.257 402.4 338.537 403.336C337.817 404.248 336.773 404.968 335.405 405.496C334.061 406.024 332.417 406.288 330.473 406.288ZM343.082 406V386.632H348.698V406H343.082ZM345.89 383.932C344.858 383.932 344.018 383.632 343.37 383.032C342.722 382.432 342.398 381.688 342.398 380.8C342.398 379.912 342.722 379.168 343.37 378.568C344.018 377.968 344.858 377.668 345.89 377.668C346.922 377.668 347.762 377.956 348.41 378.532C349.058 379.084 349.382 379.804 349.382 380.692C349.382 381.628 349.058 382.408 348.41 383.032C347.786 383.632 346.946 383.932 345.89 383.932ZM373.466 406.288C371.378 406.288 369.518 405.868 367.886 405.028C366.254 404.164 364.97 402.976 364.034 401.464C363.122 399.952 362.666 398.236 362.666 396.316C362.666 394.372 363.122 392.656 364.034 391.168C364.97 389.656 366.254 388.48 367.886 387.64C369.518 386.776 371.378 386.344 373.466 386.344C375.506 386.344 377.282 386.776 378.794 387.64C380.306 388.48 381.422 389.692 382.142 391.276L377.786 393.616C377.282 392.704 376.646 392.032 375.878 391.6C375.134 391.168 374.318 390.952 373.43 390.952C372.47 390.952 371.606 391.168 370.838 391.6C370.07 392.032 369.458 392.644 369.002 393.436C368.57 394.228 368.354 395.188 368.354 396.316C368.354 397.444 368.57 398.404 369.002 399.196C369.458 399.988 370.07 400.6 370.838 401.032C371.606 401.464 372.47 401.68 373.43 401.68C374.318 401.68 375.134 401.476 375.878 401.068C376.646 400.636 377.282 399.952 377.786 399.016L382.142 401.392C381.422 402.952 380.306 404.164 378.794 405.028C377.282 405.868 375.506 406.288 373.466 406.288ZM394.345 406.288C392.281 406.288 390.445 405.856 388.837 404.992C387.253 404.128 385.993 402.952 385.057 401.464C384.145 399.952 383.689 398.236 383.689 396.316C383.689 394.372 384.145 392.656 385.057 391.168C385.993 389.656 387.253 388.48 388.837 387.64C390.445 386.776 392.281 386.344 394.345 386.344C396.385 386.344 398.209 386.776 399.817 387.64C401.425 388.48 402.685 389.644 403.597 391.132C404.509 392.62 404.965 394.348 404.965 396.316C404.965 398.236 404.509 399.952 403.597 401.464C402.685 402.952 401.425 404.128 399.817 404.992C398.209 405.856 396.385 406.288 394.345 406.288ZM394.345 401.68C395.281 401.68 396.121 401.464 396.865 401.032C397.609 400.6 398.197 399.988 398.629 399.196C399.061 398.38 399.277 397.42 399.277 396.316C399.277 395.188 399.061 394.228 398.629 393.436C398.197 392.644 397.609 392.032 396.865 391.6C396.121 391.168 395.281 390.952 394.345 390.952C393.409 390.952 392.569 391.168 391.825 391.6C391.081 392.032 390.481 392.644 390.025 393.436C389.593 394.228 389.377 395.188 389.377 396.316C389.377 397.42 389.593 398.38 390.025 399.196C390.481 399.988 391.081 400.6 391.825 401.032C392.569 401.464 393.409 401.68 394.345 401.68ZM433.523 386.344C435.059 386.344 436.415 386.656 437.591 387.28C438.791 387.88 439.727 388.816 440.399 390.088C441.095 391.336 441.443 392.944 441.443 394.912V406H435.827V395.776C435.827 394.216 435.503 393.064 434.855 392.32C434.207 391.576 433.295 391.204 432.119 391.204C431.303 391.204 430.571 391.396 429.923 391.78C429.275 392.14 428.771 392.692 428.411 393.436C428.051 394.18 427.871 395.128 427.871 396.28V406H422.255V395.776C422.255 394.216 421.931 393.064 421.283 392.32C420.659 391.576 419.759 391.204 418.583 391.204C417.767 391.204 417.035 391.396 416.387 391.78C415.739 392.14 415.235 392.692 414.875 393.436C414.515 394.18 414.335 395.128 414.335 396.28V406H408.719V386.632H414.083V391.924L413.075 390.376C413.747 389.056 414.695 388.06 415.919 387.388C417.167 386.692 418.583 386.344 420.167 386.344C421.943 386.344 423.491 386.8 424.811 387.712C426.155 388.6 427.043 389.968 427.475 391.816L425.495 391.276C426.143 389.764 427.175 388.564 428.591 387.676C430.031 386.788 431.675 386.344 433.523 386.344ZM455.833 406.288C453.769 406.288 451.933 405.856 450.325 404.992C448.741 404.128 447.481 402.952 446.545 401.464C445.633 399.952 445.177 398.236 445.177 396.316C445.177 394.372 445.633 392.656 446.545 391.168C447.481 389.656 448.741 388.48 450.325 387.64C451.933 386.776 453.769 386.344 455.833 386.344C457.873 386.344 459.697 386.776 461.305 387.64C462.913 388.48 464.173 389.644 465.085 391.132C465.997 392.62 466.453 394.348 466.453 396.316C466.453 398.236 465.997 399.952 465.085 401.464C464.173 402.952 462.913 404.128 461.305 404.992C459.697 405.856 457.873 406.288 455.833 406.288ZM455.833 401.68C456.769 401.68 457.609 401.464 458.353 401.032C459.097 400.6 459.685 399.988 460.117 399.196C460.549 398.38 460.765 397.42 460.765 396.316C460.765 395.188 460.549 394.228 460.117 393.436C459.685 392.644 459.097 392.032 458.353 391.6C457.609 391.168 456.769 390.952 455.833 390.952C454.897 390.952 454.057 391.168 453.313 391.6C452.569 392.032 451.969 392.644 451.513 393.436C451.081 394.228 450.865 395.188 450.865 396.316C450.865 397.42 451.081 398.38 451.513 399.196C451.969 399.988 452.569 400.6 453.313 401.032C454.057 401.464 454.897 401.68 455.833 401.68ZM489.763 406.288C487.675 406.288 485.815 405.868 484.183 405.028C482.551 404.164 481.267 402.976 480.331 401.464C479.419 399.952 478.963 398.236 478.963 396.316C478.963 394.372 479.419 392.656 480.331 391.168C481.267 389.656 482.551 388.48 484.183 387.64C485.815 386.776 487.675 386.344 489.763 386.344C491.803 386.344 493.579 386.776 495.091 387.64C496.603 388.48 497.719 389.692 498.439 391.276L494.083 393.616C493.579 392.704 492.943 392.032 492.175 391.6C491.431 391.168 490.615 390.952 489.727 390.952C488.767 390.952 487.903 391.168 487.135 391.6C486.367 392.032 485.755 392.644 485.299 393.436C484.867 394.228 484.651 395.188 484.651 396.316C484.651 397.444 484.867 398.404 485.299 399.196C485.755 399.988 486.367 400.6 487.135 401.032C487.903 401.464 488.767 401.68 489.727 401.68C490.615 401.68 491.431 401.476 492.175 401.068C492.943 400.636 493.579 399.952 494.083 399.016L498.439 401.392C497.719 402.952 496.603 404.164 495.091 405.028C493.579 405.868 491.803 406.288 489.763 406.288ZM510.642 406.288C508.578 406.288 506.742 405.856 505.134 404.992C503.55 404.128 502.29 402.952 501.354 401.464C500.442 399.952 499.986 398.236 499.986 396.316C499.986 394.372 500.442 392.656 501.354 391.168C502.29 389.656 503.55 388.48 505.134 387.64C506.742 386.776 508.578 386.344 510.642 386.344C512.682 386.344 514.506 386.776 516.114 387.64C517.722 388.48 518.982 389.644 519.894 391.132C520.806 392.62 521.262 394.348 521.262 396.316C521.262 398.236 520.806 399.952 519.894 401.464C518.982 402.952 517.722 404.128 516.114 404.992C514.506 405.856 512.682 406.288 510.642 406.288ZM510.642 401.68C511.578 401.68 512.418 401.464 513.162 401.032C513.906 400.6 514.494 399.988 514.926 399.196C515.358 398.38 515.574 397.42 515.574 396.316C515.574 395.188 515.358 394.228 514.926 393.436C514.494 392.644 513.906 392.032 513.162 391.6C512.418 391.168 511.578 390.952 510.642 390.952C509.706 390.952 508.866 391.168 508.122 391.6C507.378 392.032 506.778 392.644 506.322 393.436C505.89 394.228 505.674 395.188 505.674 396.316C505.674 397.42 505.89 398.38 506.322 399.196C506.778 399.988 507.378 400.6 508.122 401.032C508.866 401.464 509.706 401.68 510.642 401.68ZM525.016 406V379.288H530.632V406H525.016ZM545.06 406.288C542.996 406.288 541.16 405.856 539.552 404.992C537.968 404.128 536.708 402.952 535.772 401.464C534.86 399.952 534.404 398.236 534.404 396.316C534.404 394.372 534.86 392.656 535.772 391.168C536.708 389.656 537.968 388.48 539.552 387.64C541.16 386.776 542.996 386.344 545.06 386.344C547.1 386.344 548.924 386.776 550.532 387.64C552.14 388.48 553.4 389.644 554.312 391.132C555.224 392.62 555.68 394.348 555.68 396.316C555.68 398.236 555.224 399.952 554.312 401.464C553.4 402.952 552.14 404.128 550.532 404.992C548.924 405.856 547.1 406.288 545.06 406.288ZM545.06 401.68C545.996 401.68 546.836 401.464 547.58 401.032C548.324 400.6 548.912 399.988 549.344 399.196C549.776 398.38 549.992 397.42 549.992 396.316C549.992 395.188 549.776 394.228 549.344 393.436C548.912 392.644 548.324 392.032 547.58 391.6C546.836 391.168 545.996 390.952 545.06 390.952C544.124 390.952 543.284 391.168 542.54 391.6C541.796 392.032 541.196 392.644 540.74 393.436C540.308 394.228 540.092 395.188 540.092 396.316C540.092 397.42 540.308 398.38 540.74 399.196C541.196 399.988 541.796 400.6 542.54 401.032C543.284 401.464 544.124 401.68 545.06 401.68ZM559.434 406V386.632H564.798V392.104L564.042 390.52C564.618 389.152 565.542 388.12 566.814 387.424C568.086 386.704 569.634 386.344 571.458 386.344V391.528C571.218 391.504 571.002 391.492 570.81 391.492C570.618 391.468 570.414 391.456 570.198 391.456C568.662 391.456 567.414 391.9 566.454 392.788C565.518 393.652 565.05 395.008 565.05 396.856V406H559.434ZM105.206 450.288C103.118 450.288 101.258 449.868 99.6259 449.028C97.9939 448.164 96.7099 446.976 95.7739 445.464C94.8619 443.952 94.4059 442.236 94.4059 440.316C94.4059 438.372 94.8619 436.656 95.7739 435.168C96.7099 433.656 97.9939 432.48 99.6259 431.64C101.258 430.776 103.118 430.344 105.206 430.344C107.246 430.344 109.022 430.776 110.534 431.64C112.046 432.48 113.162 433.692 113.882 435.276L109.526 437.616C109.022 436.704 108.386 436.032 107.618 435.6C106.874 435.168 106.058 434.952 105.17 434.952C104.21 434.952 103.346 435.168 102.578 435.6C101.81 436.032 101.198 436.644 100.742 437.436C100.31 438.228 100.094 439.188 100.094 440.316C100.094 441.444 100.31 442.404 100.742 443.196C101.198 443.988 101.81 444.6 102.578 445.032C103.346 445.464 104.21 445.68 105.17 445.68C106.058 445.68 106.874 445.476 107.618 445.068C108.386 444.636 109.022 443.952 109.526 443.016L113.882 445.392C113.162 446.952 112.046 448.164 110.534 449.028C109.022 449.868 107.246 450.288 105.206 450.288ZM126.085 450.288C124.021 450.288 122.185 449.856 120.577 448.992C118.993 448.128 117.733 446.952 116.797 445.464C115.885 443.952 115.429 442.236 115.429 440.316C115.429 438.372 115.885 436.656 116.797 435.168C117.733 433.656 118.993 432.48 120.577 431.64C122.185 430.776 124.021 430.344 126.085 430.344C128.125 430.344 129.949 430.776 131.557 431.64C133.165 432.48 134.425 433.644 135.337 435.132C136.249 436.62 136.705 438.348 136.705 440.316C136.705 442.236 136.249 443.952 135.337 445.464C134.425 446.952 133.165 448.128 131.557 448.992C129.949 449.856 128.125 450.288 126.085 450.288ZM126.085 445.68C127.021 445.68 127.861 445.464 128.605 445.032C129.349 444.6 129.937 443.988 130.369 443.196C130.801 442.38 131.017 441.42 131.017 440.316C131.017 439.188 130.801 438.228 130.369 437.436C129.937 436.644 129.349 436.032 128.605 435.6C127.861 435.168 127.021 434.952 126.085 434.952C125.149 434.952 124.309 435.168 123.565 435.6C122.821 436.032 122.221 436.644 121.765 437.436C121.333 438.228 121.117 439.188 121.117 440.316C121.117 441.42 121.333 442.38 121.765 443.196C122.221 443.988 122.821 444.6 123.565 445.032C124.309 445.464 125.149 445.68 126.085 445.68ZM152.231 430.344C153.767 430.344 155.135 430.656 156.335 431.28C157.559 431.88 158.519 432.816 159.215 434.088C159.911 435.336 160.259 436.944 160.259 438.912V450H154.643V439.776C154.643 438.216 154.295 437.064 153.599 436.32C152.927 435.576 151.967 435.204 150.719 435.204C149.831 435.204 149.027 435.396 148.307 435.78C147.611 436.14 147.059 436.704 146.651 437.472C146.267 438.24 146.075 439.224 146.075 440.424V450H140.459V430.632H145.823V435.996L144.815 434.376C145.511 433.08 146.507 432.084 147.803 431.388C149.099 430.692 150.575 430.344 152.231 430.344ZM173.27 450.288C170.99 450.288 169.214 449.712 167.942 448.56C166.67 447.384 166.034 445.644 166.034 443.34V426.348H171.65V443.268C171.65 444.084 171.866 444.72 172.298 445.176C172.73 445.608 173.318 445.824 174.062 445.824C174.95 445.824 175.706 445.584 176.33 445.104L177.842 449.064C177.266 449.472 176.57 449.784 175.754 450C174.962 450.192 174.134 450.288 173.27 450.288ZM163.046 435.384V431.064H176.474V435.384H163.046ZM180.994 450V430.632H186.358V436.104L185.602 434.52C186.178 433.152 187.102 432.12 188.374 431.424C189.646 430.704 191.194 430.344 193.018 430.344V435.528C192.778 435.504 192.562 435.492 192.37 435.492C192.178 435.468 191.974 435.456 191.758 435.456C190.222 435.456 188.974 435.9 188.014 436.788C187.078 437.652 186.61 439.008 186.61 440.856V450H180.994ZM206.972 450V446.22L206.612 445.392V438.624C206.612 437.424 206.24 436.488 205.496 435.816C204.776 435.144 203.66 434.808 202.148 434.808C201.116 434.808 200.096 434.976 199.088 435.312C198.104 435.624 197.264 436.056 196.568 436.608L194.552 432.684C195.608 431.94 196.88 431.364 198.368 430.956C199.856 430.548 201.368 430.344 202.904 430.344C205.856 430.344 208.148 431.04 209.78 432.432C211.412 433.824 212.228 435.996 212.228 438.948V450H206.972ZM201.068 450.288C199.556 450.288 198.26 450.036 197.18 449.532C196.1 449.004 195.272 448.296 194.696 447.408C194.12 446.52 193.832 445.524 193.832 444.42C193.832 443.268 194.108 442.26 194.66 441.396C195.236 440.532 196.136 439.86 197.36 439.38C198.584 438.876 200.18 438.624 202.148 438.624H207.296V441.9H202.76C201.44 441.9 200.528 442.116 200.024 442.548C199.544 442.98 199.304 443.52 199.304 444.168C199.304 444.888 199.58 445.464 200.132 445.896C200.708 446.304 201.488 446.508 202.472 446.508C203.408 446.508 204.248 446.292 204.992 445.86C205.736 445.404 206.276 444.744 206.612 443.88L207.476 446.472C207.068 447.72 206.324 448.668 205.244 449.316C204.164 449.964 202.772 450.288 201.068 450.288ZM223.827 450.288C222.171 450.288 220.575 450.096 219.039 449.712C217.527 449.304 216.327 448.8 215.439 448.2L217.311 444.168C218.199 444.72 219.243 445.176 220.443 445.536C221.667 445.872 222.867 446.04 224.043 446.04C225.339 446.04 226.251 445.884 226.779 445.572C227.331 445.26 227.607 444.828 227.607 444.276C227.607 443.82 227.391 443.484 226.959 443.268C226.551 443.028 225.999 442.848 225.303 442.728C224.607 442.608 223.839 442.488 222.999 442.368C222.183 442.248 221.355 442.092 220.515 441.9C219.675 441.684 218.907 441.372 218.211 440.964C217.515 440.556 216.951 440.004 216.519 439.308C216.111 438.612 215.907 437.712 215.907 436.608C215.907 435.384 216.255 434.304 216.951 433.368C217.671 432.432 218.703 431.7 220.047 431.172C221.391 430.62 222.999 430.344 224.871 430.344C226.191 430.344 227.535 430.488 228.903 430.776C230.271 431.064 231.411 431.484 232.323 432.036L230.451 436.032C229.515 435.48 228.567 435.108 227.607 434.916C226.671 434.7 225.759 434.592 224.871 434.592C223.623 434.592 222.711 434.76 222.135 435.096C221.559 435.432 221.271 435.864 221.271 436.392C221.271 436.872 221.475 437.232 221.883 437.472C222.315 437.712 222.879 437.904 223.575 438.048C224.271 438.192 225.027 438.324 225.843 438.444C226.683 438.54 227.523 438.696 228.363 438.912C229.203 439.128 229.959 439.44 230.631 439.848C231.327 440.232 231.891 440.772 232.323 441.468C232.755 442.14 232.971 443.028 232.971 444.132C232.971 445.332 232.611 446.4 231.891 447.336C231.171 448.248 230.127 448.968 228.759 449.496C227.415 450.024 225.771 450.288 223.827 450.288ZM244.356 450.288C242.076 450.288 240.3 449.712 239.028 448.56C237.756 447.384 237.12 445.644 237.12 443.34V426.348H242.736V443.268C242.736 444.084 242.952 444.72 243.384 445.176C243.816 445.608 244.404 445.824 245.148 445.824C246.036 445.824 246.792 445.584 247.416 445.104L248.928 449.064C248.352 449.472 247.656 449.784 246.84 450C246.048 450.192 245.22 450.288 244.356 450.288ZM234.132 435.384V431.064H247.56V435.384H234.132ZM263.96 450V446.22L263.6 445.392V438.624C263.6 437.424 263.228 436.488 262.484 435.816C261.764 435.144 260.648 434.808 259.136 434.808C258.104 434.808 257.084 434.976 256.076 435.312C255.092 435.624 254.252 436.056 253.556 436.608L251.54 432.684C252.596 431.94 253.868 431.364 255.356 430.956C256.844 430.548 258.356 430.344 259.892 430.344C262.844 430.344 265.136 431.04 266.768 432.432C268.4 433.824 269.216 435.996 269.216 438.948V450H263.96ZM258.056 450.288C256.544 450.288 255.248 450.036 254.168 449.532C253.088 449.004 252.26 448.296 251.684 447.408C251.108 446.52 250.82 445.524 250.82 444.42C250.82 443.268 251.096 442.26 251.648 441.396C252.224 440.532 253.124 439.86 254.348 439.38C255.572 438.876 257.168 438.624 259.136 438.624H264.284V441.9H259.748C258.428 441.9 257.516 442.116 257.012 442.548C256.532 442.98 256.292 443.52 256.292 444.168C256.292 444.888 256.568 445.464 257.12 445.896C257.696 446.304 258.476 446.508 259.46 446.508C260.396 446.508 261.236 446.292 261.98 445.86C262.724 445.404 263.264 444.744 263.6 443.88L264.464 446.472C264.056 447.72 263.312 448.668 262.232 449.316C261.152 449.964 259.76 450.288 258.056 450.288ZM286.071 430.344C287.607 430.344 288.975 430.656 290.175 431.28C291.399 431.88 292.359 432.816 293.055 434.088C293.751 435.336 294.099 436.944 294.099 438.912V450H288.483V439.776C288.483 438.216 288.135 437.064 287.439 436.32C286.767 435.576 285.807 435.204 284.559 435.204C283.671 435.204 282.867 435.396 282.147 435.78C281.451 436.14 280.899 436.704 280.491 437.472C280.107 438.24 279.915 439.224 279.915 440.424V450H274.299V430.632H279.663V435.996L278.655 434.376C279.351 433.08 280.347 432.084 281.643 431.388C282.939 430.692 284.415 430.344 286.071 430.344ZM307.11 450.288C304.83 450.288 303.054 449.712 301.782 448.56C300.51 447.384 299.874 445.644 299.874 443.34V426.348H305.49V443.268C305.49 444.084 305.706 444.72 306.138 445.176C306.57 445.608 307.158 445.824 307.902 445.824C308.79 445.824 309.546 445.584 310.17 445.104L311.682 449.064C311.106 449.472 310.41 449.784 309.594 450C308.802 450.192 307.974 450.288 307.11 450.288ZM296.886 435.384V431.064H310.314V435.384H296.886ZM323.849 450.288C321.641 450.288 319.697 449.856 318.017 448.992C316.361 448.128 315.077 446.952 314.165 445.464C313.253 443.952 312.797 442.236 312.797 440.316C312.797 438.372 313.241 436.656 314.129 435.168C315.041 433.656 316.277 432.48 317.837 431.64C319.397 430.776 321.161 430.344 323.129 430.344C325.025 430.344 326.729 430.752 328.241 431.568C329.777 432.36 330.989 433.512 331.877 435.024C332.765 436.512 333.209 438.3 333.209 440.388C333.209 440.604 333.197 440.856 333.173 441.144C333.149 441.408 333.125 441.66 333.101 441.9H317.369V438.624H330.149L327.989 439.596C327.989 438.588 327.785 437.712 327.377 436.968C326.969 436.224 326.405 435.648 325.685 435.24C324.965 434.808 324.125 434.592 323.165 434.592C322.205 434.592 321.353 434.808 320.609 435.24C319.889 435.648 319.325 436.236 318.917 437.004C318.509 437.748 318.305 438.636 318.305 439.668V440.532C318.305 441.588 318.533 442.524 318.989 443.34C319.469 444.132 320.129 444.744 320.969 445.176C321.833 445.584 322.841 445.788 323.993 445.788C325.025 445.788 325.925 445.632 326.693 445.32C327.485 445.008 328.205 444.54 328.853 443.916L331.841 447.156C330.953 448.164 329.837 448.944 328.493 449.496C327.149 450.024 325.601 450.288 323.849 450.288ZM349.591 457.272C348.583 457.272 347.587 457.116 346.603 456.804C345.619 456.492 344.815 456.06 344.191 455.508L346.243 451.512C346.675 451.896 347.167 452.196 347.719 452.412C348.295 452.628 348.859 452.736 349.411 452.736C350.203 452.736 350.827 452.544 351.283 452.16C351.763 451.8 352.195 451.188 352.579 450.324L353.587 447.948L354.019 447.336L360.967 430.632H366.367L357.619 451.188C356.995 452.748 356.275 453.972 355.459 454.86C354.667 455.748 353.779 456.372 352.795 456.732C351.835 457.092 350.767 457.272 349.591 457.272ZM352.903 450.756L344.263 430.632H350.059L356.755 446.832L352.903 450.756ZM389.733 450V430.2C389.733 428.016 390.381 426.276 391.677 424.98C392.973 423.66 394.821 423 397.221 423C398.037 423 398.817 423.084 399.561 423.252C400.329 423.42 400.977 423.684 401.505 424.044L400.029 428.112C399.717 427.896 399.369 427.728 398.985 427.608C398.601 427.488 398.193 427.428 397.761 427.428C396.945 427.428 396.309 427.668 395.853 428.148C395.421 428.604 395.205 429.3 395.205 430.236V432.036L395.349 434.448V450H389.733ZM386.745 435.384V431.064H400.173V435.384H386.745ZM411.941 450.288C409.877 450.288 408.041 449.856 406.433 448.992C404.849 448.128 403.589 446.952 402.653 445.464C401.741 443.952 401.285 442.236 401.285 440.316C401.285 438.372 401.741 436.656 402.653 435.168C403.589 433.656 404.849 432.48 406.433 431.64C408.041 430.776 409.877 430.344 411.941 430.344C413.981 430.344 415.805 430.776 417.413 431.64C419.021 432.48 420.281 433.644 421.193 435.132C422.105 436.62 422.561 438.348 422.561 440.316C422.561 442.236 422.105 443.952 421.193 445.464C420.281 446.952 419.021 448.128 417.413 448.992C415.805 449.856 413.981 450.288 411.941 450.288ZM411.941 445.68C412.877 445.68 413.717 445.464 414.461 445.032C415.205 444.6 415.793 443.988 416.225 443.196C416.657 442.38 416.873 441.42 416.873 440.316C416.873 439.188 416.657 438.228 416.225 437.436C415.793 436.644 415.205 436.032 414.461 435.6C413.717 435.168 412.877 434.952 411.941 434.952C411.005 434.952 410.165 435.168 409.421 435.6C408.677 436.032 408.077 436.644 407.621 437.436C407.189 438.228 406.973 439.188 406.973 440.316C406.973 441.42 407.189 442.38 407.621 443.196C408.077 443.988 408.677 444.6 409.421 445.032C410.165 445.464 411.005 445.68 411.941 445.68ZM438.087 430.344C439.623 430.344 440.991 430.656 442.191 431.28C443.415 431.88 444.375 432.816 445.071 434.088C445.767 435.336 446.115 436.944 446.115 438.912V450H440.499V439.776C440.499 438.216 440.151 437.064 439.455 436.32C438.783 435.576 437.823 435.204 436.575 435.204C435.687 435.204 434.883 435.396 434.163 435.78C433.467 436.14 432.915 436.704 432.507 437.472C432.123 438.24 431.931 439.224 431.931 440.424V450H426.315V430.632H431.679V435.996L430.671 434.376C431.367 433.08 432.363 432.084 433.659 431.388C434.955 430.692 436.431 430.344 438.087 430.344ZM459.662 450.288C457.838 450.288 456.194 449.88 454.73 449.064C453.266 448.224 452.102 447.06 451.238 445.572C450.398 444.084 449.978 442.332 449.978 440.316C449.978 438.276 450.398 436.512 451.238 435.024C452.102 433.536 453.266 432.384 454.73 431.568C456.194 430.752 457.838 430.344 459.662 430.344C461.294 430.344 462.722 430.704 463.946 431.424C465.17 432.144 466.118 433.236 466.79 434.7C467.462 436.164 467.798 438.036 467.798 440.316C467.798 442.572 467.474 444.444 466.826 445.932C466.178 447.396 465.242 448.488 464.018 449.208C462.818 449.928 461.366 450.288 459.662 450.288ZM460.634 445.68C461.546 445.68 462.374 445.464 463.118 445.032C463.862 444.6 464.45 443.988 464.882 443.196C465.338 442.38 465.566 441.42 465.566 440.316C465.566 439.188 465.338 438.228 464.882 437.436C464.45 436.644 463.862 436.032 463.118 435.6C462.374 435.168 461.546 434.952 460.634 434.952C459.698 434.952 458.858 435.168 458.114 435.6C457.37 436.032 456.77 436.644 456.314 437.436C455.882 438.228 455.666 439.188 455.666 440.316C455.666 441.42 455.882 442.38 456.314 443.196C456.77 443.988 457.37 444.6 458.114 445.032C458.858 445.464 459.698 445.68 460.634 445.68ZM465.71 450V446.04L465.818 440.28L465.458 434.556V423.288H471.074V450H465.71ZM485.488 450.288C483.424 450.288 481.588 449.856 479.98 448.992C478.396 448.128 477.136 446.952 476.2 445.464C475.288 443.952 474.832 442.236 474.832 440.316C474.832 438.372 475.288 436.656 476.2 435.168C477.136 433.656 478.396 432.48 479.98 431.64C481.588 430.776 483.424 430.344 485.488 430.344C487.528 430.344 489.352 430.776 490.96 431.64C492.568 432.48 493.828 433.644 494.74 435.132C495.652 436.62 496.108 438.348 496.108 440.316C496.108 442.236 495.652 443.952 494.74 445.464C493.828 446.952 492.568 448.128 490.96 448.992C489.352 449.856 487.528 450.288 485.488 450.288ZM485.488 445.68C486.424 445.68 487.264 445.464 488.008 445.032C488.752 444.6 489.34 443.988 489.772 443.196C490.204 442.38 490.42 441.42 490.42 440.316C490.42 439.188 490.204 438.228 489.772 437.436C489.34 436.644 488.752 436.032 488.008 435.6C487.264 435.168 486.424 434.952 485.488 434.952C484.552 434.952 483.712 435.168 482.968 435.6C482.224 436.032 481.624 436.644 481.168 437.436C480.736 438.228 480.52 439.188 480.52 440.316C480.52 441.42 480.736 442.38 481.168 443.196C481.624 443.988 482.224 444.6 482.968 445.032C483.712 445.464 484.552 445.68 485.488 445.68ZM517.977 450.288C515.697 450.288 513.921 449.712 512.649 448.56C511.377 447.384 510.741 445.644 510.741 443.34V426.348H516.357V443.268C516.357 444.084 516.573 444.72 517.005 445.176C517.437 445.608 518.025 445.824 518.769 445.824C519.657 445.824 520.413 445.584 521.037 445.104L522.549 449.064C521.973 449.472 521.277 449.784 520.461 450C519.669 450.192 518.841 450.288 517.977 450.288ZM507.753 435.384V431.064H521.181V435.384H507.753ZM525.701 450V430.632H531.065V436.104L530.309 434.52C530.885 433.152 531.809 432.12 533.081 431.424C534.353 430.704 535.901 430.344 537.725 430.344V435.528C537.485 435.504 537.269 435.492 537.077 435.492C536.885 435.468 536.681 435.456 536.465 435.456C534.929 435.456 533.681 435.9 532.721 436.788C531.785 437.652 531.317 439.008 531.317 440.856V450H525.701ZM551.679 450V446.22L551.319 445.392V438.624C551.319 437.424 550.947 436.488 550.203 435.816C549.483 435.144 548.367 434.808 546.855 434.808C545.823 434.808 544.803 434.976 543.795 435.312C542.811 435.624 541.971 436.056 541.275 436.608L539.259 432.684C540.315 431.94 541.587 431.364 543.075 430.956C544.563 430.548 546.075 430.344 547.611 430.344C550.563 430.344 552.855 431.04 554.487 432.432C556.119 433.824 556.935 435.996 556.935 438.948V450H551.679ZM545.775 450.288C544.263 450.288 542.967 450.036 541.887 449.532C540.807 449.004 539.979 448.296 539.403 447.408C538.827 446.52 538.539 445.524 538.539 444.42C538.539 443.268 538.815 442.26 539.367 441.396C539.943 440.532 540.843 439.86 542.067 439.38C543.291 438.876 544.887 438.624 546.855 438.624H552.003V441.9H547.467C546.147 441.9 545.235 442.116 544.731 442.548C544.251 442.98 544.011 443.52 544.011 444.168C544.011 444.888 544.287 445.464 544.839 445.896C545.415 446.304 546.195 446.508 547.179 446.508C548.115 446.508 548.955 446.292 549.699 445.86C550.443 445.404 550.983 444.744 551.319 443.88L552.183 446.472C551.775 447.72 551.031 448.668 549.951 449.316C548.871 449.964 547.479 450.288 545.775 450.288ZM573.79 430.344C575.326 430.344 576.694 430.656 577.894 431.28C579.118 431.88 580.078 432.816 580.774 434.088C581.47 435.336 581.818 436.944 581.818 438.912V450H576.202V439.776C576.202 438.216 575.854 437.064 575.158 436.32C574.486 435.576 573.526 435.204 572.278 435.204C571.39 435.204 570.586 435.396 569.866 435.78C569.17 436.14 568.618 436.704 568.21 437.472C567.826 438.24 567.634 439.224 567.634 440.424V450H562.018V430.632H567.382V435.996L566.374 434.376C567.07 433.08 568.066 432.084 569.362 431.388C570.658 430.692 572.134 430.344 573.79 430.344ZM593.424 450.288C591.768 450.288 590.172 450.096 588.636 449.712C587.124 449.304 585.924 448.8 585.036 448.2L586.908 444.168C587.796 444.72 588.84 445.176 590.04 445.536C591.264 445.872 592.464 446.04 593.64 446.04C594.936 446.04 595.848 445.884 596.376 445.572C596.928 445.26 597.204 444.828 597.204 444.276C597.204 443.82 596.988 443.484 596.556 443.268C596.148 443.028 595.596 442.848 594.9 442.728C594.204 442.608 593.436 442.488 592.596 442.368C591.78 442.248 590.952 442.092 590.112 441.9C589.272 441.684 588.504 441.372 587.808 440.964C587.112 440.556 586.548 440.004 586.116 439.308C585.708 438.612 585.504 437.712 585.504 436.608C585.504 435.384 585.852 434.304 586.548 433.368C587.268 432.432 588.3 431.7 589.644 431.172C590.988 430.62 592.596 430.344 594.468 430.344C595.788 430.344 597.132 430.488 598.5 430.776C599.868 431.064 601.008 431.484 601.92 432.036L600.048 436.032C599.112 435.48 598.164 435.108 597.204 434.916C596.268 434.7 595.356 434.592 594.468 434.592C593.22 434.592 592.308 434.76 591.732 435.096C591.156 435.432 590.868 435.864 590.868 436.392C590.868 436.872 591.072 437.232 591.48 437.472C591.912 437.712 592.476 437.904 593.172 438.048C593.868 438.192 594.624 438.324 595.44 438.444C596.28 438.54 597.12 438.696 597.96 438.912C598.8 439.128 599.556 439.44 600.228 439.848C600.924 440.232 601.488 440.772 601.92 441.468C602.352 442.14 602.568 443.028 602.568 444.132C602.568 445.332 602.208 446.4 601.488 447.336C600.768 448.248 599.724 448.968 598.356 449.496C597.012 450.024 595.368 450.288 593.424 450.288ZM617.481 450.288C615.849 450.288 614.421 449.928 613.197 449.208C611.973 448.488 611.013 447.396 610.317 445.932C609.645 444.444 609.309 442.572 609.309 440.316C609.309 438.036 609.633 436.164 610.281 434.7C610.929 433.236 611.865 432.144 613.089 431.424C614.313 430.704 615.777 430.344 617.481 430.344C619.305 430.344 620.937 430.764 622.377 431.604C623.841 432.42 624.993 433.572 625.833 435.06C626.697 436.548 627.129 438.3 627.129 440.316C627.129 442.356 626.697 444.12 625.833 445.608C624.993 447.096 623.841 448.248 622.377 449.064C620.937 449.88 619.305 450.288 617.481 450.288ZM606.033 456.984V430.632H611.397V434.592L611.289 440.352L611.649 446.076V456.984H606.033ZM616.509 445.68C617.445 445.68 618.273 445.464 618.993 445.032C619.737 444.6 620.325 443.988 620.757 443.196C621.213 442.38 621.441 441.42 621.441 440.316C621.441 439.188 621.213 438.228 620.757 437.436C620.325 436.644 619.737 436.032 618.993 435.6C618.273 435.168 617.445 434.952 616.509 434.952C615.573 434.952 614.733 435.168 613.989 435.6C613.245 436.032 612.657 436.644 612.225 437.436C611.793 438.228 611.577 439.188 611.577 440.316C611.577 441.42 611.793 442.38 612.225 443.196C612.657 443.988 613.245 444.6 613.989 445.032C614.733 445.464 615.573 445.68 616.509 445.68ZM642.452 450V446.22L642.092 445.392V438.624C642.092 437.424 641.72 436.488 640.976 435.816C640.256 435.144 639.14 434.808 637.628 434.808C636.596 434.808 635.576 434.976 634.568 435.312C633.584 435.624 632.744 436.056 632.048 436.608L630.032 432.684C631.088 431.94 632.36 431.364 633.848 430.956C635.336 430.548 636.848 430.344 638.384 430.344C641.336 430.344 643.628 431.04 645.26 432.432C646.892 433.824 647.708 435.996 647.708 438.948V450H642.452ZM636.548 450.288C635.036 450.288 633.74 450.036 632.66 449.532C631.58 449.004 630.752 448.296 630.176 447.408C629.6 446.52 629.312 445.524 629.312 444.42C629.312 443.268 629.588 442.26 630.14 441.396C630.716 440.532 631.616 439.86 632.84 439.38C634.064 438.876 635.66 438.624 637.628 438.624H642.776V441.9H638.24C636.92 441.9 636.008 442.116 635.504 442.548C635.024 442.98 634.784 443.52 634.784 444.168C634.784 444.888 635.06 445.464 635.612 445.896C636.188 446.304 636.968 446.508 637.952 446.508C638.888 446.508 639.728 446.292 640.472 445.86C641.216 445.404 641.756 444.744 642.092 443.88L642.956 446.472C642.548 447.72 641.804 448.668 640.724 449.316C639.644 449.964 638.252 450.288 636.548 450.288ZM652.791 450V430.632H658.155V436.104L657.399 434.52C657.975 433.152 658.899 432.12 660.171 431.424C661.443 430.704 662.991 430.344 664.815 430.344V435.528C664.575 435.504 664.359 435.492 664.167 435.492C663.975 435.468 663.771 435.456 663.555 435.456C662.019 435.456 660.771 435.9 659.811 436.788C658.875 437.652 658.407 439.008 658.407 440.856V450H652.791ZM677.591 450.288C675.383 450.288 673.439 449.856 671.759 448.992C670.103 448.128 668.819 446.952 667.907 445.464C666.995 443.952 666.539 442.236 666.539 440.316C666.539 438.372 666.983 436.656 667.871 435.168C668.783 433.656 670.019 432.48 671.579 431.64C673.139 430.776 674.903 430.344 676.871 430.344C678.767 430.344 680.471 430.752 681.983 431.568C683.519 432.36 684.731 433.512 685.619 435.024C686.507 436.512 686.951 438.3 686.951 440.388C686.951 440.604 686.939 440.856 686.915 441.144C686.891 441.408 686.867 441.66 686.843 441.9H671.111V438.624H683.891L681.731 439.596C681.731 438.588 681.527 437.712 681.119 436.968C680.711 436.224 680.147 435.648 679.427 435.24C678.707 434.808 677.867 434.592 676.907 434.592C675.947 434.592 675.095 434.808 674.351 435.24C673.631 435.648 673.067 436.236 672.659 437.004C672.251 437.748 672.047 438.636 672.047 439.668V440.532C672.047 441.588 672.275 442.524 672.731 443.34C673.211 444.132 673.871 444.744 674.711 445.176C675.575 445.584 676.583 445.788 677.735 445.788C678.767 445.788 679.667 445.632 680.435 445.32C681.227 445.008 681.947 444.54 682.595 443.916L685.583 447.156C684.695 448.164 683.579 448.944 682.235 449.496C680.891 450.024 679.343 450.288 677.591 450.288ZM702.462 430.344C703.998 430.344 705.366 430.656 706.566 431.28C707.79 431.88 708.75 432.816 709.446 434.088C710.142 435.336 710.49 436.944 710.49 438.912V450H704.874V439.776C704.874 438.216 704.526 437.064 703.83 436.32C703.158 435.576 702.198 435.204 700.95 435.204C700.062 435.204 699.258 435.396 698.538 435.78C697.842 436.14 697.29 436.704 696.882 437.472C696.498 438.24 696.306 439.224 696.306 440.424V450H690.69V430.632H696.054V435.996L695.046 434.376C695.742 433.08 696.738 432.084 698.034 431.388C699.33 430.692 700.806 430.344 702.462 430.344ZM723.5 450.288C721.22 450.288 719.444 449.712 718.172 448.56C716.9 447.384 716.264 445.644 716.264 443.34V426.348H721.88V443.268C721.88 444.084 722.096 444.72 722.528 445.176C722.96 445.608 723.548 445.824 724.292 445.824C725.18 445.824 725.936 445.584 726.56 445.104L728.072 449.064C727.496 449.472 726.8 449.784 725.984 450C725.192 450.192 724.364 450.288 723.5 450.288ZM713.276 435.384V431.064H726.704V435.384H713.276ZM740.239 450.288C738.031 450.288 736.087 449.856 734.407 448.992C732.751 448.128 731.467 446.952 730.555 445.464C729.643 443.952 729.187 442.236 729.187 440.316C729.187 438.372 729.631 436.656 730.519 435.168C731.431 433.656 732.667 432.48 734.227 431.64C735.787 430.776 737.551 430.344 739.519 430.344C741.415 430.344 743.119 430.752 744.631 431.568C746.167 432.36 747.379 433.512 748.267 435.024C749.155 436.512 749.599 438.3 749.599 440.388C749.599 440.604 749.587 440.856 749.563 441.144C749.539 441.408 749.515 441.66 749.491 441.9H733.759V438.624H746.539L744.379 439.596C744.379 438.588 744.175 437.712 743.767 436.968C743.359 436.224 742.795 435.648 742.075 435.24C741.355 434.808 740.515 434.592 739.555 434.592C738.595 434.592 737.743 434.808 736.999 435.24C736.279 435.648 735.715 436.236 735.307 437.004C734.899 437.748 734.695 438.636 734.695 439.668V440.532C734.695 441.588 734.923 442.524 735.379 443.34C735.859 444.132 736.519 444.744 737.359 445.176C738.223 445.584 739.231 445.788 740.383 445.788C741.415 445.788 742.315 445.632 743.083 445.32C743.875 445.008 744.595 444.54 745.243 443.916L748.231 447.156C747.343 448.164 746.227 448.944 744.883 449.496C743.539 450.024 741.991 450.288 740.239 450.288Z" fill="#242424"/>
</svg>
