<svg width="800" height="785" viewBox="0 0 800 785" fill="none" xmlns="http://www.w3.org/2000/svg">
<path d="M0 0L800 785H0V0Z" fill="#CDFB51"/>
<path d="M307.768 362V342.632H313.384V362H307.768ZM310.576 339.932C309.544 339.932 308.704 339.632 308.056 339.032C307.408 338.432 307.084 337.688 307.084 336.8C307.084 335.912 307.408 335.168 308.056 334.568C308.704 333.968 309.544 333.668 310.576 333.668C311.608 333.668 312.448 333.956 313.096 334.532C313.744 335.084 314.068 335.804 314.068 336.692C314.068 337.628 313.744 338.408 313.096 339.032C312.472 339.632 311.632 339.932 310.576 339.932ZM343.4 342.344C344.936 342.344 346.292 342.656 347.468 343.28C348.668 343.88 349.604 344.816 350.276 346.088C350.972 347.336 351.32 348.944 351.32 350.912V362H345.704V351.776C345.704 350.216 345.38 349.064 344.732 348.32C344.084 347.576 343.172 347.204 341.996 347.204C341.18 347.204 340.448 347.396 339.8 347.78C339.152 348.14 338.648 348.692 338.288 349.436C337.928 350.18 337.748 351.128 337.748 352.28V362H332.132V351.776C332.132 350.216 331.808 349.064 331.16 348.32C330.536 347.576 329.636 347.204 328.46 347.204C327.644 347.204 326.912 347.396 326.264 347.78C325.616 348.14 325.112 348.692 324.752 349.436C324.392 350.18 324.212 351.128 324.212 352.28V362H318.596V342.632H323.96V347.924L322.952 346.376C323.624 345.056 324.572 344.06 325.796 343.388C327.044 342.692 328.46 342.344 330.044 342.344C331.82 342.344 333.368 342.8 334.688 343.712C336.032 344.6 336.92 345.968 337.352 347.816L335.372 347.276C336.02 345.764 337.052 344.564 338.468 343.676C339.908 342.788 341.552 342.344 343.4 342.344ZM368.234 362V358.22L367.874 357.392V350.624C367.874 349.424 367.502 348.488 366.758 347.816C366.038 347.144 364.922 346.808 363.41 346.808C362.378 346.808 361.358 346.976 360.35 347.312C359.366 347.624 358.526 348.056 357.83 348.608L355.814 344.684C356.87 343.94 358.142 343.364 359.63 342.956C361.118 342.548 362.63 342.344 364.166 342.344C367.118 342.344 369.41 343.04 371.042 344.432C372.674 345.824 373.49 347.996 373.49 350.948V362H368.234ZM362.33 362.288C360.818 362.288 359.522 362.036 358.442 361.532C357.362 361.004 356.534 360.296 355.958 359.408C355.382 358.52 355.094 357.524 355.094 356.42C355.094 355.268 355.37 354.26 355.922 353.396C356.498 352.532 357.398 351.86 358.622 351.38C359.846 350.876 361.442 350.624 363.41 350.624H368.558V353.9H364.022C362.702 353.9 361.79 354.116 361.286 354.548C360.806 354.98 360.566 355.52 360.566 356.168C360.566 356.888 360.842 357.464 361.394 357.896C361.97 358.304 362.75 358.508 363.734 358.508C364.67 358.508 365.51 358.292 366.254 357.86C366.998 357.404 367.538 356.744 367.874 355.88L368.738 358.472C368.33 359.72 367.586 360.668 366.506 361.316C365.426 361.964 364.034 362.288 362.33 362.288ZM387.821 369.272C385.997 369.272 384.233 369.044 382.529 368.588C380.849 368.156 379.445 367.496 378.317 366.608L380.549 362.576C381.365 363.248 382.397 363.776 383.645 364.16C384.917 364.568 386.165 364.772 387.389 364.772C389.381 364.772 390.821 364.328 391.709 363.44C392.621 362.552 393.077 361.232 393.077 359.48V356.564L393.437 351.704L393.365 346.808V342.632H398.693V358.76C398.693 362.36 397.757 365.012 395.885 366.716C394.013 368.42 391.325 369.272 387.821 369.272ZM386.957 361.064C385.157 361.064 383.525 360.68 382.061 359.912C380.621 359.12 379.457 358.028 378.569 356.636C377.705 355.22 377.273 353.576 377.273 351.704C377.273 349.808 377.705 348.164 378.569 346.772C379.457 345.356 380.621 344.264 382.061 343.496C383.525 342.728 385.157 342.344 386.957 342.344C388.589 342.344 390.029 342.68 391.277 343.352C392.525 344 393.497 345.02 394.193 346.412C394.889 347.78 395.237 349.544 395.237 351.704C395.237 353.84 394.889 355.604 394.193 356.996C393.497 358.364 392.525 359.384 391.277 360.056C390.029 360.728 388.589 361.064 386.957 361.064ZM388.073 356.456C389.057 356.456 389.933 356.264 390.701 355.88C391.469 355.472 392.069 354.908 392.501 354.188C392.933 353.468 393.149 352.64 393.149 351.704C393.149 350.744 392.933 349.916 392.501 349.22C392.069 348.5 391.469 347.948 390.701 347.564C389.933 347.156 389.057 346.952 388.073 346.952C387.089 346.952 386.213 347.156 385.445 347.564C384.677 347.948 384.065 348.5 383.609 349.22C383.177 349.916 382.961 350.744 382.961 351.704C382.961 352.64 383.177 353.468 383.609 354.188C384.065 354.908 384.677 355.472 385.445 355.88C386.213 356.264 387.089 356.456 388.073 356.456ZM413.532 362.288C411.324 362.288 409.38 361.856 407.7 360.992C406.044 360.128 404.76 358.952 403.848 357.464C402.936 355.952 402.48 354.236 402.48 352.316C402.48 350.372 402.924 348.656 403.812 347.168C404.724 345.656 405.96 344.48 407.52 343.64C409.08 342.776 410.844 342.344 412.812 342.344C414.708 342.344 416.412 342.752 417.924 343.568C419.46 344.36 420.672 345.512 421.56 347.024C422.448 348.512 422.892 350.3 422.892 352.388C422.892 352.604 422.88 352.856 422.856 353.144C422.832 353.408 422.808 353.66 422.784 353.9H407.052V350.624H419.832L417.672 351.596C417.672 350.588 417.468 349.712 417.06 348.968C416.652 348.224 416.088 347.648 415.368 347.24C414.648 346.808 413.808 346.592 412.848 346.592C411.888 346.592 411.036 346.808 410.292 347.24C409.572 347.648 409.008 348.236 408.6 349.004C408.192 349.748 407.988 350.636 407.988 351.668V352.532C407.988 353.588 408.216 354.524 408.672 355.34C409.152 356.132 409.812 356.744 410.652 357.176C411.516 357.584 412.524 357.788 413.676 357.788C414.708 357.788 415.608 357.632 416.376 357.32C417.168 357.008 417.888 356.54 418.536 355.916L421.524 359.156C420.636 360.164 419.52 360.944 418.176 361.496C416.832 362.024 415.284 362.288 413.532 362.288ZM438.403 342.344C439.939 342.344 441.307 342.656 442.507 343.28C443.731 343.88 444.691 344.816 445.387 346.088C446.083 347.336 446.431 348.944 446.431 350.912V362H440.815V351.776C440.815 350.216 440.467 349.064 439.771 348.32C439.099 347.576 438.139 347.204 436.891 347.204C436.003 347.204 435.199 347.396 434.479 347.78C433.783 348.14 433.231 348.704 432.823 349.472C432.439 350.24 432.247 351.224 432.247 352.424V362H426.631V342.632H431.995V347.996L430.987 346.376C431.683 345.08 432.679 344.084 433.975 343.388C435.271 342.692 436.747 342.344 438.403 342.344ZM471.077 362.288C468.989 362.288 467.129 361.868 465.497 361.028C463.865 360.164 462.581 358.976 461.645 357.464C460.733 355.952 460.277 354.236 460.277 352.316C460.277 350.372 460.733 348.656 461.645 347.168C462.581 345.656 463.865 344.48 465.497 343.64C467.129 342.776 468.989 342.344 471.077 342.344C473.117 342.344 474.893 342.776 476.405 343.64C477.917 344.48 479.033 345.692 479.753 347.276L475.397 349.616C474.893 348.704 474.257 348.032 473.489 347.6C472.745 347.168 471.929 346.952 471.041 346.952C470.081 346.952 469.217 347.168 468.449 347.6C467.681 348.032 467.069 348.644 466.613 349.436C466.181 350.228 465.965 351.188 465.965 352.316C465.965 353.444 466.181 354.404 466.613 355.196C467.069 355.988 467.681 356.6 468.449 357.032C469.217 357.464 470.081 357.68 471.041 357.68C471.929 357.68 472.745 357.476 473.489 357.068C474.257 356.636 474.893 355.952 475.397 355.016L479.753 357.392C479.033 358.952 477.917 360.164 476.405 361.028C474.893 361.868 473.117 362.288 471.077 362.288ZM491.956 362.288C489.892 362.288 488.056 361.856 486.448 360.992C484.864 360.128 483.604 358.952 482.668 357.464C481.756 355.952 481.3 354.236 481.3 352.316C481.3 350.372 481.756 348.656 482.668 347.168C483.604 345.656 484.864 344.48 486.448 343.64C488.056 342.776 489.892 342.344 491.956 342.344C493.996 342.344 495.82 342.776 497.428 343.64C499.036 344.48 500.296 345.644 501.208 347.132C502.12 348.62 502.576 350.348 502.576 352.316C502.576 354.236 502.12 355.952 501.208 357.464C500.296 358.952 499.036 360.128 497.428 360.992C495.82 361.856 493.996 362.288 491.956 362.288ZM491.956 357.68C492.892 357.68 493.732 357.464 494.476 357.032C495.22 356.6 495.808 355.988 496.24 355.196C496.672 354.38 496.888 353.42 496.888 352.316C496.888 351.188 496.672 350.228 496.24 349.436C495.808 348.644 495.22 348.032 494.476 347.6C493.732 347.168 492.892 346.952 491.956 346.952C491.02 346.952 490.18 347.168 489.436 347.6C488.692 348.032 488.092 348.644 487.636 349.436C487.204 350.228 486.988 351.188 486.988 352.316C486.988 353.42 487.204 354.38 487.636 355.196C488.092 355.988 488.692 356.6 489.436 357.032C490.18 357.464 491.02 357.68 491.956 357.68ZM518.102 342.344C519.638 342.344 521.006 342.656 522.206 343.28C523.43 343.88 524.39 344.816 525.086 346.088C525.782 347.336 526.13 348.944 526.13 350.912V362H520.514V351.776C520.514 350.216 520.166 349.064 519.47 348.32C518.798 347.576 517.838 347.204 516.59 347.204C515.702 347.204 514.898 347.396 514.178 347.78C513.482 348.14 512.93 348.704 512.522 349.472C512.138 350.24 511.946 351.224 511.946 352.424V362H506.33V342.632H511.694V347.996L510.686 346.376C511.382 345.08 512.378 344.084 513.674 343.388C514.97 342.692 516.446 342.344 518.102 342.344ZM260.975 406L252.839 386.632H258.635L265.403 403.3H262.523L269.543 386.632H274.943L266.771 406H260.975ZM286.319 406.288C284.111 406.288 282.167 405.856 280.487 404.992C278.831 404.128 277.547 402.952 276.635 401.464C275.723 399.952 275.267 398.236 275.267 396.316C275.267 394.372 275.711 392.656 276.599 391.168C277.511 389.656 278.747 388.48 280.307 387.64C281.867 386.776 283.631 386.344 285.599 386.344C287.495 386.344 289.199 386.752 290.711 387.568C292.247 388.36 293.459 389.512 294.347 391.024C295.235 392.512 295.679 394.3 295.679 396.388C295.679 396.604 295.667 396.856 295.643 397.144C295.619 397.408 295.595 397.66 295.571 397.9H279.839V394.624H292.619L290.459 395.596C290.459 394.588 290.255 393.712 289.847 392.968C289.439 392.224 288.875 391.648 288.155 391.24C287.435 390.808 286.595 390.592 285.635 390.592C284.675 390.592 283.823 390.808 283.079 391.24C282.359 391.648 281.795 392.236 281.387 393.004C280.979 393.748 280.775 394.636 280.775 395.668V396.532C280.775 397.588 281.003 398.524 281.459 399.34C281.939 400.132 282.599 400.744 283.439 401.176C284.303 401.584 285.311 401.788 286.463 401.788C287.495 401.788 288.395 401.632 289.163 401.32C289.955 401.008 290.675 400.54 291.323 399.916L294.311 403.156C293.423 404.164 292.307 404.944 290.963 405.496C289.619 406.024 288.071 406.288 286.319 406.288ZM299.418 406V386.632H304.782V392.104L304.026 390.52C304.602 389.152 305.526 388.12 306.798 387.424C308.07 386.704 309.618 386.344 311.442 386.344V391.528C311.202 391.504 310.986 391.492 310.794 391.492C310.602 391.468 310.398 391.456 310.182 391.456C308.646 391.456 307.398 391.9 306.438 392.788C305.502 393.652 305.034 395.008 305.034 396.856V406H299.418ZM322.922 406.288C321.098 406.288 319.454 405.88 317.99 405.064C316.526 404.224 315.362 403.06 314.498 401.572C313.658 400.084 313.238 398.332 313.238 396.316C313.238 394.276 313.658 392.512 314.498 391.024C315.362 389.536 316.526 388.384 317.99 387.568C319.454 386.752 321.098 386.344 322.922 386.344C324.554 386.344 325.982 386.704 327.206 387.424C328.43 388.144 329.378 389.236 330.05 390.7C330.722 392.164 331.058 394.036 331.058 396.316C331.058 398.572 330.734 400.444 330.086 401.932C329.438 403.396 328.502 404.488 327.278 405.208C326.078 405.928 324.626 406.288 322.922 406.288ZM323.894 401.68C324.806 401.68 325.634 401.464 326.378 401.032C327.122 400.6 327.71 399.988 328.142 399.196C328.598 398.38 328.826 397.42 328.826 396.316C328.826 395.188 328.598 394.228 328.142 393.436C327.71 392.644 327.122 392.032 326.378 391.6C325.634 391.168 324.806 390.952 323.894 390.952C322.958 390.952 322.118 391.168 321.374 391.6C320.63 392.032 320.03 392.644 319.574 393.436C319.142 394.228 318.926 395.188 318.926 396.316C318.926 397.42 319.142 398.38 319.574 399.196C320.03 399.988 320.63 400.6 321.374 401.032C322.118 401.464 322.958 401.68 323.894 401.68ZM328.97 406V402.04L329.078 396.28L328.718 390.556V379.288H334.334V406H328.97ZM349.143 406.288C346.935 406.288 344.991 405.856 343.311 404.992C341.655 404.128 340.371 402.952 339.459 401.464C338.547 399.952 338.091 398.236 338.091 396.316C338.091 394.372 338.535 392.656 339.423 391.168C340.335 389.656 341.571 388.48 343.131 387.64C344.691 386.776 346.455 386.344 348.423 386.344C350.319 386.344 352.023 386.752 353.535 387.568C355.071 388.36 356.283 389.512 357.171 391.024C358.059 392.512 358.503 394.3 358.503 396.388C358.503 396.604 358.491 396.856 358.467 397.144C358.443 397.408 358.419 397.66 358.395 397.9H342.663V394.624H355.443L353.283 395.596C353.283 394.588 353.079 393.712 352.671 392.968C352.263 392.224 351.699 391.648 350.979 391.24C350.259 390.808 349.419 390.592 348.459 390.592C347.499 390.592 346.647 390.808 345.903 391.24C345.183 391.648 344.619 392.236 344.211 393.004C343.803 393.748 343.599 394.636 343.599 395.668V396.532C343.599 397.588 343.827 398.524 344.283 399.34C344.763 400.132 345.423 400.744 346.263 401.176C347.127 401.584 348.135 401.788 349.287 401.788C350.319 401.788 351.219 401.632 351.987 401.32C352.779 401.008 353.499 400.54 354.147 399.916L357.135 403.156C356.247 404.164 355.131 404.944 353.787 405.496C352.443 406.024 350.895 406.288 349.143 406.288ZM381.798 406.288C379.71 406.288 377.85 405.868 376.218 405.028C374.586 404.164 373.302 402.976 372.366 401.464C371.454 399.952 370.998 398.236 370.998 396.316C370.998 394.372 371.454 392.656 372.366 391.168C373.302 389.656 374.586 388.48 376.218 387.64C377.85 386.776 379.71 386.344 381.798 386.344C383.838 386.344 385.614 386.776 387.126 387.64C388.638 388.48 389.754 389.692 390.474 391.276L386.118 393.616C385.614 392.704 384.978 392.032 384.21 391.6C383.466 391.168 382.65 390.952 381.762 390.952C380.802 390.952 379.938 391.168 379.17 391.6C378.402 392.032 377.79 392.644 377.334 393.436C376.902 394.228 376.686 395.188 376.686 396.316C376.686 397.444 376.902 398.404 377.334 399.196C377.79 399.988 378.402 400.6 379.17 401.032C379.938 401.464 380.802 401.68 381.762 401.68C382.65 401.68 383.466 401.476 384.21 401.068C384.978 400.636 385.614 399.952 386.118 399.016L390.474 401.392C389.754 402.952 388.638 404.164 387.126 405.028C385.614 405.868 383.838 406.288 381.798 406.288ZM402.677 406.288C400.613 406.288 398.777 405.856 397.169 404.992C395.585 404.128 394.325 402.952 393.389 401.464C392.477 399.952 392.021 398.236 392.021 396.316C392.021 394.372 392.477 392.656 393.389 391.168C394.325 389.656 395.585 388.48 397.169 387.64C398.777 386.776 400.613 386.344 402.677 386.344C404.717 386.344 406.541 386.776 408.149 387.64C409.757 388.48 411.017 389.644 411.929 391.132C412.841 392.62 413.297 394.348 413.297 396.316C413.297 398.236 412.841 399.952 411.929 401.464C411.017 402.952 409.757 404.128 408.149 404.992C406.541 405.856 404.717 406.288 402.677 406.288ZM402.677 401.68C403.613 401.68 404.453 401.464 405.197 401.032C405.941 400.6 406.529 399.988 406.961 399.196C407.393 398.38 407.609 397.42 407.609 396.316C407.609 395.188 407.393 394.228 406.961 393.436C406.529 392.644 405.941 392.032 405.197 391.6C404.453 391.168 403.613 390.952 402.677 390.952C401.741 390.952 400.901 391.168 400.157 391.6C399.413 392.032 398.813 392.644 398.357 393.436C397.925 394.228 397.709 395.188 397.709 396.316C397.709 397.42 397.925 398.38 398.357 399.196C398.813 399.988 399.413 400.6 400.157 401.032C400.901 401.464 401.741 401.68 402.677 401.68ZM441.855 386.344C443.391 386.344 444.747 386.656 445.923 387.28C447.123 387.88 448.059 388.816 448.731 390.088C449.427 391.336 449.775 392.944 449.775 394.912V406H444.159V395.776C444.159 394.216 443.835 393.064 443.187 392.32C442.539 391.576 441.627 391.204 440.451 391.204C439.635 391.204 438.903 391.396 438.255 391.78C437.607 392.14 437.103 392.692 436.743 393.436C436.383 394.18 436.203 395.128 436.203 396.28V406H430.587V395.776C430.587 394.216 430.263 393.064 429.615 392.32C428.991 391.576 428.091 391.204 426.915 391.204C426.099 391.204 425.367 391.396 424.719 391.78C424.071 392.14 423.567 392.692 423.207 393.436C422.847 394.18 422.667 395.128 422.667 396.28V406H417.051V386.632H422.415V391.924L421.407 390.376C422.079 389.056 423.027 388.06 424.251 387.388C425.499 386.692 426.915 386.344 428.499 386.344C430.275 386.344 431.823 386.8 433.143 387.712C434.487 388.6 435.375 389.968 435.807 391.816L433.827 391.276C434.475 389.764 435.507 388.564 436.923 387.676C438.363 386.788 440.007 386.344 441.855 386.344ZM464.165 406.288C462.101 406.288 460.265 405.856 458.657 404.992C457.073 404.128 455.813 402.952 454.877 401.464C453.965 399.952 453.509 398.236 453.509 396.316C453.509 394.372 453.965 392.656 454.877 391.168C455.813 389.656 457.073 388.48 458.657 387.64C460.265 386.776 462.101 386.344 464.165 386.344C466.205 386.344 468.029 386.776 469.637 387.64C471.245 388.48 472.505 389.644 473.417 391.132C474.329 392.62 474.785 394.348 474.785 396.316C474.785 398.236 474.329 399.952 473.417 401.464C472.505 402.952 471.245 404.128 469.637 404.992C468.029 405.856 466.205 406.288 464.165 406.288ZM464.165 401.68C465.101 401.68 465.941 401.464 466.685 401.032C467.429 400.6 468.017 399.988 468.449 399.196C468.881 398.38 469.097 397.42 469.097 396.316C469.097 395.188 468.881 394.228 468.449 393.436C468.017 392.644 467.429 392.032 466.685 391.6C465.941 391.168 465.101 390.952 464.165 390.952C463.229 390.952 462.389 391.168 461.645 391.6C460.901 392.032 460.301 392.644 459.845 393.436C459.413 394.228 459.197 395.188 459.197 396.316C459.197 397.42 459.413 398.38 459.845 399.196C460.301 399.988 460.901 400.6 461.645 401.032C462.389 401.464 463.229 401.68 464.165 401.68ZM498.095 406.288C496.007 406.288 494.147 405.868 492.515 405.028C490.883 404.164 489.599 402.976 488.663 401.464C487.751 399.952 487.295 398.236 487.295 396.316C487.295 394.372 487.751 392.656 488.663 391.168C489.599 389.656 490.883 388.48 492.515 387.64C494.147 386.776 496.007 386.344 498.095 386.344C500.135 386.344 501.911 386.776 503.423 387.64C504.935 388.48 506.051 389.692 506.771 391.276L502.415 393.616C501.911 392.704 501.275 392.032 500.507 391.6C499.763 391.168 498.947 390.952 498.059 390.952C497.099 390.952 496.235 391.168 495.467 391.6C494.699 392.032 494.087 392.644 493.631 393.436C493.199 394.228 492.983 395.188 492.983 396.316C492.983 397.444 493.199 398.404 493.631 399.196C494.087 399.988 494.699 400.6 495.467 401.032C496.235 401.464 497.099 401.68 498.059 401.68C498.947 401.68 499.763 401.476 500.507 401.068C501.275 400.636 501.911 399.952 502.415 399.016L506.771 401.392C506.051 402.952 504.935 404.164 503.423 405.028C501.911 405.868 500.135 406.288 498.095 406.288ZM518.974 406.288C516.91 406.288 515.074 405.856 513.466 404.992C511.882 404.128 510.622 402.952 509.686 401.464C508.774 399.952 508.318 398.236 508.318 396.316C508.318 394.372 508.774 392.656 509.686 391.168C510.622 389.656 511.882 388.48 513.466 387.64C515.074 386.776 516.91 386.344 518.974 386.344C521.014 386.344 522.838 386.776 524.446 387.64C526.054 388.48 527.314 389.644 528.226 391.132C529.138 392.62 529.594 394.348 529.594 396.316C529.594 398.236 529.138 399.952 528.226 401.464C527.314 402.952 526.054 404.128 524.446 404.992C522.838 405.856 521.014 406.288 518.974 406.288ZM518.974 401.68C519.91 401.68 520.75 401.464 521.494 401.032C522.238 400.6 522.826 399.988 523.258 399.196C523.69 398.38 523.906 397.42 523.906 396.316C523.906 395.188 523.69 394.228 523.258 393.436C522.826 392.644 522.238 392.032 521.494 391.6C520.75 391.168 519.91 390.952 518.974 390.952C518.038 390.952 517.198 391.168 516.454 391.6C515.71 392.032 515.11 392.644 514.654 393.436C514.222 394.228 514.006 395.188 514.006 396.316C514.006 397.42 514.222 398.38 514.654 399.196C515.11 399.988 515.71 400.6 516.454 401.032C517.198 401.464 518.038 401.68 518.974 401.68ZM533.348 406V379.288H538.964V406H533.348ZM553.392 406.288C551.328 406.288 549.492 405.856 547.884 404.992C546.3 404.128 545.04 402.952 544.104 401.464C543.192 399.952 542.736 398.236 542.736 396.316C542.736 394.372 543.192 392.656 544.104 391.168C545.04 389.656 546.3 388.48 547.884 387.64C549.492 386.776 551.328 386.344 553.392 386.344C555.432 386.344 557.256 386.776 558.864 387.64C560.472 388.48 561.732 389.644 562.644 391.132C563.556 392.62 564.012 394.348 564.012 396.316C564.012 398.236 563.556 399.952 562.644 401.464C561.732 402.952 560.472 404.128 558.864 404.992C557.256 405.856 555.432 406.288 553.392 406.288ZM553.392 401.68C554.328 401.68 555.168 401.464 555.912 401.032C556.656 400.6 557.244 399.988 557.676 399.196C558.108 398.38 558.324 397.42 558.324 396.316C558.324 395.188 558.108 394.228 557.676 393.436C557.244 392.644 556.656 392.032 555.912 391.6C555.168 391.168 554.328 390.952 553.392 390.952C552.456 390.952 551.616 391.168 550.872 391.6C550.128 392.032 549.528 392.644 549.072 393.436C548.64 394.228 548.424 395.188 548.424 396.316C548.424 397.42 548.64 398.38 549.072 399.196C549.528 399.988 550.128 400.6 550.872 401.032C551.616 401.464 552.456 401.68 553.392 401.68ZM567.766 406V386.632H573.13V392.104L572.374 390.52C572.95 389.152 573.874 388.12 575.146 387.424C576.418 386.704 577.966 386.344 579.79 386.344V391.528C579.55 391.504 579.334 391.492 579.142 391.492C578.95 391.468 578.746 391.456 578.53 391.456C576.994 391.456 575.746 391.9 574.786 392.788C573.85 393.652 573.382 395.008 573.382 396.856V406H567.766ZM110.304 450.288C108.216 450.288 106.356 449.868 104.724 449.028C103.092 448.164 101.808 446.976 100.872 445.464C99.9596 443.952 99.5036 442.236 99.5036 440.316C99.5036 438.372 99.9596 436.656 100.872 435.168C101.808 433.656 103.092 432.48 104.724 431.64C106.356 430.776 108.216 430.344 110.304 430.344C112.344 430.344 114.12 430.776 115.632 431.64C117.144 432.48 118.26 433.692 118.98 435.276L114.624 437.616C114.12 436.704 113.484 436.032 112.716 435.6C111.972 435.168 111.156 434.952 110.268 434.952C109.308 434.952 108.444 435.168 107.676 435.6C106.908 436.032 106.296 436.644 105.84 437.436C105.408 438.228 105.192 439.188 105.192 440.316C105.192 441.444 105.408 442.404 105.84 443.196C106.296 443.988 106.908 444.6 107.676 445.032C108.444 445.464 109.308 445.68 110.268 445.68C111.156 445.68 111.972 445.476 112.716 445.068C113.484 444.636 114.12 443.952 114.624 443.016L118.98 445.392C118.26 446.952 117.144 448.164 115.632 449.028C114.12 449.868 112.344 450.288 110.304 450.288ZM131.183 450.288C129.119 450.288 127.283 449.856 125.675 448.992C124.091 448.128 122.831 446.952 121.895 445.464C120.983 443.952 120.527 442.236 120.527 440.316C120.527 438.372 120.983 436.656 121.895 435.168C122.831 433.656 124.091 432.48 125.675 431.64C127.283 430.776 129.119 430.344 131.183 430.344C133.223 430.344 135.047 430.776 136.655 431.64C138.263 432.48 139.523 433.644 140.435 435.132C141.347 436.62 141.803 438.348 141.803 440.316C141.803 442.236 141.347 443.952 140.435 445.464C139.523 446.952 138.263 448.128 136.655 448.992C135.047 449.856 133.223 450.288 131.183 450.288ZM131.183 445.68C132.119 445.68 132.959 445.464 133.703 445.032C134.447 444.6 135.035 443.988 135.467 443.196C135.899 442.38 136.115 441.42 136.115 440.316C136.115 439.188 135.899 438.228 135.467 437.436C135.035 436.644 134.447 436.032 133.703 435.6C132.959 435.168 132.119 434.952 131.183 434.952C130.247 434.952 129.407 435.168 128.663 435.6C127.919 436.032 127.319 436.644 126.863 437.436C126.431 438.228 126.215 439.188 126.215 440.316C126.215 441.42 126.431 442.38 126.863 443.196C127.319 443.988 127.919 444.6 128.663 445.032C129.407 445.464 130.247 445.68 131.183 445.68ZM157.329 430.344C158.865 430.344 160.233 430.656 161.433 431.28C162.657 431.88 163.617 432.816 164.313 434.088C165.009 435.336 165.357 436.944 165.357 438.912V450H159.741V439.776C159.741 438.216 159.393 437.064 158.697 436.32C158.025 435.576 157.065 435.204 155.817 435.204C154.929 435.204 154.125 435.396 153.405 435.78C152.709 436.14 152.157 436.704 151.749 437.472C151.365 438.24 151.173 439.224 151.173 440.424V450H145.557V430.632H150.921V435.996L149.913 434.376C150.609 433.08 151.605 432.084 152.901 431.388C154.197 430.692 155.673 430.344 157.329 430.344ZM178.367 450.288C176.087 450.288 174.311 449.712 173.039 448.56C171.767 447.384 171.131 445.644 171.131 443.34V426.348H176.747V443.268C176.747 444.084 176.963 444.72 177.395 445.176C177.827 445.608 178.415 445.824 179.159 445.824C180.047 445.824 180.803 445.584 181.427 445.104L182.939 449.064C182.363 449.472 181.667 449.784 180.851 450C180.059 450.192 179.231 450.288 178.367 450.288ZM168.143 435.384V431.064H181.571V435.384H168.143ZM186.092 450V430.632H191.456V436.104L190.7 434.52C191.276 433.152 192.2 432.12 193.472 431.424C194.744 430.704 196.292 430.344 198.116 430.344V435.528C197.876 435.504 197.66 435.492 197.468 435.492C197.276 435.468 197.072 435.456 196.856 435.456C195.32 435.456 194.072 435.9 193.112 436.788C192.176 437.652 191.708 439.008 191.708 440.856V450H186.092ZM212.07 450V446.22L211.71 445.392V438.624C211.71 437.424 211.338 436.488 210.594 435.816C209.874 435.144 208.758 434.808 207.246 434.808C206.214 434.808 205.194 434.976 204.186 435.312C203.202 435.624 202.362 436.056 201.666 436.608L199.65 432.684C200.706 431.94 201.978 431.364 203.466 430.956C204.954 430.548 206.466 430.344 208.002 430.344C210.954 430.344 213.246 431.04 214.878 432.432C216.51 433.824 217.326 435.996 217.326 438.948V450H212.07ZM206.166 450.288C204.654 450.288 203.358 450.036 202.278 449.532C201.198 449.004 200.37 448.296 199.794 447.408C199.218 446.52 198.93 445.524 198.93 444.42C198.93 443.268 199.206 442.26 199.758 441.396C200.334 440.532 201.234 439.86 202.458 439.38C203.682 438.876 205.278 438.624 207.246 438.624H212.394V441.9H207.858C206.538 441.9 205.626 442.116 205.122 442.548C204.642 442.98 204.402 443.52 204.402 444.168C204.402 444.888 204.678 445.464 205.23 445.896C205.806 446.304 206.586 446.508 207.57 446.508C208.506 446.508 209.346 446.292 210.09 445.86C210.834 445.404 211.374 444.744 211.71 443.88L212.574 446.472C212.166 447.72 211.422 448.668 210.342 449.316C209.262 449.964 207.87 450.288 206.166 450.288ZM228.924 450.288C227.268 450.288 225.672 450.096 224.136 449.712C222.624 449.304 221.424 448.8 220.536 448.2L222.408 444.168C223.296 444.72 224.34 445.176 225.54 445.536C226.764 445.872 227.964 446.04 229.14 446.04C230.436 446.04 231.348 445.884 231.876 445.572C232.428 445.26 232.704 444.828 232.704 444.276C232.704 443.82 232.488 443.484 232.056 443.268C231.648 443.028 231.096 442.848 230.4 442.728C229.704 442.608 228.936 442.488 228.096 442.368C227.28 442.248 226.452 442.092 225.612 441.9C224.772 441.684 224.004 441.372 223.308 440.964C222.612 440.556 222.048 440.004 221.616 439.308C221.208 438.612 221.004 437.712 221.004 436.608C221.004 435.384 221.352 434.304 222.048 433.368C222.768 432.432 223.8 431.7 225.144 431.172C226.488 430.62 228.096 430.344 229.968 430.344C231.288 430.344 232.632 430.488 234 430.776C235.368 431.064 236.508 431.484 237.42 432.036L235.548 436.032C234.612 435.48 233.664 435.108 232.704 434.916C231.768 434.7 230.856 434.592 229.968 434.592C228.72 434.592 227.808 434.76 227.232 435.096C226.656 435.432 226.368 435.864 226.368 436.392C226.368 436.872 226.572 437.232 226.98 437.472C227.412 437.712 227.976 437.904 228.672 438.048C229.368 438.192 230.124 438.324 230.94 438.444C231.78 438.54 232.62 438.696 233.46 438.912C234.3 439.128 235.056 439.44 235.728 439.848C236.424 440.232 236.988 440.772 237.42 441.468C237.852 442.14 238.068 443.028 238.068 444.132C238.068 445.332 237.708 446.4 236.988 447.336C236.268 448.248 235.224 448.968 233.856 449.496C232.512 450.024 230.868 450.288 228.924 450.288ZM249.453 450.288C247.173 450.288 245.397 449.712 244.125 448.56C242.853 447.384 242.217 445.644 242.217 443.34V426.348H247.833V443.268C247.833 444.084 248.049 444.72 248.481 445.176C248.913 445.608 249.501 445.824 250.245 445.824C251.133 445.824 251.889 445.584 252.513 445.104L254.025 449.064C253.449 449.472 252.753 449.784 251.937 450C251.145 450.192 250.317 450.288 249.453 450.288ZM239.229 435.384V431.064H252.657V435.384H239.229ZM269.058 450V446.22L268.698 445.392V438.624C268.698 437.424 268.326 436.488 267.582 435.816C266.862 435.144 265.746 434.808 264.234 434.808C263.202 434.808 262.182 434.976 261.174 435.312C260.19 435.624 259.35 436.056 258.654 436.608L256.638 432.684C257.694 431.94 258.966 431.364 260.454 430.956C261.942 430.548 263.454 430.344 264.99 430.344C267.942 430.344 270.234 431.04 271.866 432.432C273.498 433.824 274.314 435.996 274.314 438.948V450H269.058ZM263.154 450.288C261.642 450.288 260.346 450.036 259.266 449.532C258.186 449.004 257.358 448.296 256.782 447.408C256.206 446.52 255.918 445.524 255.918 444.42C255.918 443.268 256.194 442.26 256.746 441.396C257.322 440.532 258.222 439.86 259.446 439.38C260.67 438.876 262.266 438.624 264.234 438.624H269.382V441.9H264.846C263.526 441.9 262.614 442.116 262.11 442.548C261.63 442.98 261.39 443.52 261.39 444.168C261.39 444.888 261.666 445.464 262.218 445.896C262.794 446.304 263.574 446.508 264.558 446.508C265.494 446.508 266.334 446.292 267.078 445.86C267.822 445.404 268.362 444.744 268.698 443.88L269.562 446.472C269.154 447.72 268.41 448.668 267.33 449.316C266.25 449.964 264.858 450.288 263.154 450.288ZM291.169 430.344C292.705 430.344 294.073 430.656 295.273 431.28C296.497 431.88 297.457 432.816 298.153 434.088C298.849 435.336 299.197 436.944 299.197 438.912V450H293.581V439.776C293.581 438.216 293.233 437.064 292.537 436.32C291.865 435.576 290.905 435.204 289.657 435.204C288.769 435.204 287.965 435.396 287.245 435.78C286.549 436.14 285.997 436.704 285.589 437.472C285.205 438.24 285.013 439.224 285.013 440.424V450H279.397V430.632H284.761V435.996L283.753 434.376C284.449 433.08 285.445 432.084 286.741 431.388C288.037 430.692 289.513 430.344 291.169 430.344ZM312.207 450.288C309.927 450.288 308.151 449.712 306.879 448.56C305.607 447.384 304.971 445.644 304.971 443.34V426.348H310.587V443.268C310.587 444.084 310.803 444.72 311.235 445.176C311.667 445.608 312.255 445.824 312.999 445.824C313.887 445.824 314.643 445.584 315.267 445.104L316.779 449.064C316.203 449.472 315.507 449.784 314.691 450C313.899 450.192 313.071 450.288 312.207 450.288ZM301.983 435.384V431.064H315.411V435.384H301.983ZM328.946 450.288C326.738 450.288 324.794 449.856 323.114 448.992C321.458 448.128 320.174 446.952 319.262 445.464C318.35 443.952 317.894 442.236 317.894 440.316C317.894 438.372 318.338 436.656 319.226 435.168C320.138 433.656 321.374 432.48 322.934 431.64C324.494 430.776 326.258 430.344 328.226 430.344C330.122 430.344 331.826 430.752 333.338 431.568C334.874 432.36 336.086 433.512 336.974 435.024C337.862 436.512 338.306 438.3 338.306 440.388C338.306 440.604 338.294 440.856 338.27 441.144C338.246 441.408 338.222 441.66 338.198 441.9H322.466V438.624H335.246L333.086 439.596C333.086 438.588 332.882 437.712 332.474 436.968C332.066 436.224 331.502 435.648 330.782 435.24C330.062 434.808 329.222 434.592 328.262 434.592C327.302 434.592 326.45 434.808 325.706 435.24C324.986 435.648 324.422 436.236 324.014 437.004C323.606 437.748 323.402 438.636 323.402 439.668V440.532C323.402 441.588 323.63 442.524 324.086 443.34C324.566 444.132 325.226 444.744 326.066 445.176C326.93 445.584 327.938 445.788 329.09 445.788C330.122 445.788 331.022 445.632 331.79 445.32C332.582 445.008 333.302 444.54 333.95 443.916L336.938 447.156C336.05 448.164 334.934 448.944 333.59 449.496C332.246 450.024 330.698 450.288 328.946 450.288ZM354.688 457.272C353.68 457.272 352.684 457.116 351.7 456.804C350.716 456.492 349.912 456.06 349.288 455.508L351.34 451.512C351.772 451.896 352.264 452.196 352.816 452.412C353.392 452.628 353.956 452.736 354.508 452.736C355.3 452.736 355.924 452.544 356.38 452.16C356.86 451.8 357.292 451.188 357.676 450.324L358.684 447.948L359.116 447.336L366.064 430.632H371.464L362.716 451.188C362.092 452.748 361.372 453.972 360.556 454.86C359.764 455.748 358.876 456.372 357.892 456.732C356.932 457.092 355.864 457.272 354.688 457.272ZM358 450.756L349.36 430.632H355.156L361.852 446.832L358 450.756ZM384.635 450V430.2C384.635 428.016 385.283 426.276 386.579 424.98C387.875 423.66 389.723 423 392.123 423C392.939 423 393.719 423.084 394.463 423.252C395.231 423.42 395.879 423.684 396.407 424.044L394.931 428.112C394.619 427.896 394.271 427.728 393.887 427.608C393.503 427.488 393.095 427.428 392.663 427.428C391.847 427.428 391.211 427.668 390.755 428.148C390.323 428.604 390.107 429.3 390.107 430.236V432.036L390.251 434.448V450H384.635ZM381.647 435.384V431.064H395.075V435.384H381.647ZM406.843 450.288C404.779 450.288 402.943 449.856 401.335 448.992C399.751 448.128 398.491 446.952 397.555 445.464C396.643 443.952 396.187 442.236 396.187 440.316C396.187 438.372 396.643 436.656 397.555 435.168C398.491 433.656 399.751 432.48 401.335 431.64C402.943 430.776 404.779 430.344 406.843 430.344C408.883 430.344 410.707 430.776 412.315 431.64C413.923 432.48 415.183 433.644 416.095 435.132C417.007 436.62 417.463 438.348 417.463 440.316C417.463 442.236 417.007 443.952 416.095 445.464C415.183 446.952 413.923 448.128 412.315 448.992C410.707 449.856 408.883 450.288 406.843 450.288ZM406.843 445.68C407.779 445.68 408.619 445.464 409.363 445.032C410.107 444.6 410.695 443.988 411.127 443.196C411.559 442.38 411.775 441.42 411.775 440.316C411.775 439.188 411.559 438.228 411.127 437.436C410.695 436.644 410.107 436.032 409.363 435.6C408.619 435.168 407.779 434.952 406.843 434.952C405.907 434.952 405.067 435.168 404.323 435.6C403.579 436.032 402.979 436.644 402.523 437.436C402.091 438.228 401.875 439.188 401.875 440.316C401.875 441.42 402.091 442.38 402.523 443.196C402.979 443.988 403.579 444.6 404.323 445.032C405.067 445.464 405.907 445.68 406.843 445.68ZM432.989 430.344C434.525 430.344 435.893 430.656 437.093 431.28C438.317 431.88 439.277 432.816 439.973 434.088C440.669 435.336 441.017 436.944 441.017 438.912V450H435.401V439.776C435.401 438.216 435.053 437.064 434.357 436.32C433.685 435.576 432.725 435.204 431.477 435.204C430.589 435.204 429.785 435.396 429.065 435.78C428.369 436.14 427.817 436.704 427.409 437.472C427.025 438.24 426.833 439.224 426.833 440.424V450H421.217V430.632H426.581V435.996L425.573 434.376C426.269 433.08 427.265 432.084 428.561 431.388C429.857 430.692 431.333 430.344 432.989 430.344ZM454.564 450.288C452.74 450.288 451.096 449.88 449.632 449.064C448.168 448.224 447.004 447.06 446.14 445.572C445.3 444.084 444.88 442.332 444.88 440.316C444.88 438.276 445.3 436.512 446.14 435.024C447.004 433.536 448.168 432.384 449.632 431.568C451.096 430.752 452.74 430.344 454.564 430.344C456.196 430.344 457.624 430.704 458.848 431.424C460.072 432.144 461.02 433.236 461.692 434.7C462.364 436.164 462.7 438.036 462.7 440.316C462.7 442.572 462.376 444.444 461.728 445.932C461.08 447.396 460.144 448.488 458.92 449.208C457.72 449.928 456.268 450.288 454.564 450.288ZM455.536 445.68C456.448 445.68 457.276 445.464 458.02 445.032C458.764 444.6 459.352 443.988 459.784 443.196C460.24 442.38 460.468 441.42 460.468 440.316C460.468 439.188 460.24 438.228 459.784 437.436C459.352 436.644 458.764 436.032 458.02 435.6C457.276 435.168 456.448 434.952 455.536 434.952C454.6 434.952 453.76 435.168 453.016 435.6C452.272 436.032 451.672 436.644 451.216 437.436C450.784 438.228 450.568 439.188 450.568 440.316C450.568 441.42 450.784 442.38 451.216 443.196C451.672 443.988 452.272 444.6 453.016 445.032C453.76 445.464 454.6 445.68 455.536 445.68ZM460.612 450V446.04L460.72 440.28L460.36 434.556V423.288H465.976V450H460.612ZM480.39 450.288C478.326 450.288 476.49 449.856 474.882 448.992C473.298 448.128 472.038 446.952 471.102 445.464C470.19 443.952 469.734 442.236 469.734 440.316C469.734 438.372 470.19 436.656 471.102 435.168C472.038 433.656 473.298 432.48 474.882 431.64C476.49 430.776 478.326 430.344 480.39 430.344C482.43 430.344 484.254 430.776 485.862 431.64C487.47 432.48 488.73 433.644 489.642 435.132C490.554 436.62 491.01 438.348 491.01 440.316C491.01 442.236 490.554 443.952 489.642 445.464C488.73 446.952 487.47 448.128 485.862 448.992C484.254 449.856 482.43 450.288 480.39 450.288ZM480.39 445.68C481.326 445.68 482.166 445.464 482.91 445.032C483.654 444.6 484.242 443.988 484.674 443.196C485.106 442.38 485.322 441.42 485.322 440.316C485.322 439.188 485.106 438.228 484.674 437.436C484.242 436.644 483.654 436.032 482.91 435.6C482.166 435.168 481.326 434.952 480.39 434.952C479.454 434.952 478.614 435.168 477.87 435.6C477.126 436.032 476.526 436.644 476.07 437.436C475.638 438.228 475.422 439.188 475.422 440.316C475.422 441.42 475.638 442.38 476.07 443.196C476.526 443.988 477.126 444.6 477.87 445.032C478.614 445.464 479.454 445.68 480.39 445.68ZM512.879 450.288C510.599 450.288 508.823 449.712 507.551 448.56C506.279 447.384 505.643 445.644 505.643 443.34V426.348H511.259V443.268C511.259 444.084 511.475 444.72 511.907 445.176C512.339 445.608 512.927 445.824 513.671 445.824C514.559 445.824 515.315 445.584 515.939 445.104L517.451 449.064C516.875 449.472 516.179 449.784 515.363 450C514.571 450.192 513.743 450.288 512.879 450.288ZM502.655 435.384V431.064H516.083V435.384H502.655ZM520.604 450V430.632H525.968V436.104L525.212 434.52C525.788 433.152 526.712 432.12 527.984 431.424C529.256 430.704 530.804 430.344 532.628 430.344V435.528C532.388 435.504 532.172 435.492 531.98 435.492C531.788 435.468 531.584 435.456 531.368 435.456C529.832 435.456 528.584 435.9 527.624 436.788C526.688 437.652 526.22 439.008 526.22 440.856V450H520.604ZM546.581 450V446.22L546.221 445.392V438.624C546.221 437.424 545.849 436.488 545.105 435.816C544.385 435.144 543.269 434.808 541.757 434.808C540.725 434.808 539.705 434.976 538.697 435.312C537.713 435.624 536.873 436.056 536.177 436.608L534.161 432.684C535.217 431.94 536.489 431.364 537.977 430.956C539.465 430.548 540.977 430.344 542.513 430.344C545.465 430.344 547.757 431.04 549.389 432.432C551.021 433.824 551.837 435.996 551.837 438.948V450H546.581ZM540.677 450.288C539.165 450.288 537.869 450.036 536.789 449.532C535.709 449.004 534.881 448.296 534.305 447.408C533.729 446.52 533.441 445.524 533.441 444.42C533.441 443.268 533.717 442.26 534.269 441.396C534.845 440.532 535.745 439.86 536.969 439.38C538.193 438.876 539.789 438.624 541.757 438.624H546.905V441.9H542.369C541.049 441.9 540.137 442.116 539.633 442.548C539.153 442.98 538.913 443.52 538.913 444.168C538.913 444.888 539.189 445.464 539.741 445.896C540.317 446.304 541.097 446.508 542.081 446.508C543.017 446.508 543.857 446.292 544.601 445.86C545.345 445.404 545.885 444.744 546.221 443.88L547.085 446.472C546.677 447.72 545.933 448.668 544.853 449.316C543.773 449.964 542.381 450.288 540.677 450.288ZM568.692 430.344C570.228 430.344 571.596 430.656 572.796 431.28C574.02 431.88 574.98 432.816 575.676 434.088C576.372 435.336 576.72 436.944 576.72 438.912V450H571.104V439.776C571.104 438.216 570.756 437.064 570.06 436.32C569.388 435.576 568.428 435.204 567.18 435.204C566.292 435.204 565.488 435.396 564.768 435.78C564.072 436.14 563.52 436.704 563.112 437.472C562.728 438.24 562.536 439.224 562.536 440.424V450H556.92V430.632H562.284V435.996L561.276 434.376C561.972 433.08 562.968 432.084 564.264 431.388C565.56 430.692 567.036 430.344 568.692 430.344ZM588.327 450.288C586.671 450.288 585.075 450.096 583.539 449.712C582.027 449.304 580.827 448.8 579.939 448.2L581.811 444.168C582.699 444.72 583.743 445.176 584.943 445.536C586.167 445.872 587.367 446.04 588.543 446.04C589.839 446.04 590.751 445.884 591.279 445.572C591.831 445.26 592.107 444.828 592.107 444.276C592.107 443.82 591.891 443.484 591.459 443.268C591.051 443.028 590.499 442.848 589.803 442.728C589.107 442.608 588.339 442.488 587.499 442.368C586.683 442.248 585.855 442.092 585.015 441.9C584.175 441.684 583.407 441.372 582.711 440.964C582.015 440.556 581.451 440.004 581.019 439.308C580.611 438.612 580.407 437.712 580.407 436.608C580.407 435.384 580.755 434.304 581.451 433.368C582.171 432.432 583.203 431.7 584.547 431.172C585.891 430.62 587.499 430.344 589.371 430.344C590.691 430.344 592.035 430.488 593.403 430.776C594.771 431.064 595.911 431.484 596.823 432.036L594.951 436.032C594.015 435.48 593.067 435.108 592.107 434.916C591.171 434.7 590.259 434.592 589.371 434.592C588.123 434.592 587.211 434.76 586.635 435.096C586.059 435.432 585.771 435.864 585.771 436.392C585.771 436.872 585.975 437.232 586.383 437.472C586.815 437.712 587.379 437.904 588.075 438.048C588.771 438.192 589.527 438.324 590.343 438.444C591.183 438.54 592.023 438.696 592.863 438.912C593.703 439.128 594.459 439.44 595.131 439.848C595.827 440.232 596.391 440.772 596.823 441.468C597.255 442.14 597.471 443.028 597.471 444.132C597.471 445.332 597.111 446.4 596.391 447.336C595.671 448.248 594.627 448.968 593.259 449.496C591.915 450.024 590.271 450.288 588.327 450.288ZM612.384 450.288C610.752 450.288 609.324 449.928 608.1 449.208C606.876 448.488 605.916 447.396 605.22 445.932C604.548 444.444 604.212 442.572 604.212 440.316C604.212 438.036 604.536 436.164 605.184 434.7C605.832 433.236 606.768 432.144 607.992 431.424C609.216 430.704 610.68 430.344 612.384 430.344C614.208 430.344 615.84 430.764 617.28 431.604C618.744 432.42 619.896 433.572 620.736 435.06C621.6 436.548 622.032 438.3 622.032 440.316C622.032 442.356 621.6 444.12 620.736 445.608C619.896 447.096 618.744 448.248 617.28 449.064C615.84 449.88 614.208 450.288 612.384 450.288ZM600.936 456.984V430.632H606.3V434.592L606.192 440.352L606.552 446.076V456.984H600.936ZM611.412 445.68C612.348 445.68 613.176 445.464 613.896 445.032C614.64 444.6 615.228 443.988 615.66 443.196C616.116 442.38 616.344 441.42 616.344 440.316C616.344 439.188 616.116 438.228 615.66 437.436C615.228 436.644 614.64 436.032 613.896 435.6C613.176 435.168 612.348 434.952 611.412 434.952C610.476 434.952 609.636 435.168 608.892 435.6C608.148 436.032 607.56 436.644 607.128 437.436C606.696 438.228 606.48 439.188 606.48 440.316C606.48 441.42 606.696 442.38 607.128 443.196C607.56 443.988 608.148 444.6 608.892 445.032C609.636 445.464 610.476 445.68 611.412 445.68ZM637.355 450V446.22L636.995 445.392V438.624C636.995 437.424 636.623 436.488 635.879 435.816C635.159 435.144 634.043 434.808 632.531 434.808C631.499 434.808 630.479 434.976 629.471 435.312C628.487 435.624 627.647 436.056 626.951 436.608L624.935 432.684C625.991 431.94 627.263 431.364 628.751 430.956C630.239 430.548 631.751 430.344 633.287 430.344C636.239 430.344 638.531 431.04 640.163 432.432C641.795 433.824 642.611 435.996 642.611 438.948V450H637.355ZM631.451 450.288C629.939 450.288 628.643 450.036 627.563 449.532C626.483 449.004 625.655 448.296 625.079 447.408C624.503 446.52 624.215 445.524 624.215 444.42C624.215 443.268 624.491 442.26 625.043 441.396C625.619 440.532 626.519 439.86 627.743 439.38C628.967 438.876 630.563 438.624 632.531 438.624H637.679V441.9H633.143C631.823 441.9 630.911 442.116 630.407 442.548C629.927 442.98 629.687 443.52 629.687 444.168C629.687 444.888 629.963 445.464 630.515 445.896C631.091 446.304 631.871 446.508 632.855 446.508C633.791 446.508 634.631 446.292 635.375 445.86C636.119 445.404 636.659 444.744 636.995 443.88L637.859 446.472C637.451 447.72 636.707 448.668 635.627 449.316C634.547 449.964 633.155 450.288 631.451 450.288ZM647.694 450V430.632H653.058V436.104L652.302 434.52C652.878 433.152 653.802 432.12 655.074 431.424C656.346 430.704 657.894 430.344 659.718 430.344V435.528C659.478 435.504 659.262 435.492 659.07 435.492C658.878 435.468 658.674 435.456 658.458 435.456C656.922 435.456 655.674 435.9 654.714 436.788C653.778 437.652 653.31 439.008 653.31 440.856V450H647.694ZM672.493 450.288C670.285 450.288 668.341 449.856 666.661 448.992C665.005 448.128 663.721 446.952 662.809 445.464C661.897 443.952 661.441 442.236 661.441 440.316C661.441 438.372 661.885 436.656 662.773 435.168C663.685 433.656 664.921 432.48 666.481 431.64C668.041 430.776 669.805 430.344 671.773 430.344C673.669 430.344 675.373 430.752 676.885 431.568C678.421 432.36 679.633 433.512 680.521 435.024C681.409 436.512 681.853 438.3 681.853 440.388C681.853 440.604 681.841 440.856 681.817 441.144C681.793 441.408 681.769 441.66 681.745 441.9H666.013V438.624H678.793L676.633 439.596C676.633 438.588 676.429 437.712 676.021 436.968C675.613 436.224 675.049 435.648 674.329 435.24C673.609 434.808 672.769 434.592 671.809 434.592C670.849 434.592 669.997 434.808 669.253 435.24C668.533 435.648 667.969 436.236 667.561 437.004C667.153 437.748 666.949 438.636 666.949 439.668V440.532C666.949 441.588 667.177 442.524 667.633 443.34C668.113 444.132 668.773 444.744 669.613 445.176C670.477 445.584 671.485 445.788 672.637 445.788C673.669 445.788 674.569 445.632 675.337 445.32C676.129 445.008 676.849 444.54 677.497 443.916L680.485 447.156C679.597 448.164 678.481 448.944 677.137 449.496C675.793 450.024 674.245 450.288 672.493 450.288ZM697.364 430.344C698.9 430.344 700.268 430.656 701.468 431.28C702.692 431.88 703.652 432.816 704.348 434.088C705.044 435.336 705.392 436.944 705.392 438.912V450H699.776V439.776C699.776 438.216 699.428 437.064 698.732 436.32C698.06 435.576 697.1 435.204 695.852 435.204C694.964 435.204 694.16 435.396 693.44 435.78C692.744 436.14 692.192 436.704 691.784 437.472C691.4 438.24 691.208 439.224 691.208 440.424V450H685.592V430.632H690.956V435.996L689.948 434.376C690.644 433.08 691.64 432.084 692.936 431.388C694.232 430.692 695.708 430.344 697.364 430.344ZM718.403 450.288C716.123 450.288 714.347 449.712 713.075 448.56C711.803 447.384 711.167 445.644 711.167 443.34V426.348H716.783V443.268C716.783 444.084 716.999 444.72 717.431 445.176C717.863 445.608 718.451 445.824 719.195 445.824C720.083 445.824 720.839 445.584 721.463 445.104L722.975 449.064C722.399 449.472 721.703 449.784 720.887 450C720.095 450.192 719.267 450.288 718.403 450.288ZM708.179 435.384V431.064H721.607V435.384H708.179ZM735.142 450.288C732.934 450.288 730.99 449.856 729.31 448.992C727.654 448.128 726.37 446.952 725.458 445.464C724.546 443.952 724.09 442.236 724.09 440.316C724.09 438.372 724.534 436.656 725.422 435.168C726.334 433.656 727.57 432.48 729.13 431.64C730.69 430.776 732.454 430.344 734.422 430.344C736.318 430.344 738.022 430.752 739.534 431.568C741.07 432.36 742.282 433.512 743.17 435.024C744.058 436.512 744.502 438.3 744.502 440.388C744.502 440.604 744.49 440.856 744.466 441.144C744.442 441.408 744.418 441.66 744.394 441.9H728.662V438.624H741.441L739.282 439.596C739.282 438.588 739.078 437.712 738.67 436.968C738.262 436.224 737.698 435.648 736.978 435.24C736.258 434.808 735.418 434.592 734.458 434.592C733.498 434.592 732.646 434.808 731.902 435.24C731.182 435.648 730.618 436.236 730.21 437.004C729.802 437.748 729.598 438.636 729.598 439.668V440.532C729.598 441.588 729.826 442.524 730.282 443.34C730.762 444.132 731.422 444.744 732.262 445.176C733.126 445.584 734.134 445.788 735.286 445.788C736.318 445.788 737.218 445.632 737.986 445.32C738.778 445.008 739.498 444.54 740.146 443.916L743.134 447.156C742.246 448.164 741.13 448.944 739.786 449.496C738.442 450.024 736.894 450.288 735.142 450.288Z" fill="#242424"/>
</svg>
