<svg width="1586" height="632" viewBox="0 0 1586 632" fill="none" xmlns="http://www.w3.org/2000/svg">
<path d="M0 0H788L621 632H0V0Z" fill="#FCFCFC"/>
<mask id="mask0_9_207" style="mask-type:alpha" maskUnits="userSpaceOnUse" x="0" y="0" width="788" height="632">
<path d="M0 0H788L621 632H0V0Z" fill="#FFFFF7"/>
</mask>
<g mask="url(#mask0_9_207)">
<g clip-path="url(#clip0_9_207)">
<path d="M730.394 349.654C737.596 322.643 734.03 299.491 731.863 276.431C731.233 269.908 730.464 263.385 729.346 256.954C724.521 229.391 731.094 206.423 745.288 186.303C754.028 173.9 762.419 161.129 770.88 148.359C786.682 124.288 788.221 98.7469 775.914 71.2766C768.852 55.4743 762.489 39.2126 756.126 22.951C754.728 19.3679 754.588 14.8661 753.469 8.25114C765.356 8.25114 775.844 8.25114 786.263 8.25114C807.519 8.25114 828.776 8.71051 849.963 7.88364C861.29 7.42427 869.191 13.8554 875.415 25.0641C884.644 41.6013 893.664 58.4143 902.615 75.2272C917.928 104.076 918.277 122.818 903.663 152.217C896.671 166.366 888.7 179.688 881.358 193.469C871.429 212.027 867.933 231.872 874.366 253.83C876.184 259.985 877.372 266.417 879.19 272.572C890.658 312.813 890.518 352.87 878.981 393.111C871.219 420.122 867.373 448.051 867.303 477.083C867.303 501.522 871.848 523.48 882.477 543.324C888.91 555.36 895.482 567.212 901.566 579.523C904.852 586.229 907.929 593.487 909.817 601.021C913.033 613.7 908.488 623.438 898.349 624.265C879.4 625.735 860.381 625.919 841.432 626.562C833.321 626.838 828.496 620.406 827.377 611.127C824.79 588.986 815.56 571.346 805.352 555.084C780.599 515.67 778.222 471.295 786.612 424.164C789.899 405.605 794.444 387.414 798.01 368.948C799.338 362.241 799.688 355.259 798.709 348.001C790.668 372.807 781.858 397.245 774.726 422.51C769.901 439.599 766.754 457.606 763.957 475.521C760.741 495.642 763.957 514.935 771.229 533.034C776.194 545.346 781.788 557.289 786.403 569.784C789.549 578.236 792.486 587.24 793.745 596.519C797.311 622.152 793.045 628.491 773.817 628.216C754.937 627.94 736.128 627.113 716.13 626.47C717.878 596.336 706.411 575.756 693.685 555.911C688.301 547.459 683.127 538.731 677.603 530.554C654.668 496.652 649.144 457.147 654.458 413.415C657.255 390.446 658.863 367.202 660.961 344.05C659.842 343.866 658.723 343.591 657.675 343.407C650.962 379.513 643.69 415.528 637.747 451.818C633.551 477.451 638.795 501.338 649.913 522.928C656.486 535.699 663.758 547.918 669.841 561.056C674.456 570.978 678.791 581.544 681.239 592.661C685.434 611.403 678.791 623.53 664.177 624.173C647.466 624.908 630.684 624.081 613.903 623.898C605.372 623.806 601.527 617.007 601.946 606.993C602.855 586.413 595.373 570.335 586.913 554.533C583.696 548.561 580.55 542.406 576.984 536.801C555.168 502.808 551.881 464.405 560.901 422.97C563.978 408.913 567.055 394.764 570.411 380.8C577.823 349.746 577.753 318.693 570.271 287.639C566.915 273.675 563.978 259.526 560.692 245.469C555.028 221.307 558.035 198.981 569.152 178.585C574.956 167.836 581.109 157.362 586.983 146.613C605.862 112.069 606.072 94.245 588.101 58.4143C583.207 48.5838 577.543 39.3964 572.928 29.3821C566.775 16.2442 569.921 8.71051 581.878 8.61863C611.456 8.15926 641.103 8.15926 670.75 8.71051C674.596 8.71051 679.491 11.8342 681.938 15.601C693.755 34.1596 705.152 53.1774 716.34 72.4709C734.52 103.708 735.289 123.645 720.256 157.27C715.431 168.02 710.536 178.769 705.991 189.702C698.58 207.525 697.74 225.992 703.824 244.826C704.733 247.491 705.432 250.339 706.341 253.003C716.48 283.046 727.458 312.813 730.604 349.838L730.394 349.654Z" fill="#FF34CD" fill-opacity="0.1"/>
<path d="M408.609 2.37117C457.835 4.20865 499.159 30.7602 534.331 74.4003C551.532 95.8069 552.301 114.457 539.575 141.376C534.261 152.585 528.177 163.058 522.304 173.808C510.487 195.582 507.55 219.193 513.284 244.826C515.521 254.657 517.199 264.763 519.926 274.318C531.254 314.558 530.904 354.432 520.276 394.948C515.941 411.485 513.354 428.849 510.627 446.03C506.571 472.03 509.928 497.02 517.759 521.275C521.045 531.381 524.332 541.579 526.709 552.052C531.044 570.703 528.107 587.516 515.731 599.092C507.201 607.085 497.901 614.526 488.042 619.028C461.331 631.339 433.642 636.668 405.742 628.216C393.016 624.357 379.871 617.558 369.383 607.544C346.378 585.678 324.912 560.872 302.886 537.261C278.133 510.709 270.721 476.991 279.392 436.842C281.699 426.277 283.377 415.436 286.244 405.146C298.201 361.965 298.411 319.152 285.545 276.339C277.644 249.971 275.686 222.501 276.035 194.296C276.315 173.44 280.93 155.249 291.419 139.998C300.369 126.952 309.948 114.641 319.528 102.238C330.785 87.6301 340.924 71.7359 345.679 51.7993C354.209 16.1522 373.228 2.18742 400.149 2.37117C402.945 2.37117 405.742 2.37117 408.539 2.37117H408.609ZM365.397 457.147C364.768 494.631 374.976 513.925 394.275 521.275C414.762 528.992 423.013 520.907 421.125 493.345C418.958 461.373 421.685 430.503 429.586 400.093C433.362 385.577 435.949 370.418 438.047 355.35C442.522 323.103 435.32 292.692 427.488 262.742C416.86 221.858 417.14 183.73 440.284 149.277C445.249 141.928 451.682 131.73 446.577 121.623C440.914 110.507 430.705 113.263 421.825 115.1C420.216 115.468 418.608 116.295 417 116.846C386.933 128.698 362.95 173.808 366.026 214.875C367.285 231.504 369.243 248.685 373.718 264.212C387.842 313.272 387.283 361.322 373.508 410.383C368.543 428.023 367.075 447.408 365.467 456.963L365.397 457.147Z" fill="#FF34CD" fill-opacity="0.1"/>
<path d="M101.438 205.596C114.514 155.433 145.839 127.228 174.507 95.8987C175.766 94.5206 177.025 92.9587 178.283 91.5806C197.093 70.7253 211.776 47.5731 203.665 10.8235C209.189 10.2723 212.895 9.35354 216.671 9.53729C233.452 10.0885 250.164 10.9154 266.945 11.5585C289.391 12.4773 300.718 34.3432 290.859 60.8029C286.174 73.4815 278.203 84.9657 270.022 94.5206C257.925 108.577 244.64 120.98 231.355 133.199C205.343 157.179 192.128 192.642 180.731 229.575C178.983 235.271 180.241 244.183 182.479 250.063C188.492 265.773 195.554 280.841 202.756 295.632C218.839 328.891 226.25 365.089 224.712 404.503C224.362 412.588 224.572 420.673 224.642 428.758C224.852 472.49 237.648 508.137 262.82 536.985C274.987 550.858 286.104 566.568 296.803 582.371C301.697 589.629 307.78 598.632 303.725 609.749C299.25 621.968 290.509 623.806 280.93 623.714C258.695 623.346 236.389 623.622 213.454 623.622C212.615 598.081 202.057 579.523 189.191 562.618C182.059 553.247 175.207 543.6 167.795 534.688C141.853 503.451 130.456 464.313 130.176 418.743C130.176 409.372 130.176 400.093 130.176 389.16C95.2848 420.213 92.2082 472.398 106.962 508.596C113.814 525.317 123.254 540.201 130.386 556.738C135.77 569.325 140.944 582.83 143.042 596.795C145.769 614.894 137.938 626.838 123.674 627.664C103.046 628.951 82.3491 628.583 61.6519 628.216C52.7717 628.032 48.926 622.428 51.5131 611.311C57.2468 586.781 50.3244 566.752 40.6751 547.183C35.5008 536.709 30.3964 526.144 24.8725 516.038C9.83907 488.384 6.83239 458.249 13.2653 425.91C15.7825 413.139 18.4396 400.369 21.5861 387.874C30.6761 351.859 30.4663 316.12 22.2154 279.646C16.8314 255.851 13.2653 231.229 10.1188 206.699C6.34293 177.115 11.7969 149.921 25.0123 125.39C31.7949 112.803 38.4375 100.125 44.6607 87.0788C53.1913 69.1634 54.9393 50.513 48.5764 30.3927C43.1923 13.396 46.1291 8.61855 60.8129 8.34293C77.5943 8.06731 94.3758 8.43481 111.087 8.15918C136.26 7.79169 146.608 37.0994 143.811 59.6085C142.483 70.0821 138.777 80.5558 134.581 89.9269C129.267 101.87 122.275 112.62 116.192 124.012C100.529 153.228 97.5923 167.56 101.368 205.688L101.438 205.596Z" fill="#FF34CD" fill-opacity="0.1"/>
</g>
</g>
<path d="M846 0H1586V632H684L846 0Z" fill="#CDFB51"/>
<mask id="mask1_9_207" style="mask-type:alpha" maskUnits="userSpaceOnUse" x="684" y="0" width="902" height="632">
<path d="M846 0H1586V632H684L846 0Z" fill="#CDFB51"/>
</mask>
<g mask="url(#mask1_9_207)">
<g clip-path="url(#clip1_9_207)">
<path d="M737.894 349.654C745.096 322.643 741.53 299.491 739.363 276.431C738.733 269.908 737.964 263.385 736.846 256.954C732.021 229.391 738.594 206.423 752.788 186.303C761.528 173.9 769.919 161.129 778.38 148.359C794.182 124.288 795.721 98.7469 783.414 71.2766C776.352 55.4743 769.989 39.2126 763.626 22.951C762.228 19.3679 762.088 14.8661 760.969 8.25114C772.856 8.25114 783.344 8.25114 793.763 8.25114C815.019 8.25114 836.276 8.71051 857.463 7.88364C868.79 7.42427 876.691 13.8554 882.915 25.0641C892.144 41.6013 901.164 58.4143 910.115 75.2272C925.428 104.076 925.777 122.818 911.163 152.217C904.171 166.366 896.2 179.688 888.858 193.469C878.929 212.027 875.433 231.872 881.866 253.83C883.684 259.985 884.872 266.417 886.69 272.572C898.158 312.813 898.018 352.87 886.481 393.111C878.719 420.122 874.873 448.051 874.803 477.083C874.803 501.522 879.348 523.48 889.977 543.324C896.41 555.36 902.982 567.212 909.066 579.523C912.352 586.229 915.429 593.487 917.317 601.021C920.533 613.7 915.988 623.438 905.849 624.265C886.9 625.735 867.881 625.919 848.932 626.562C840.821 626.838 835.996 620.406 834.877 611.127C832.29 588.986 823.06 571.346 812.852 555.084C788.099 515.67 785.722 471.295 794.112 424.164C797.399 405.605 801.944 387.414 805.51 368.948C806.838 362.241 807.188 355.259 806.209 348.001C798.168 372.807 789.358 397.245 782.226 422.51C777.401 439.599 774.254 457.606 771.457 475.521C768.241 495.642 771.457 514.935 778.729 533.034C783.694 545.346 789.288 557.289 793.903 569.784C797.049 578.236 799.986 587.24 801.245 596.519C804.811 622.152 800.545 628.491 781.317 628.216C762.437 627.94 743.628 627.113 723.63 626.47C725.378 596.336 713.911 575.756 701.185 555.911C695.801 547.459 690.627 538.731 685.103 530.554C662.168 496.652 656.644 457.147 661.958 413.415C664.755 390.446 666.363 367.202 668.461 344.05C667.342 343.866 666.223 343.591 665.175 343.407C658.462 379.513 651.19 415.528 645.247 451.818C641.051 477.451 646.295 501.338 657.413 522.928C663.986 535.699 671.258 547.918 677.341 561.056C681.956 570.978 686.291 581.544 688.739 592.661C692.934 611.403 686.291 623.53 671.677 624.173C654.966 624.908 638.184 624.081 621.403 623.898C612.872 623.806 609.027 617.007 609.446 606.993C610.355 586.413 602.873 570.335 594.413 554.533C591.196 548.561 588.05 542.406 584.484 536.801C562.668 502.808 559.381 464.405 568.401 422.97C571.478 408.913 574.555 394.764 577.911 380.8C585.323 349.746 585.253 318.693 577.771 287.639C574.415 273.675 571.478 259.526 568.192 245.469C562.528 221.307 565.535 198.981 576.652 178.585C582.456 167.836 588.609 157.362 594.483 146.613C613.362 112.069 613.572 94.245 595.601 58.4143C590.707 48.5838 585.043 39.3964 580.428 29.3821C574.275 16.2442 577.421 8.71051 589.378 8.61863C618.956 8.15926 648.603 8.15926 678.25 8.71051C682.096 8.71051 686.991 11.8342 689.438 15.601C701.255 34.1596 712.652 53.1774 723.84 72.4709C742.02 103.708 742.789 123.645 727.756 157.27C722.931 168.02 718.036 178.769 713.491 189.702C706.08 207.525 705.24 225.992 711.324 244.826C712.233 247.491 712.932 250.339 713.841 253.003C723.98 283.046 734.958 312.813 738.104 349.838L737.894 349.654Z" fill="white" fill-opacity="0.4"/>
<path d="M1138.55 295.449C1178.27 334.862 1184.21 355.902 1171.07 416.263C1163.31 451.818 1163.44 485.26 1177.43 518.426C1192.39 553.982 1188.41 577.961 1155.05 599.459C1139.88 609.29 1123.73 614.802 1106.74 615.721C1068.21 617.926 1029.68 620.131 991.155 622.336C980.247 622.979 976.471 619.212 971.437 606.901C964.864 590.823 959.06 573.643 950.25 559.953C925.707 522.009 924.099 478.553 930.112 433.167C932.56 414.517 937.594 396.326 942.069 378.227C949.551 347.817 949.691 317.682 942.069 287.364C939.132 275.512 936.825 263.385 933.818 251.533C928.854 232.148 930.672 213.865 938.783 196.684C943.468 186.67 948.712 177.207 953.606 167.285C958.151 158.097 962.976 149.002 966.892 139.263C975.562 117.948 975.073 96.8174 964.235 76.9727C956.124 61.9972 947.034 48.0324 939.202 32.8732C930.951 16.8872 934.517 8.25104 949.201 8.15917C992.204 7.6998 1035.28 6.68919 1078.28 8.0673C1107.02 8.98603 1134.43 19.6434 1160.09 36.8238C1166.03 40.7744 1171.77 45.5518 1176.94 51.0642C1193.58 68.5203 1196.8 85.8844 1187.92 111.242C1183.93 122.542 1179.04 133.291 1174 143.857C1162.61 167.285 1156.66 192.55 1155.47 220.48C1154.35 246.755 1153.45 273.674 1138.48 295.632L1138.55 295.449ZM1020.24 513.465C1034.09 513.465 1046.32 514.384 1058.42 513.19C1070.17 511.995 1074.57 506.483 1074.64 490.68C1074.78 458.157 1078.07 426.461 1085.2 395.315C1085.83 392.559 1085.69 389.527 1085.76 386.587C1085.97 369.866 1081.43 361.781 1068.7 360.036C1057.86 358.566 1046.81 359.76 1035.77 359.76C1024.02 410.015 1010.03 458.341 1020.24 513.465ZM1061.85 108.485C1052.97 128.422 1044.65 146.521 1036.81 164.988C1031.43 177.758 1026.19 190.712 1021.92 204.218C1017.24 218.918 1017.66 233.985 1023.6 249.695C1028.21 249.695 1032.62 249.787 1037.02 249.695C1059.26 249.144 1064.99 243.448 1068.42 215.335C1070.87 195.306 1077.09 177.666 1084.71 160.394C1088.63 151.574 1092.75 142.662 1095.62 133.199C1100.72 116.662 1097.16 109.496 1084.01 108.577C1076.25 108.026 1068.49 108.485 1061.78 108.485H1061.85Z" fill="white" fill-opacity="0.4"/>
<path d="M1382.44 6.78107C1405.1 6.78107 1427.33 6.04608 1449.57 7.05669C1462.92 7.69981 1472.08 21.2053 1474.53 40.315C1476.28 53.8205 1474.39 66.7747 1469.36 78.6264C1464.46 90.1106 1459.71 101.962 1453.62 112.344C1428.24 155.984 1425.73 203.575 1437.89 254.197C1440.55 265.406 1442.93 276.706 1445.51 287.915C1451.95 315.385 1451.95 342.856 1445.79 370.326C1442.65 384.383 1440.06 398.715 1436.49 412.588C1430.06 437.394 1432.51 460.087 1444.05 481.493C1449.57 491.691 1454.67 502.165 1459.36 513.098C1470.2 538.455 1468.59 557.932 1451.74 575.848C1413.14 616.915 1368.6 634.739 1319.02 627.756C1303.36 625.551 1290.36 615.17 1281.75 597.438C1269.24 571.713 1253.51 549.939 1235.33 531.473C1203.65 499.409 1194.84 459.719 1209.8 410.842C1211.9 404.044 1213.09 396.785 1214.77 389.803C1223.23 355.902 1222.53 322.276 1214.63 288.099C1209.45 265.773 1205.33 242.805 1202.53 219.745C1198.83 189.426 1205.19 161.68 1218.96 136.691C1225.19 125.39 1230.92 113.63 1236.72 101.962C1248.61 77.8914 1249.17 53.9123 1236.23 30.117C1234.63 27.1771 1232.81 24.1452 1231.69 20.8378C1229.17 13.1204 1230.92 7.05669 1237.56 7.05669C1260.99 6.87295 1284.62 5.21922 1307.91 8.34293C1326.92 10.9154 1340.91 46.5624 1335.32 72.1952C1333.64 79.8208 1330.84 87.2626 1327.69 94.0612C1323.71 102.881 1319.37 111.609 1314.27 119.327C1288.75 158.189 1286.16 202.564 1295.46 249.879C1297.42 259.802 1299.51 269.724 1302.17 279.371C1312.94 318.233 1312.59 356.912 1302.52 395.867C1298.82 410.383 1295.81 425.358 1293.43 440.426C1286.72 482.596 1319.16 522.836 1349.37 519.345C1362.66 517.783 1365.31 512.822 1360.28 496.928C1359.86 495.55 1359.37 494.172 1358.74 493.069C1343.08 464.497 1344.06 434.178 1353.08 402.941C1354.47 398.164 1355.24 393.111 1356.5 388.241C1365.73 351.4 1365.38 314.834 1355.66 278.176C1348.67 251.809 1343.99 224.798 1343.85 196.409C1343.71 173.348 1348.6 153.044 1358.6 134.578C1365.73 121.44 1373.35 108.761 1380.49 95.5312C1392.16 73.9408 1395.24 51.5236 1383.84 27.8202C1382.37 24.7883 1381.39 21.2971 1380.77 17.8059C1380.42 15.8766 1381.32 13.5797 1382.37 6.87295L1382.44 6.78107Z" fill="white" fill-opacity="0.4"/>
<path d="M1615.5 165.447C1616.06 152.218 1617.03 139.08 1617.1 125.85C1617.1 110.966 1612.84 106.097 1601.65 106.464C1583.96 106.924 1567.11 127.228 1565.29 153.228C1563.05 184.741 1561.52 216.989 1570.89 246.848C1587.88 300.686 1587.18 352.87 1571.17 407.259C1559.07 448.235 1575.43 496.836 1605.36 517.048C1612.35 521.826 1621.37 523.112 1629.48 523.204C1638.29 523.296 1641.44 516.222 1638.15 505.289C1635.56 496.469 1631.86 488.016 1627.87 480.115C1613.75 452.645 1616.76 424.256 1625.43 395.959C1628.71 385.21 1635.49 378.503 1644.86 378.411C1662.2 378.227 1679.55 377.86 1696.82 378.411C1706.89 378.687 1710.52 385.669 1708.84 398.531C1708.77 399.266 1708.63 400.001 1708.42 400.644C1696.82 436.567 1704.65 467.804 1721.43 497.296C1726.04 505.472 1729.54 514.844 1732.9 524.123C1739.4 542.13 1736.6 558.392 1726.67 572.816C1724.09 576.583 1721.29 580.441 1718.14 583.381C1675.63 621.968 1629.2 640.159 1577.32 629.043C1558.51 625 1545.5 612.23 1541.38 586.505C1536.83 558.3 1525.44 535.24 1510.68 514.476C1502.71 503.176 1495.37 491.14 1488.24 478.921C1476.91 459.535 1474.25 437.761 1479.64 414.334C1482.08 403.768 1484.25 393.203 1486.98 382.821C1496.63 346.071 1496.63 309.597 1486.7 272.756C1479.22 245.01 1474.18 216.621 1474.53 186.67C1474.74 162.875 1479.08 141.285 1490.33 123.094C1511.17 89.5596 1532.64 56.6688 1554.38 24.1454C1566.41 6.13817 1583.05 -1.67111 1600.46 -4.42732C1624.94 -8.3779 1649.55 -8.56165 1673.6 0.625736C1679.97 3.01445 1686.33 6.13816 1692.27 10.0887C1712.06 23.3186 1719.68 40.499 1711.92 67.6936C1699.05 112.712 1701.29 158.557 1702.06 204.678C1702.48 228.381 1700.38 231.78 1682.48 231.964C1667.38 232.148 1652.28 232.332 1637.24 231.964C1623.19 231.597 1617.03 223.879 1616.27 205.229C1615.71 192.091 1616.13 178.769 1616.13 165.631C1615.92 165.631 1615.71 165.631 1615.5 165.631V165.447Z" fill="white" fill-opacity="0.4"/>
</g>
</g>
<defs>
<clipPath id="clip0_9_207">
<rect width="2574.63" height="639.35" fill="white" transform="translate(9 -7)"/>
</clipPath>
<clipPath id="clip1_9_207">
<rect width="2574.63" height="639.35" fill="white" transform="translate(16.5 -7)"/>
</clipPath>
</defs>
</svg>
