<svg width="59" height="58" viewBox="0 0 59 58" fill="none" xmlns="http://www.w3.org/2000/svg">
<path d="M29.0227 14.9785C25.7027 14.9821 22.5198 16.1835 20.1722 18.3193C17.8245 20.4551 16.5039 23.3509 16.5 26.3714C16.496 28.8397 17.3823 31.2411 19.0228 33.2071C19.0228 33.2071 19.3643 33.6162 19.4201 33.6752L29.0227 43.9785L38.6299 33.6701C38.68 33.6152 39.0227 33.2071 39.0227 33.2071L39.0238 33.204C40.6635 31.2388 41.5493 28.8386 41.5454 26.3714C41.5415 23.3509 40.2209 20.4551 37.8733 18.3193C35.5257 16.1835 32.3428 14.9821 29.0227 14.9785ZM29.0227 30.5142C28.1221 30.5142 27.2417 30.2713 26.4928 29.816C25.744 29.3608 25.1603 28.7138 24.8156 27.9568C24.471 27.1998 24.3808 26.3668 24.5565 25.5631C24.7322 24.7595 25.1659 24.0213 25.8028 23.4419C26.4396 22.8625 27.251 22.468 28.1343 22.3081C29.0177 22.1483 29.9333 22.2303 30.7654 22.5439C31.5974 22.8574 32.3086 23.3884 32.809 24.0697C33.3094 24.751 33.5764 25.552 33.5764 26.3714C33.5749 27.4697 33.0947 28.5227 32.241 29.2993C31.3874 30.0759 30.23 30.5129 29.0227 30.5142Z" fill="#FCFCFC"/>
</svg>
