<svg width="107" height="79" viewBox="0 0 107 79" fill="none" xmlns="http://www.w3.org/2000/svg">
<path d="M17.3339 19.6914C16.5819 18.9644 15.5022 18.3546 13.9868 18.052C11.0834 17.4183 6.83746 17.0838 6.83746 15.2578C6.83746 13.9175 8.5133 13.806 9.55772 13.806C10.3393 13.806 11.0458 13.9551 11.568 14.2896C12.0903 14.6275 12.3872 15.1463 12.3872 15.9677H18.235C18.1531 14.1257 17.5069 12.7946 16.5125 11.8446C14.7912 10.2018 12.0254 9.70917 9.33586 9.70917C6.89093 9.70917 3.942 10.2336 2.14669 11.8446H2.14442C1.15006 12.7423 0.507259 13.971 0.507259 15.6298C0.507259 17.6117 1.22856 18.8552 2.34238 19.6937C4.15702 21.0612 7.01494 21.3388 9.4849 21.9634C10.6021 22.2239 12.5761 22.5209 12.5761 24.0101C12.5761 24.3685 12.4793 24.67 12.3178 24.9226C11.7842 25.7554 10.5361 26.0569 9.59754 26.0569C8.7033 26.0569 7.84888 25.8339 7.25045 25.389C7.07183 25.2502 6.91141 25.0989 6.77033 24.9226C6.41878 24.4823 6.20831 23.9225 6.20831 23.2274H0.175049C0.195528 23.8429 0.276305 24.4061 0.404866 24.9226H0.407141C1.42653 28.958 5.5746 30.1538 9.6328 30.1538C13.4874 30.1538 17.7776 28.8135 18.7151 24.9226H18.7185C18.8414 24.4117 18.9063 23.8611 18.9063 23.2661C18.9063 22.2831 18.5297 20.8405 17.3362 19.6914" fill="white"/>
<path d="M51.7701 11.8446C51.447 12.17 51.1671 12.5272 50.9407 12.9152L50.9111 11.8446L50.8656 10.2666H44.7208V11.8446V19.366V19.6914V24.9225V29.5974H51.0533V24.9225V19.6914V19.366V19.0588C51.0533 16.9358 52.0955 14.9266 54.4801 14.9266C57.5542 14.9266 57.6623 17.0416 57.6497 19.3671H57.6463C57.6452 19.5514 57.6452 20.0657 57.6452 20.25V24.9237V29.5985H63.9742V24.9237V19.6925V19.3671V17.1975C63.9742 15.6229 63.8104 13.4476 62.5146 11.8457C61.5066 10.6045 59.8228 9.71027 57.0103 9.71027C55.1525 9.71027 53.1001 10.5067 51.7701 11.8446Z" fill="white"/>
<path d="M40.245 24.9227C41.005 23.471 41.4203 21.7826 41.4203 19.9521C41.4203 19.8645 41.4191 19.7769 41.4157 19.6915C41.3452 16.4422 39.9526 13.648 37.6681 11.847V11.8436C35.9559 10.4977 33.7465 9.70816 31.2139 9.70816C28.6871 9.70816 26.4856 10.4966 24.779 11.8436H24.7768C22.5036 13.6469 21.1213 16.4445 21.0531 19.6904C21.0508 19.7757 21.0508 19.8633 21.0508 19.9509C21.0508 21.7804 21.4626 23.4699 22.2158 24.9216H22.2181C23.8564 28.0912 27.1091 30.1527 31.2151 30.1527C35.3244 30.1527 38.5919 28.0924 40.245 24.9227ZM35.0901 19.9509C35.0901 21.8657 34.5258 24.0501 32.8852 24.9216C32.4187 25.1707 31.867 25.3141 31.2151 25.3141C30.5666 25.3141 30.017 25.1707 29.5551 24.9216C27.9248 24.0512 27.381 21.8657 27.381 19.9509C27.381 19.8633 27.3833 19.778 27.3833 19.6904C27.4458 17.2887 28.3787 14.5502 31.2151 14.5502C34.0548 14.5502 35.023 17.2887 35.0855 19.6904C35.0901 19.7757 35.0901 19.8633 35.0901 19.9509Z" fill="white"/>
<path d="M33.7944 0.188934H28.5473V7.8457H33.7944V0.188934Z" fill="white"/>
<path d="M90.4738 19.6914V24.9226V29.5963H96.804V24.9226V20.0259C96.804 19.9144 96.8074 19.8029 96.8142 19.6914C96.9576 17.4091 98.5868 15.4455 101.569 15.4455C102.427 15.4455 103.173 15.5922 103.991 15.8175V11.8446V10.0436C103.507 9.93327 102.986 9.89459 102.502 9.89459C100.556 9.89459 98.8962 10.5636 97.7676 11.8446C97.3205 12.3543 96.9564 12.9584 96.6936 13.6559L96.6527 11.8446L96.6185 10.2666H90.4749V11.8446L90.4738 19.6914Z" fill="white"/>
<path d="M106.578 1.85446C106.412 1.48243 106.186 1.15591 105.909 0.880583C105.629 0.605258 105.299 0.390233 104.928 0.23778C104.562 0.0819145 104.158 0 103.735 0C103.314 0 102.912 0.0819145 102.536 0.23778C102.167 0.390233 101.836 0.605258 101.55 0.880583C101.266 1.15591 101.042 1.48471 100.88 1.85446C100.714 2.22422 100.631 2.63379 100.631 3.06498C100.631 3.51096 100.714 3.92395 100.88 4.29712C101.041 4.66915 101.266 5.00136 101.55 5.27896C101.838 5.5577 102.169 5.77386 102.539 5.92404C102.916 6.07649 103.317 6.15272 103.735 6.15272C104.156 6.15272 104.557 6.07649 104.928 5.92404C105.298 5.77386 105.628 5.55656 105.909 5.27896C106.186 5.00363 106.412 4.67483 106.578 4.29712C106.742 3.92509 106.825 3.50869 106.825 3.06498C106.825 2.63379 106.743 2.22649 106.578 1.85446ZM106.122 4.14353C105.99 4.47232 105.809 4.75447 105.572 5.00022C105.343 5.24141 105.066 5.43141 104.754 5.56566C104.438 5.70332 104.103 5.77158 103.735 5.77158C103.364 5.77158 103.016 5.70105 102.703 5.56566C102.39 5.43141 102.117 5.24027 101.881 5.00022C101.647 4.75447 101.462 4.46663 101.338 4.14694C101.202 3.82155 101.137 3.45749 101.137 3.06498C101.137 2.68157 101.2 2.33457 101.335 2.0126C101.465 1.68722 101.648 1.40279 101.881 1.16501C102.116 0.927229 102.391 0.737233 102.704 0.601846C103.021 0.463046 103.367 0.393645 103.736 0.393645C104.102 0.393645 104.436 0.46077 104.755 0.601846C105.067 0.737233 105.346 0.927231 105.573 1.1616C105.805 1.40165 105.992 1.68608 106.125 2.0126C106.258 2.33799 106.322 2.68157 106.322 3.06498C106.322 3.45521 106.255 3.81928 106.124 4.14353" fill="white"/>
<path d="M103.288 2.87379H104.024C104.328 2.87379 104.486 2.74751 104.486 2.44032C104.486 2.14452 104.328 2.01482 104.024 2.01482H103.288V2.87379ZM102.616 1.49261H104.262C104.81 1.49261 105.158 1.87033 105.158 2.33452C105.158 2.69517 105.016 2.96481 104.675 3.10361V3.1093C105.003 3.20031 105.095 3.51091 105.12 3.82491C105.132 4.01832 105.122 4.38239 105.245 4.54963H104.574C104.498 4.35622 104.5 4.06042 104.469 3.81581C104.421 3.49612 104.296 3.35618 103.957 3.35618H103.287V4.54963H102.615V1.49375L102.616 1.49261Z" fill="white"/>
<path fill-rule="evenodd" clip-rule="evenodd" d="M73.4673 24.0466C73.4673 22.5209 74.6562 21.927 76.0738 21.5891C77.4504 21.2183 79.0921 21.1045 79.9806 20.547C80.1331 24.5301 79.1239 26.2446 76.1102 26.2446C74.6949 26.2446 73.4673 25.6109 73.4673 24.0466ZM73.837 16.226C74.1351 14.5888 75.2523 13.8072 77.0033 13.8072C78.3048 13.8072 80.0557 14.3658 80.0557 15.8176C80.0557 17.0087 79.4641 17.3819 78.3833 17.606C73.9872 18.4991 67.1348 18.0156 67.1348 24.3071C67.1348 28.2936 70.0405 30.1538 73.7255 30.1538C76.0385 30.1538 78.455 29.4826 80.0978 27.7714C80.1695 28.4051 80.2446 28.999 80.4687 29.5963H86.8353C86.089 28.0695 86.089 26.281 86.089 24.645V16.1907C86.089 10.7172 81.6633 9.71149 77.0795 9.71149C74.8837 9.71149 72.6504 10.0824 70.9313 11.0517C69.2225 12.0609 68.0336 13.698 67.9198 16.2271H73.8382L73.837 16.226Z" fill="white"/>
<path d="M79.6756 66.2668H83.1991V70.697H87.6043V74.2205H83.1991V78.6507H79.6756V74.2205H75.2693V70.697H79.6756V66.2668Z" fill="white"/>
<path d="M92.9049 75.8496H94.4419C96.9062 75.7973 97.8846 74.836 97.8846 72.3364C97.8846 70.0473 96.6798 68.9631 94.4419 68.9631H92.9049V75.8496ZM89.6522 66.1666H95.0187C98.846 66.1666 101.136 68.491 101.136 72.3535C101.136 76.4435 98.8119 78.6461 95.0187 78.6461H89.6522V66.1666Z" fill="white"/>
<path d="M33.4279 60.046C33.4587 57.3201 34.6533 54.7796 36.766 52.9422C38.6034 51.3494 40.6547 50.2777 42.3385 49.206C43.9608 48.1342 45.1247 47.0932 45.1247 45.654C45.1247 43.9702 44.053 42.9895 42.3692 42.9895C39.6125 42.9895 38.8173 44.9805 38.8173 47.3071H33.9479C33.6111 42.01 37.0413 38.4262 42.3385 38.4262C46.565 38.4262 50.3309 40.6311 50.3309 45.1944C50.3309 49.3288 47.391 50.7987 44.268 52.7579C42.6138 53.7374 41.8185 54.2892 40.4101 55.6363H50.5459V60.046H33.4279Z" fill="white"/>
<path d="M51.3438 49.3584C51.3438 43.6323 53.6704 38.4262 59.7036 38.4262C65.9508 38.4262 68.4002 43.6323 68.4002 49.3584C68.4002 55.0538 65.9508 60.3213 59.7036 60.3213C53.6704 60.3213 51.3438 55.0538 51.3438 49.3584ZM63.3784 49.3584C63.3784 46.5722 63.2863 42.6516 59.8572 42.6516C56.5499 42.6516 56.3667 46.571 56.3667 49.3584C56.3667 52.1458 56.551 56.0948 59.8572 56.0948C63.2874 56.0948 63.3784 52.1446 63.3784 49.3584Z" fill="white"/>
<path d="M68.952 60.046C68.9827 57.3201 70.1773 54.7796 72.2901 52.9422C74.1275 51.3494 76.1787 50.2777 77.8625 49.206C79.4849 48.1342 80.6488 47.0932 80.6488 45.654C80.6488 43.9702 79.5771 42.9895 77.8933 42.9895C75.1366 42.9895 74.3413 44.9805 74.3413 47.3071H69.472C69.1352 42.01 72.5654 38.4262 77.8625 38.4262C82.0891 38.4262 85.8549 40.6311 85.8549 45.1944C85.8549 49.3288 82.9151 50.7987 79.7921 52.7579C78.1379 53.7374 77.3426 54.2892 75.9341 55.6363H86.07V60.046H68.952Z" fill="white"/>
<path d="M104.015 50.8898V55.2996H101.229V60.0461H96.0226V55.2996H86.6831V50.4302L96.2365 38.7016H101.228V50.8887H104.014L104.015 50.8898ZM96.1762 50.8898V43.9999H96.1147L90.7254 50.8898H96.1762Z" fill="white"/>
</svg>
