<svg width="790" height="196" viewBox="0 0 790 196" fill="none" xmlns="http://www.w3.org/2000/svg">
<g clip-path="url(#clip0_78_1933)">
<path d="M221.869 109.336C224.077 101.056 222.984 93.9583 222.32 86.8889C222.127 84.8892 221.891 82.8895 221.548 80.918C220.069 72.4685 222.084 65.4272 226.435 59.2591C229.115 55.4568 231.687 51.5419 234.281 47.627C239.125 40.2477 239.597 32.4179 235.824 23.9966C233.659 19.1522 231.708 14.167 229.758 9.18178C229.329 8.08335 229.286 6.70327 228.943 4.67539C232.587 4.67539 235.803 4.67539 238.997 4.67539C245.513 4.67539 252.029 4.81621 258.524 4.56273C261.997 4.4219 264.419 6.39345 266.327 9.82958C269.157 14.8993 271.922 20.0535 274.665 25.2077C279.36 34.0515 279.467 39.7971 274.987 48.8099C272.843 53.1473 270.4 57.2312 268.149 61.456C265.105 67.1453 264.033 73.2289 266.005 79.9604C266.563 81.8474 266.927 83.819 267.485 85.706C271 98.0423 270.957 110.322 267.42 122.658C265.041 130.939 263.862 139.501 263.84 148.401C263.84 155.893 265.234 162.625 268.492 168.708C270.464 172.398 272.479 176.031 274.344 179.805C275.351 181.861 276.295 184.086 276.873 186.396C277.859 190.283 276.466 193.268 273.358 193.521C267.549 193.972 261.718 194.028 255.909 194.226C253.423 194.31 251.944 192.339 251.601 189.494C250.808 182.706 247.978 177.298 244.848 172.313C237.26 160.231 236.531 146.627 239.104 132.178C240.111 126.489 241.505 120.912 242.598 115.251C243.005 113.195 243.112 111.054 242.812 108.829C240.347 116.434 237.646 123.926 235.46 131.671C233.981 136.91 233.016 142.43 232.159 147.922C231.173 154.091 232.159 160.005 234.388 165.554C235.91 169.328 237.625 172.989 239.039 176.82C240.004 179.411 240.904 182.171 241.29 185.016C242.383 192.874 241.076 194.817 235.181 194.733C229.393 194.648 223.627 194.395 217.497 194.197C218.032 184.959 214.517 178.65 210.616 172.567C208.965 169.976 207.379 167.3 205.686 164.793C198.655 154.4 196.961 142.289 198.59 128.883C199.448 121.842 199.941 114.716 200.584 107.618C200.241 107.562 199.898 107.478 199.576 107.421C197.519 118.49 195.289 129.531 193.467 140.656C192.181 148.514 193.789 155.837 197.197 162.456C199.212 166.37 201.441 170.116 203.306 174.144C204.721 177.186 206.05 180.425 206.8 183.833C208.086 189.578 206.05 193.296 201.57 193.493C196.447 193.719 191.302 193.465 186.158 193.409C183.543 193.381 182.364 191.296 182.492 188.226C182.771 181.918 180.477 176.989 177.884 172.144C176.897 170.314 175.933 168.427 174.84 166.708C168.152 156.287 167.144 144.514 169.909 131.812C170.853 127.503 171.796 123.165 172.825 118.884C175.097 109.365 175.075 99.8448 172.782 90.3251C171.753 86.044 170.853 81.7066 169.845 77.3973C168.109 69.99 169.031 63.1459 172.439 56.8932C174.218 53.5979 176.104 50.3871 177.905 47.0918C183.693 36.5018 183.757 31.0378 178.248 20.0535C176.747 17.0398 175.011 14.2233 173.596 11.1533C171.71 7.12574 172.675 4.81621 176.34 4.78805C185.407 4.64722 194.496 4.64722 203.585 4.81621C204.764 4.81621 206.264 5.77382 207.015 6.92859C210.637 12.6179 214.131 18.4481 217.561 24.3627C223.134 33.9388 223.37 40.0506 218.761 50.359C217.282 53.6543 215.782 56.9496 214.388 60.3012C212.116 65.7652 211.859 71.4264 213.724 77.2002C214.003 78.017 214.217 78.8901 214.496 79.7069C217.604 88.9168 220.969 98.0423 221.934 109.393L221.869 109.336Z" fill="black"/>
<path d="M712.51 4.64719C715.147 4.64719 716.819 4.64719 718.469 4.64719C725.329 4.61902 732.167 4.73168 739.026 4.42187C742.048 4.28104 744.192 5.57663 746.186 8.44946C749.701 13.5755 753.066 18.7297 752.08 26.2779C751.716 29.1225 751.159 32.1362 750.023 34.5584C743.72 47.9931 744.171 61.3433 749.68 74.8906C750.558 77.0593 751.201 79.4252 751.973 81.6502C752.102 81.9882 752.466 82.1572 753.216 82.9458C752.659 77.5945 752.359 72.7501 751.652 68.0465C750.215 58.6113 751.909 50.2181 756.003 42.4727C758.061 38.586 760.14 34.7555 762.134 30.8124C765.392 24.3345 766.335 17.6594 763.184 10.5337C762.498 8.98459 762.434 6.98488 761.919 4.33737C769.186 4.33737 775.681 3.88673 782.112 4.4782C787.17 4.957 790.879 13.0685 789.764 20.2787C789.378 22.8699 788.521 25.4329 787.535 27.7706C786.399 30.5308 785.091 33.2346 783.526 35.6005C776.153 46.782 774.866 59.6534 777.203 73.595C778.167 79.3125 779.089 85.03 780.204 90.663C782.112 100.239 782.09 109.787 780.354 119.363C779.368 124.827 778.596 130.376 777.503 135.783C776.003 143.331 777.417 150.007 780.547 156.316C782.969 161.216 785.52 166.032 787.792 171.046C790.086 176.116 790.75 181.467 788.821 187.156C787.342 191.522 784.684 194.31 781.426 194.507C773.13 195.014 764.792 194.676 755.874 194.676C756.668 191.888 757.118 190.001 757.718 188.226C759.969 181.692 759.454 175.496 756.475 169.638C755.06 166.821 753.495 164.145 751.887 161.526C750.065 158.541 748.136 155.696 746.25 152.767C741.341 145.078 738.683 136.29 738.747 126.151C738.812 114.941 736.904 104.295 733.388 94.1273C733.045 93.1415 732.617 92.2121 731.588 91.3953C731.588 92.3247 731.459 93.2823 731.588 94.1836C733.281 104.52 732.831 114.829 730.795 124.94C728.866 134.488 730.109 143.163 733.924 151.443C735.596 155.104 737.29 158.766 738.876 162.484C742.07 169.891 741.577 176.876 737.911 183.974C734.224 191.127 729.787 195.071 722.906 193.972C718.684 193.296 714.354 193.803 710.066 193.578C706.551 193.381 705.758 191.268 707.794 187.635C709.509 184.565 711.481 181.72 713.26 178.707C717.012 172.341 717.376 165.525 714.568 158.484C712.66 153.696 710.517 149.077 708.459 144.43C705.308 137.304 704.193 129.869 705.929 121.757C708.309 110.66 708.03 99.5631 705.929 88.4098C704.665 81.6502 703.893 74.7216 702.95 67.8775C701.728 59.0056 703.036 50.8941 707.108 43.5712C709.338 39.5718 711.546 35.5723 713.603 31.4321C716.669 25.2921 717.054 18.9268 714.268 12.3081C713.453 10.3365 713.196 7.97065 712.403 4.59086L712.51 4.64719Z" fill="black"/>
<path d="M344.696 92.719C356.871 104.802 358.693 111.252 354.663 129.756C352.284 140.656 352.327 150.908 356.614 161.075C361.201 171.975 359.979 179.326 349.755 185.917C345.103 188.931 340.151 190.62 334.943 190.902C323.131 191.578 311.32 192.254 299.509 192.93C296.165 193.127 295.008 191.972 293.465 188.198C291.45 183.269 289.67 178.003 286.97 173.806C279.446 162.174 278.953 148.852 280.796 134.938C281.546 129.221 283.09 123.644 284.462 118.096C286.755 108.773 286.798 99.535 284.462 90.2405C283.561 86.6072 282.854 82.8895 281.932 79.2562C280.41 73.3134 280.968 67.7086 283.454 62.4417C284.89 59.3717 286.498 56.4707 287.998 53.4289C289.392 50.6124 290.871 47.8241 292.071 44.8386C294.729 38.3043 294.579 31.8264 291.257 25.7428C288.77 21.1519 285.984 16.8708 283.583 12.2236C281.053 7.32287 282.147 4.67536 286.648 4.64719C299.831 4.50637 313.035 4.19655 326.218 4.61903C335.028 4.90068 343.431 8.16781 351.298 13.4347C353.12 14.6458 354.878 16.1103 356.464 17.8002C361.566 23.1516 362.552 28.4748 359.829 36.2483C358.607 39.7126 357.107 43.0079 355.564 46.2468C352.07 53.4289 350.248 61.1743 349.883 69.7364C349.54 77.7916 349.262 86.0439 344.674 92.7754L344.696 92.719ZM308.427 159.555C312.671 159.555 316.422 159.836 320.13 159.47C323.732 159.104 325.082 157.414 325.104 152.57C325.146 142.599 326.154 132.882 328.34 123.334C328.533 122.489 328.49 121.56 328.512 120.659C328.576 115.533 327.183 113.054 323.282 112.519C319.959 112.068 316.572 112.435 313.185 112.435C309.584 127.841 305.297 142.656 308.427 159.555ZM321.181 35.4033C318.459 41.5151 315.908 47.0636 313.507 52.7248C311.856 56.6397 310.249 60.611 308.941 64.7512C307.505 69.2576 307.633 73.8767 309.456 78.6929C310.87 78.6929 312.221 78.7211 313.571 78.6929C320.388 78.5239 322.145 76.7777 323.196 68.1592C323.946 62.0192 325.854 56.6116 328.19 51.3165C329.391 48.6127 330.655 45.8807 331.534 42.9797C333.099 37.91 332.006 35.7132 327.976 35.4315C325.597 35.2625 323.217 35.4033 321.159 35.4033H321.181Z" fill="black"/>
<path d="M580.359 112.463H562.975C561.496 119.617 559.888 126.883 558.538 134.234C557.702 138.881 558.881 143.191 560.831 147.049C563.018 151.359 565.354 155.527 567.712 159.667C574.079 170.905 571.571 179.101 565.547 188.846C564.261 190.902 561.817 191.888 559.803 192.93C558.752 193.465 557.423 193.155 556.244 193.155C550.778 193.155 545.333 193.155 539.01 193.155C539.524 190.508 539.503 188.142 540.36 186.649C546.041 176.651 544.755 167.469 539.031 158.428C536.952 155.161 535.173 151.556 533.394 147.979C530.693 142.571 530.157 136.656 531.422 130.488C532.365 125.926 533.415 121.419 534.551 116.913C537.038 106.971 537.317 96.9156 534.53 87.1142C530.8 73.9893 529.9 60.4702 530.243 46.613C530.414 39.8534 531.679 33.7698 534.444 28.1368C537.681 21.5462 540.832 14.8711 544.09 8.28048C545.355 5.74563 547.027 4.0839 549.621 4.30922C555.43 4.84435 561.26 5.04151 567.069 5.66114C570.713 6.05545 571.892 8.84378 570.199 13.0122C568.913 16.1667 567.412 19.2648 565.59 21.9123C559.802 30.39 556.823 39.9661 557.745 51.5137C558.323 58.8648 558.431 66.3003 558.859 73.6795C558.945 75.1723 559.545 76.6368 559.953 78.3268H576.115C575.858 68.0747 575.643 58.0198 575.322 47.9931C575.086 41.149 576.78 35.2062 579.609 29.6295C582.91 23.0953 585.997 16.392 589.277 9.85772C590.52 7.35103 592.127 5.60481 594.743 5.6893C600.23 5.85829 605.718 5.54848 611.184 5.6893C616.007 5.80196 617.722 9.23809 615.75 14.9837C614.699 18.0256 613.134 20.7857 611.677 23.5177C609.919 26.8412 607.69 29.7985 606.232 33.3191C604.775 36.7834 603.317 40.6984 603.081 44.5288C602.352 56.8932 602.202 69.3985 605.46 81.2841C609.276 95.2257 609.469 109.083 605.482 122.884C602.459 133.361 604.153 142.205 609.898 150.147C611.655 152.57 613.156 155.358 614.592 158.146C617.207 163.244 617.529 168.793 615.407 174.172C613.52 178.932 611.334 183.551 608.933 187.917C607.304 190.846 604.925 192.761 601.902 192.761C596.586 192.761 591.27 192.93 585.975 192.789C582.782 192.705 582.053 190.846 583.639 187.213C584.839 184.48 586.297 181.946 587.433 179.185C589.92 173.13 589.855 167.075 586.919 161.301C585.397 158.315 583.896 155.273 582.074 152.598C576.287 144.036 574.679 134.685 578.044 123.869C579.137 120.377 579.609 116.575 580.466 112.378L580.359 112.463Z" fill="black"/>
<path d="M123.223 2.87286C138.313 3.43616 150.982 11.5758 161.764 24.9542C167.037 31.5166 167.273 37.2341 163.372 45.4865C161.742 48.9226 159.878 52.1334 158.077 55.4287C154.454 62.1038 153.554 69.3422 155.312 77.2002C155.998 80.2139 156.512 83.312 157.348 86.2412C160.821 98.5774 160.714 110.801 157.455 123.222C156.126 128.291 155.333 133.615 154.497 138.882C153.254 146.852 154.283 154.513 156.684 161.949C157.691 165.047 158.699 168.173 159.427 171.384C160.756 177.101 159.856 182.256 156.062 185.804C153.447 188.255 150.596 190.536 147.574 191.916C139.385 195.69 130.897 197.324 122.344 194.733C118.442 193.55 114.413 191.465 111.197 188.396C104.145 181.692 97.5641 174.088 90.8119 166.849C83.2237 158.71 80.9515 148.373 83.6095 136.065C84.3169 132.826 84.8313 129.503 85.7102 126.348C89.3757 113.111 89.44 99.9857 85.4958 86.8608C83.0736 78.7775 82.4734 70.3561 82.5806 61.7095C82.6663 55.316 84.0811 49.7394 87.2964 45.064C90.0402 41.0646 92.9769 37.2905 95.9136 33.4882C99.3647 29.01 102.473 24.1374 103.931 18.0256C106.546 7.09761 112.376 2.81653 120.629 2.87286C121.486 2.87286 122.344 2.87286 123.201 2.87286H123.223ZM109.975 142.289C109.782 153.781 112.912 159.695 118.828 161.949C125.109 164.314 127.638 161.836 127.06 153.386C126.395 143.585 127.231 134.122 129.653 124.799C130.811 120.349 131.604 115.702 132.247 111.083C133.619 101.197 131.411 91.8742 129.01 82.6924C125.752 70.159 125.838 58.4705 132.933 47.9086C134.455 45.6555 136.427 42.5291 134.862 39.431C133.126 36.023 129.996 36.868 127.274 37.4313C126.781 37.5439 126.288 37.7974 125.795 37.9664C116.578 41.5997 109.225 55.4287 110.168 68.0184C110.554 73.1163 111.154 78.3831 112.526 83.143C116.856 98.1831 116.685 112.913 112.462 127.953C110.94 133.361 110.49 139.304 109.997 142.233L109.975 142.289Z" fill="black"/>
<path d="M29.0558 65.1737C33.0642 49.7956 42.6674 41.149 51.456 31.5447C51.8419 31.1222 52.2277 30.6434 52.6135 30.221C58.3797 23.8275 62.8812 16.7299 60.3947 5.46395C62.0881 5.29496 63.2242 5.01331 64.3817 5.06964C69.5263 5.23863 74.6494 5.49212 79.7939 5.68927C86.6748 5.97092 90.1474 12.6742 87.1249 20.7857C85.6887 24.6725 83.2451 28.1931 80.7371 31.1222C77.0287 35.4315 72.956 39.2337 68.8832 42.9797C60.9091 50.3307 56.8578 61.2024 53.3638 72.5247C52.8279 74.271 53.2137 77.003 53.8997 78.8055C55.7431 83.6217 57.9081 88.2408 60.116 92.7753C65.0462 102.971 67.3184 114.068 66.8468 126.151C66.7396 128.629 66.8039 131.108 66.8254 133.586C66.8897 146.993 70.8124 157.921 78.5292 166.765C82.259 171.018 85.6673 175.834 88.947 180.678C90.4475 182.903 92.3124 185.663 91.0691 189.071C89.6972 192.817 87.0177 193.381 84.0811 193.352C77.2645 193.24 70.4266 193.324 63.3957 193.324C63.1384 185.494 59.9017 179.805 55.9575 174.623C53.7711 171.75 51.6704 168.793 49.3982 166.061C41.4456 156.484 37.9515 144.486 37.8658 130.516C37.8658 127.644 37.8658 124.799 37.8658 121.447C27.1694 130.967 26.2262 146.965 30.7492 158.062C32.8499 163.188 35.7437 167.75 37.9301 172.82C39.5807 176.679 41.1669 180.819 41.81 185.1C42.646 190.649 40.2452 194.31 35.8723 194.564C29.5488 194.958 23.2038 194.845 16.8589 194.733C14.1365 194.676 12.9576 192.958 13.7507 189.55C15.5084 182.03 13.3863 175.89 10.4282 169.891C8.84193 166.68 7.27713 163.441 5.58371 160.343C0.975047 151.865 0.0533144 142.627 2.02539 132.713C2.79708 128.798 3.61163 124.883 4.57624 121.053C7.36287 110.012 7.29856 99.0561 4.76916 87.8746C3.11861 80.5799 2.02539 73.0317 1.06079 65.5117C-0.0967352 56.4425 1.57525 48.1057 5.62658 40.5857C7.70584 36.7271 9.74223 32.8403 11.65 28.8409C14.2652 23.3487 14.801 17.6312 12.8504 11.4631C11.1999 6.25257 12.1002 4.78799 16.6016 4.7035C21.7462 4.619 26.8908 4.73166 32.0139 4.64717C39.7307 4.53451 42.9032 13.5191 42.0458 20.4195C41.6385 23.6304 40.5024 26.8412 39.2162 29.714C37.5871 33.3754 35.4436 36.6707 33.5787 40.1632C28.7771 49.1196 27.8768 53.5134 29.0343 65.2018L29.0558 65.1737Z" fill="black"/>
<path d="M419.463 4.22471C426.408 4.22471 433.225 3.99939 440.042 4.30921C444.136 4.50636 446.944 8.64661 447.694 14.5049C448.23 18.6452 447.651 22.6164 446.108 26.2497C444.607 29.7703 443.15 33.4036 441.285 36.5863C433.504 49.9646 432.732 64.5541 436.462 80.073C437.276 83.5091 438.005 86.9734 438.798 90.4095C440.77 98.8308 440.77 107.252 438.884 115.673C437.919 119.983 437.126 124.376 436.033 128.629C434.061 136.234 434.811 143.191 438.348 149.753C440.042 152.879 441.606 156.09 443.043 159.442C446.365 167.215 445.872 173.186 440.706 178.679C428.874 191.268 415.219 196.732 400.021 194.592C395.22 193.916 391.233 190.733 388.596 185.297C384.759 177.411 379.936 170.736 374.363 165.075C364.652 155.245 361.951 143.078 366.539 128.094C367.182 126.01 367.546 123.785 368.061 121.644C370.654 111.252 370.44 100.943 368.018 90.4658C366.432 83.6217 365.167 76.5805 364.309 69.5111C363.173 60.2167 365.124 51.7108 369.347 44.05C371.255 40.5857 373.012 36.9806 374.791 33.4036C378.435 26.0244 378.607 18.6733 374.641 11.3786C374.148 10.4773 373.591 9.54789 373.248 8.53395C372.476 6.1681 373.012 4.30921 375.049 4.30921C382.23 4.25288 389.475 3.74591 396.613 4.70352C402.443 5.49214 406.731 16.4201 405.016 24.2782C404.501 26.6159 403.644 28.8972 402.679 30.9814C401.457 33.6853 400.128 36.3609 398.564 38.7268C390.74 50.6406 389.946 64.2443 392.797 78.7492C393.398 81.791 394.041 84.8328 394.855 87.7902C398.156 99.704 398.049 111.561 394.962 123.503C393.826 127.953 392.905 132.544 392.176 137.163C390.118 150.091 400.064 162.427 409.324 161.357C413.397 160.878 414.212 159.357 412.668 154.485C412.54 154.062 412.39 153.64 412.197 153.302C407.395 144.543 407.695 135.248 410.46 125.672C410.889 124.207 411.125 122.658 411.511 121.166C414.34 109.872 414.233 98.6618 411.253 87.424C409.11 79.3407 407.674 71.0602 407.631 62.3572C407.588 55.2878 409.088 49.0633 412.154 43.4022C414.34 39.3746 416.677 35.4878 418.863 31.4321C422.443 24.8133 423.386 17.9411 419.892 10.6745C419.442 9.74505 419.142 8.67478 418.949 7.60451C418.842 7.01304 419.12 6.30892 419.442 4.25288L419.463 4.22471Z" fill="black"/>
<path d="M648.182 7.49186C650.39 7.35103 652.062 7.23837 653.734 7.15388C660.915 6.87223 668.117 6.87223 675.276 6.22443C678.492 5.94278 680.335 7.43553 682.029 10.7308C685.501 17.4904 686.209 24.3627 683.165 31.6574C681.6 35.4033 679.971 39.093 678.513 42.9234C676.198 48.9507 675.255 55.2596 676.906 61.8502C678.813 69.5111 680.507 77.341 682.865 84.7765C686.552 96.4087 688.695 108.266 687.452 120.912C686.766 127.982 688.266 134.291 691.375 139.98C693.861 144.543 696.562 148.936 699.049 153.499C704.943 164.23 705.072 169.469 699.842 180.566C698.941 182.481 697.998 184.368 697.141 186.311C694.997 191.184 691.975 193.69 687.516 193.55C680.743 193.324 673.947 193.493 666.895 193.493C667.131 188.395 668.803 185.016 670.26 181.523C671.59 178.369 673.069 175.355 674.269 172.116C675.898 167.722 676.477 163.188 674.247 157.921C668.181 157.555 661.901 157.16 655.17 156.766C655.556 166.286 651.74 172.82 647.582 179.157C645.802 181.889 643.766 184.509 642.501 187.607C640.572 192.339 637.828 193.296 634.056 192.958C628.975 192.508 623.874 192.846 619.179 192.846C617.679 189.212 618.665 187.241 619.908 185.213C622.266 181.354 624.624 177.496 626.746 173.412C630.283 166.652 630.476 159.611 627.175 152.513C625.932 149.838 624.731 147.106 623.488 144.43C620.551 138.177 620.401 131.784 622.716 125.137C624.217 120.856 625.631 116.518 626.96 112.125C629.468 103.788 630.262 95.1976 629.211 86.2974C627.882 74.8625 627.925 63.512 629.533 52.077C630.412 45.8244 632.298 40.5575 635.513 35.9948C637.142 33.6853 638.857 31.4884 640.594 29.3197C645.224 23.4614 649.768 17.5468 648.203 7.52002L648.182 7.49186ZM652.233 71.2292C652.705 80.3265 654.055 89.5082 653.433 98.4929C652.812 107.646 650.282 116.575 648.568 125.728H659.95C664.794 105.816 658.771 88.5788 652.212 71.2292H652.233Z" fill="black"/>
<path d="M490.908 52.8657C491.08 48.8099 491.38 44.7823 491.401 40.7266C491.401 36.1638 490.094 34.6711 486.664 34.7838C481.241 34.9246 476.075 41.149 475.518 49.1197C474.832 58.7803 474.36 68.6662 477.232 77.8198C482.441 94.3245 482.227 110.322 477.318 126.996C473.61 139.557 478.626 154.457 487.8 160.653C489.944 162.118 492.709 162.512 495.195 162.54C497.896 162.568 498.861 160.4 497.853 157.048C497.06 154.344 495.924 151.753 494.702 149.331C490.372 140.909 491.294 132.206 493.952 123.532C494.96 120.236 497.039 118.18 499.911 118.152C505.227 118.096 510.543 117.983 515.838 118.152C518.925 118.237 520.039 120.377 519.525 124.32C519.503 124.546 519.461 124.771 519.396 124.968C515.838 135.98 518.239 145.557 523.383 154.598C524.798 157.104 525.87 159.977 526.899 162.822C528.892 168.342 528.035 173.327 524.991 177.749C524.198 178.904 523.34 180.087 522.376 180.988C509.343 192.817 495.11 198.394 479.204 194.986C473.438 193.747 469.451 189.832 468.187 181.946C466.793 173.299 463.299 166.23 458.776 159.864C456.333 156.4 454.082 152.71 451.895 148.965C448.423 143.022 447.608 136.347 449.259 129.165C450.009 125.926 450.674 122.687 451.51 119.504C454.468 108.238 454.468 97.0565 451.424 85.7624C449.13 77.2565 447.587 68.5536 447.694 59.3718C447.758 52.077 449.087 45.4583 452.539 39.8816C458.926 29.6014 465.507 19.5183 472.174 9.54795C475.861 4.02762 480.962 1.63359 486.3 0.788644C493.802 -0.42245 501.347 -0.47878 508.721 2.33772C510.672 3.07001 512.623 4.02762 514.445 5.23871C520.511 9.29446 522.847 14.5613 520.468 22.8981C516.524 36.699 517.21 50.7533 517.446 64.8921C517.574 72.1587 516.931 73.2008 511.444 73.2571C506.814 73.3134 502.183 73.3698 497.575 73.2571C493.266 73.1444 491.38 70.7786 491.144 65.0611C490.973 61.0335 491.101 56.9496 491.101 52.922C491.037 52.922 490.973 52.922 490.908 52.922V52.8657Z" fill="black"/>
</g>
<defs>
<clipPath id="clip0_78_1933">
<rect width="789.282" height="196" fill="white" transform="translate(0.717834)"/>
</clipPath>
</defs>
</svg>
