<svg width="790" height="196" viewBox="0 0 790 196" fill="none" xmlns="http://www.w3.org/2000/svg">
<g clip-path="url(#clip0_248_16)">
<path d="M221.152 109.336C223.359 101.056 222.266 93.9583 221.602 86.8889C221.409 84.8892 221.173 82.8895 220.83 80.918C219.351 72.4685 221.366 65.4272 225.717 59.2591C228.397 55.4568 230.969 51.5419 233.563 47.627C238.407 40.2477 238.879 32.4179 235.106 23.9966C232.941 19.1522 230.991 14.167 229.04 9.18178C228.611 8.08335 228.568 6.70327 228.225 4.67539C231.869 4.67539 235.085 4.67539 238.279 4.67539C244.795 4.67539 251.312 4.81621 257.807 4.56273C261.279 4.4219 263.701 6.39345 265.609 9.82958C268.439 14.8993 271.204 20.0535 273.948 25.2077C278.642 34.0515 278.749 39.7971 274.269 48.8099C272.126 53.1473 269.682 57.2312 267.431 61.456C264.387 67.1453 263.316 73.2289 265.288 79.9604C265.845 81.8474 266.209 83.819 266.767 85.706C270.282 98.0423 270.239 110.322 266.702 122.658C264.323 130.939 263.144 139.501 263.123 148.401C263.123 155.893 264.516 162.625 267.774 168.708C269.746 172.398 271.761 176.031 273.626 179.805C274.634 181.861 275.577 184.086 276.156 186.396C277.142 190.283 275.748 193.268 272.64 193.521C266.831 193.972 261.001 194.028 255.191 194.226C252.705 194.31 251.226 192.339 250.883 189.494C250.09 182.706 247.26 177.298 244.131 172.313C236.542 160.231 235.814 146.627 238.386 132.178C239.393 126.489 240.787 120.912 241.88 115.251C242.287 113.195 242.394 111.054 242.094 108.829C239.629 116.434 236.928 123.926 234.742 131.671C233.263 136.91 232.298 142.43 231.441 147.922C230.455 154.091 231.441 160.005 233.67 165.554C235.192 169.328 236.907 172.989 238.322 176.82C239.286 179.411 240.186 182.171 240.572 185.016C241.666 192.874 240.358 194.817 234.463 194.733C228.676 194.648 222.909 194.395 216.779 194.197C217.315 184.959 213.799 178.65 209.898 172.567C208.247 169.976 206.661 167.3 204.968 164.793C197.937 154.4 196.243 142.289 197.873 128.883C198.73 121.842 199.223 114.716 199.866 107.618C199.523 107.562 199.18 107.478 198.859 107.421C196.801 118.49 194.571 129.531 192.749 140.656C191.463 148.514 193.071 155.837 196.479 162.456C198.494 166.37 200.723 170.116 202.588 174.144C204.003 177.186 205.332 180.425 206.082 183.833C207.369 189.578 205.332 193.296 200.852 193.493C195.729 193.719 190.584 193.465 185.44 193.409C182.825 193.381 181.646 191.296 181.774 188.226C182.053 181.918 179.759 176.989 177.166 172.144C176.18 170.314 175.215 168.427 174.122 166.708C167.434 156.287 166.426 144.514 169.192 131.812C170.135 127.503 171.078 123.165 172.107 118.884C174.379 109.365 174.358 99.8448 172.064 90.3251C171.035 86.044 170.135 81.7066 169.127 77.3973C167.391 69.99 168.313 63.1459 171.721 56.8932C173.5 53.5979 175.387 50.3871 177.187 47.0918C182.975 36.5018 183.039 31.0378 177.53 20.0535C176.03 17.0398 174.293 14.2233 172.879 11.1533C170.992 7.12574 171.957 4.81621 175.622 4.78805C184.69 4.64722 193.778 4.64722 202.867 4.81621C204.046 4.81621 205.546 5.77382 206.297 6.92859C209.919 12.6179 213.413 18.4481 216.843 24.3627C222.416 33.9388 222.652 40.0506 218.043 50.359C216.564 53.6543 215.064 56.9496 213.671 60.3012C211.398 65.7652 211.141 71.4264 213.006 77.2002C213.285 78.017 213.499 78.8901 213.778 79.7069C216.886 88.9168 220.251 98.0423 221.216 109.393L221.152 109.336Z" fill="#FF34CD"/>
<path d="M711.792 4.64719C714.429 4.64719 716.101 4.64719 717.751 4.64719C724.611 4.61902 731.449 4.73168 738.308 4.42187C741.331 4.28104 743.474 5.57663 745.468 8.44946C748.983 13.5755 752.349 18.7297 751.362 26.2779C750.998 29.1225 750.441 32.1362 749.305 34.5584C743.003 47.9931 743.453 61.3433 748.962 74.8906C749.841 77.0593 750.484 79.4252 751.255 81.6502C751.384 81.9882 751.748 82.1572 752.499 82.9458C751.941 77.5945 751.641 72.7501 750.934 68.0465C749.498 58.6113 751.191 50.2181 755.285 42.4727C757.343 38.586 759.422 34.7555 761.416 30.8124C764.674 24.3345 765.617 17.6594 762.466 10.5337C761.78 8.98459 761.716 6.98488 761.201 4.33737C768.468 4.33737 774.963 3.88673 781.394 4.4782C786.453 4.957 790.161 13.0685 789.046 20.2787C788.661 22.8699 787.803 25.4329 786.817 27.7706C785.681 30.5308 784.373 33.2346 782.809 35.6005C775.435 46.782 774.149 59.6534 776.485 73.595C777.45 79.3125 778.371 85.03 779.486 90.663C781.394 100.239 781.372 109.787 779.636 119.363C778.65 124.827 777.878 130.376 776.785 135.783C775.285 143.331 776.699 150.007 779.829 156.316C782.251 161.216 784.802 166.032 787.074 171.046C789.368 176.116 790.032 181.467 788.103 187.156C786.624 191.522 783.966 194.31 780.708 194.507C772.412 195.014 764.074 194.676 755.157 194.676C755.95 191.888 756.4 190.001 757 188.226C759.251 181.692 758.736 175.496 755.757 169.638C754.342 166.821 752.777 164.145 751.17 161.526C749.348 158.541 747.418 155.696 745.532 152.767C740.623 145.078 737.965 136.29 738.029 126.151C738.094 114.941 736.186 104.295 732.671 94.1273C732.328 93.1415 731.899 92.2121 730.87 91.3953C730.87 92.3247 730.741 93.2823 730.87 94.1836C732.563 104.52 732.113 114.829 730.077 124.94C728.148 134.488 729.391 143.163 733.206 151.443C734.878 155.104 736.572 158.766 738.158 162.484C741.352 169.891 740.859 176.876 737.194 183.974C733.507 191.127 729.069 195.071 722.189 193.972C717.966 193.296 713.636 193.803 709.349 193.578C705.833 193.381 705.04 191.268 707.076 187.635C708.791 184.565 710.763 181.72 712.543 178.707C716.294 172.341 716.658 165.525 713.85 158.484C711.942 153.696 709.799 149.077 707.741 144.43C704.59 137.304 703.475 129.869 705.212 121.757C707.591 110.66 707.312 99.5631 705.212 88.4098C703.947 81.6502 703.175 74.7216 702.232 67.8775C701.01 59.0056 702.318 50.8941 706.391 43.5712C708.62 39.5717 710.828 35.5723 712.886 31.4321C715.951 25.2921 716.337 18.9268 713.55 12.3081C712.735 10.3365 712.478 7.97065 711.685 4.59086L711.792 4.64719Z" fill="#FF34CD"/>
<path d="M343.978 92.719C356.153 104.802 357.975 111.252 353.945 129.756C351.566 140.656 351.609 150.908 355.896 161.075C360.483 171.975 359.262 179.326 349.037 185.917C344.385 188.931 339.434 190.62 334.225 190.902C322.414 191.578 310.603 192.254 298.792 192.93C295.448 193.127 294.29 191.972 292.747 188.198C290.732 183.269 288.953 178.003 286.252 173.806C278.728 162.174 278.235 148.852 280.078 134.938C280.828 129.221 282.372 123.644 283.744 118.096C286.037 108.773 286.08 99.535 283.744 90.2405C282.843 86.6072 282.136 82.8895 281.214 79.2562C279.692 73.3134 280.25 67.7086 282.736 62.4417C284.172 59.3717 285.78 56.4707 287.281 53.4289C288.674 50.6124 290.153 47.8241 291.353 44.8386C294.011 38.3043 293.861 31.8264 290.539 25.7428C288.052 21.1519 285.266 16.8708 282.865 12.2236C280.335 7.32287 281.429 4.67536 285.93 4.64719C299.113 4.50637 312.317 4.19655 325.5 4.61903C334.31 4.90068 342.713 8.16781 350.58 13.4347C352.402 14.6458 354.16 16.1103 355.746 17.8002C360.848 23.1516 361.834 28.4748 359.111 36.2483C357.89 39.7126 356.389 43.0079 354.846 46.2469C351.352 53.4289 349.53 61.1743 349.165 69.7364C348.822 77.7916 348.544 86.0439 343.956 92.7754L343.978 92.719ZM307.709 159.555C311.953 159.555 315.704 159.836 319.413 159.47C323.014 159.104 324.364 157.414 324.386 152.57C324.429 142.599 325.436 132.882 327.622 123.334C327.815 122.489 327.773 121.56 327.794 120.659C327.858 115.533 326.465 113.054 322.564 112.519C319.241 112.068 315.854 112.435 312.468 112.435C308.866 127.841 304.579 142.656 307.709 159.555ZM320.463 35.4033C317.741 41.5151 315.19 47.0636 312.789 52.7248C311.138 56.6397 309.531 60.611 308.223 64.7512C306.787 69.2576 306.916 73.8767 308.738 78.6929C310.152 78.6929 311.503 78.7211 312.853 78.6929C319.67 78.5239 321.428 76.7777 322.478 68.1592C323.228 62.0192 325.136 56.6116 327.472 51.3165C328.673 48.6127 329.938 45.8807 330.816 42.9797C332.381 37.91 331.288 35.7132 327.258 35.4315C324.879 35.2625 322.499 35.4033 320.442 35.4033H320.463Z" fill="#FF34CD"/>
<path d="M579.641 112.463H562.257C560.778 119.617 559.17 126.883 557.82 134.234C556.984 138.881 558.163 143.191 560.114 147.049C562.3 151.358 564.637 155.527 566.994 159.667C573.361 170.905 570.853 179.101 564.829 188.846C563.543 190.902 561.1 191.888 559.085 192.93C558.034 193.465 556.705 193.155 555.526 193.155C550.06 193.155 544.616 193.155 538.292 193.155C538.807 190.508 538.785 188.142 539.643 186.649C545.323 176.651 544.037 167.469 538.314 158.428C536.234 155.161 534.455 151.556 532.676 147.979C529.975 142.571 529.439 136.656 530.704 130.488C531.647 125.926 532.697 121.419 533.833 116.913C536.32 106.971 536.599 96.9156 533.812 87.1142C530.082 73.9893 529.182 60.4702 529.525 46.613C529.696 39.8534 530.961 33.7698 533.726 28.1368C536.963 21.5462 540.114 14.8711 543.372 8.28048C544.637 5.74563 546.309 4.0839 548.903 4.30922C554.712 4.84435 560.542 5.04151 566.351 5.66114C569.995 6.05545 571.174 8.84378 569.481 13.0122C568.195 16.1667 566.694 19.2648 564.872 21.9123C559.085 30.39 556.105 39.9661 557.027 51.5137C557.606 58.8648 557.713 66.3003 558.142 73.6795C558.227 75.1723 558.827 76.6369 559.235 78.3267H575.397C575.14 68.0747 574.926 58.0198 574.604 47.9931C574.368 41.149 576.062 35.2062 578.891 29.6295C582.192 23.0953 585.279 16.392 588.559 9.85772C589.802 7.35103 591.41 5.60481 594.025 5.6893C599.512 5.85829 605 5.54848 610.466 5.6893C615.289 5.80196 617.004 9.23809 615.032 14.9837C613.981 18.0256 612.417 20.7857 610.959 23.5177C609.201 26.8412 606.972 29.7985 605.514 33.3191C604.057 36.7834 602.599 40.6984 602.363 44.5288C601.634 56.8932 601.484 69.3985 604.743 81.2841C608.558 95.2257 608.751 109.083 604.764 122.884C601.742 133.361 603.435 142.205 609.18 150.147C610.938 152.57 612.438 155.358 613.874 158.146C616.489 163.244 616.811 168.793 614.689 174.172C612.802 178.932 610.616 183.551 608.215 187.917C606.586 190.846 604.207 192.761 601.184 192.761C595.868 192.761 590.552 192.93 585.258 192.789C582.064 192.705 581.335 190.846 582.921 187.213C584.122 184.481 585.579 181.946 586.715 179.185C589.202 173.13 589.137 167.075 586.201 161.301C584.679 158.315 583.178 155.273 581.356 152.598C575.569 144.036 573.961 134.685 577.326 123.869C578.42 120.377 578.891 116.575 579.749 112.378L579.641 112.463Z" fill="#FF34CD"/>
<path d="M122.505 2.87286C137.595 3.43616 150.264 11.5758 161.046 24.9542C166.319 31.5166 166.555 37.2341 162.654 45.4865C161.025 48.9226 159.16 52.1334 157.359 55.4287C153.737 62.1038 152.836 69.3422 154.594 77.2002C155.28 80.2139 155.794 83.312 156.63 86.2412C160.103 98.5774 159.996 110.801 156.738 123.222C155.408 128.291 154.615 133.615 153.779 138.881C152.536 146.852 153.565 154.513 155.966 161.949C156.973 165.047 157.981 168.173 158.71 171.384C160.039 177.101 159.138 182.256 155.344 185.804C152.729 188.255 149.878 190.536 146.856 191.916C138.667 195.69 130.179 197.324 121.626 194.733C117.725 193.55 113.695 191.465 110.479 188.396C103.427 181.692 96.8463 174.088 90.094 166.849C82.5058 158.71 80.2336 148.373 82.8917 136.065C83.599 132.826 84.1135 129.503 84.9924 126.348C88.6579 113.111 88.7222 99.9857 84.778 86.8608C82.3558 78.7775 81.7556 70.3561 81.8628 61.7095C81.9485 55.316 83.3633 49.7394 86.5786 45.064C89.3224 41.0646 92.259 37.2905 95.1957 33.4882C98.6469 29.01 101.755 24.1374 103.213 18.0256C105.828 7.09761 111.658 2.81653 119.911 2.87286C120.768 2.87286 121.626 2.87286 122.483 2.87286H122.505ZM109.258 142.289C109.065 153.781 112.194 159.695 118.11 161.949C124.391 164.314 126.92 161.836 126.342 153.386C125.677 143.585 126.513 134.122 128.935 124.799C130.093 120.349 130.886 115.702 131.529 111.083C132.901 101.197 130.693 91.8742 128.292 82.6924C125.034 70.159 125.12 58.4705 132.215 47.9086C133.737 45.6555 135.709 42.5291 134.144 39.431C132.408 36.023 129.278 36.868 126.556 37.4313C126.063 37.5439 125.57 37.7974 125.077 37.9664C115.86 41.5997 108.507 55.4287 109.45 68.0184C109.836 73.1163 110.436 78.3831 111.808 83.143C116.138 98.1831 115.967 112.913 111.744 127.953C110.222 133.361 109.772 139.304 109.279 142.233L109.258 142.289Z" fill="#FF34CD"/>
<path d="M28.3379 65.1737C32.3464 49.7956 41.9496 41.149 50.7382 31.5447C51.124 31.1222 51.5099 30.6434 51.8957 30.221C57.6619 23.8275 62.1634 16.7299 59.6768 5.46395C61.3703 5.29496 62.5063 5.01331 63.6639 5.06964C68.8084 5.23863 73.9315 5.49212 79.0761 5.68927C85.9569 5.97092 89.4295 12.6742 86.4071 20.7857C84.9709 24.6725 82.5272 28.1931 80.0193 31.1222C76.3109 35.4315 72.2381 39.2337 68.1654 42.9797C60.1913 50.3307 56.14 61.2024 52.6459 72.5247C52.1101 74.271 52.4959 77.003 53.1818 78.8055C55.0253 83.6217 57.1903 88.2408 59.3982 92.7753C64.3284 102.971 66.6006 114.068 66.129 126.151C66.0218 128.629 66.0861 131.108 66.1075 133.586C66.1718 146.993 70.0946 157.921 77.8114 166.765C81.5412 171.018 84.9495 175.834 88.2291 180.678C89.7296 182.903 91.5945 185.663 90.3513 189.071C88.9794 192.817 86.2999 193.381 83.3632 193.352C76.5467 193.24 69.7087 193.324 62.6778 193.324C62.4206 185.494 59.1838 179.805 55.2397 174.623C53.0532 171.75 50.9525 168.793 48.6803 166.061C40.7277 156.484 37.2337 144.486 37.148 130.516C37.148 127.644 37.148 124.799 37.148 121.447C26.4516 130.967 25.5084 146.965 30.0313 158.062C32.132 163.188 35.0258 167.75 37.2123 172.82C38.8628 176.679 40.4491 180.819 41.0921 185.1C41.9281 190.649 39.5273 194.31 35.1545 194.564C28.8309 194.958 22.486 194.845 16.141 194.733C13.4187 194.676 12.2397 192.958 13.0329 189.55C14.7906 182.03 12.6685 175.89 9.71034 169.891C8.1241 166.68 6.55929 163.441 4.86588 160.343C0.257213 151.865 -0.66452 142.627 1.30756 132.713C2.07924 128.798 2.8938 124.883 3.8584 121.053C6.64504 110.012 6.58073 99.0561 4.05132 87.8746C2.40078 80.5799 1.30756 73.0317 0.342956 65.5117C-0.81457 56.4425 0.857411 48.1057 4.90875 40.5857C6.98801 36.7271 9.02439 32.8403 10.9322 28.8409C13.5473 23.3487 14.0832 17.6312 12.1326 11.4631C10.482 6.25257 11.3823 4.78799 15.8838 4.7035C21.0284 4.619 26.1729 4.73166 31.296 4.64717C39.0129 4.53451 42.1853 13.5191 41.3279 20.4195C40.9206 23.6304 39.7846 26.8412 38.4984 29.714C36.8693 33.3754 34.7257 36.6707 32.8608 40.1632C28.0593 49.1196 27.159 53.5134 28.3165 65.2018L28.3379 65.1737Z" fill="#FF34CD"/>
<path d="M418.746 4.22471C425.691 4.22471 432.507 3.99939 439.324 4.30921C443.418 4.50636 446.226 8.64661 446.976 14.5049C447.512 18.6452 446.933 22.6164 445.39 26.2497C443.89 29.7703 442.432 33.4036 440.567 36.5863C432.786 49.9646 432.014 64.5541 435.744 80.073C436.559 83.5091 437.287 86.9734 438.08 90.4095C440.053 98.8308 440.053 107.252 438.166 115.673C437.202 119.983 436.408 124.376 435.315 128.629C433.343 136.234 434.093 143.191 437.63 149.753C439.324 152.879 440.889 156.09 442.325 159.442C445.647 167.215 445.154 173.186 439.988 178.679C428.156 191.268 414.501 196.732 399.303 194.592C394.502 193.916 390.515 190.733 387.878 185.297C384.041 177.411 379.218 170.736 373.645 165.075C363.935 155.245 361.234 143.078 365.821 128.094C366.464 126.01 366.828 123.785 367.343 121.644C369.937 111.252 369.722 100.943 367.3 90.4658C365.714 83.6218 364.449 76.5805 363.592 69.5111C362.455 60.2167 364.406 51.7109 368.629 44.05C370.537 40.5857 372.294 36.9806 374.074 33.4036C377.718 26.0244 377.889 18.6733 373.924 11.3786C373.431 10.4773 372.873 9.54789 372.53 8.53395C371.759 6.1681 372.294 4.30921 374.331 4.30921C381.512 4.25288 388.757 3.74591 395.895 4.70352C401.726 5.49214 406.013 16.4201 404.298 24.2782C403.783 26.6159 402.926 28.8972 401.961 30.9814C400.74 33.6853 399.411 36.3609 397.846 38.7268C390.022 50.6406 389.229 64.2443 392.08 78.7492C392.68 81.791 393.323 84.8329 394.137 87.7902C397.438 99.704 397.331 111.561 394.245 123.503C393.108 127.953 392.187 132.544 391.458 137.163C389.4 150.091 399.346 162.427 408.606 161.357C412.679 160.878 413.494 159.357 411.95 154.485C411.822 154.062 411.672 153.64 411.479 153.302C406.677 144.543 406.977 135.248 409.743 125.672C410.171 124.207 410.407 122.658 410.793 121.166C413.622 109.872 413.515 98.6619 410.536 87.424C408.392 79.3407 406.956 71.0602 406.913 62.3572C406.87 55.2878 408.371 49.0633 411.436 43.4022C413.622 39.3746 415.959 35.4878 418.145 31.4321C421.725 24.8133 422.668 17.9411 419.174 10.6745C418.724 9.74505 418.424 8.67478 418.231 7.60451C418.124 7.01304 418.403 6.30892 418.724 4.25288L418.746 4.22471Z" fill="#FF34CD"/>
<path d="M647.464 7.49186C649.672 7.35103 651.344 7.23837 653.016 7.15388C660.197 6.87223 667.399 6.87223 674.559 6.22443C677.774 5.94278 679.617 7.43553 681.311 10.7308C684.783 17.4904 685.491 24.3627 682.447 31.6574C680.882 35.4033 679.253 39.093 677.795 42.9234C675.48 48.9507 674.537 55.2596 676.188 61.8502C678.095 69.5111 679.789 77.341 682.147 84.7765C685.834 96.4087 687.977 108.266 686.734 120.912C686.048 127.982 687.549 134.291 690.657 139.98C693.143 144.543 695.844 148.936 698.331 153.499C704.226 164.23 704.354 169.469 699.124 180.566C698.224 182.481 697.28 184.368 696.423 186.311C694.279 191.184 691.257 193.69 686.798 193.55C680.025 193.324 673.23 193.493 666.177 193.493C666.413 188.395 668.085 185.016 669.543 181.523C670.872 178.369 672.351 175.355 673.551 172.116C675.18 167.722 675.759 163.188 673.53 157.921C667.463 157.555 661.183 157.16 654.452 156.766C654.838 166.286 651.022 172.82 646.864 179.157C645.085 181.889 643.048 184.509 641.783 187.607C639.854 192.339 637.11 193.296 633.338 192.958C628.258 192.508 623.156 192.846 618.461 192.846C616.961 189.212 617.947 187.241 619.19 185.213C621.548 181.354 623.906 177.496 626.028 173.412C629.565 166.652 629.758 159.611 626.457 152.513C625.214 149.838 624.013 147.106 622.77 144.43C619.833 138.177 619.683 131.784 621.998 125.137C623.499 120.856 624.914 116.518 626.243 112.125C628.751 103.788 629.544 95.1976 628.493 86.2974C627.164 74.8625 627.207 63.512 628.815 52.077C629.694 45.8244 631.58 40.5575 634.795 35.9948C636.425 33.6853 638.139 31.4884 639.876 29.3197C644.506 23.4614 649.05 17.5468 647.485 7.52002L647.464 7.49186ZM651.515 71.2292C651.987 80.3265 653.337 89.5082 652.716 98.4929C652.094 107.646 649.565 116.575 647.85 125.728H659.232C664.077 105.816 658.053 88.5788 651.494 71.2292H651.515Z" fill="#FF34CD"/>
<path d="M490.19 52.8657C490.362 48.8099 490.662 44.7823 490.684 40.7266C490.684 36.1638 489.376 34.6711 485.946 34.7838C480.523 34.9246 475.357 41.149 474.8 49.1197C474.114 58.7803 473.642 68.6662 476.515 77.8198C481.723 94.3245 481.509 110.322 476.6 126.996C472.892 139.557 477.908 154.457 487.082 160.653C489.226 162.118 491.991 162.512 494.478 162.54C497.178 162.568 498.143 160.4 497.136 157.048C496.343 154.344 495.206 151.753 493.985 149.331C489.655 140.909 490.576 132.206 493.234 123.532C494.242 120.236 496.321 118.18 499.193 118.152C504.51 118.096 509.826 117.983 515.12 118.152C518.207 118.237 519.322 120.377 518.807 124.32C518.786 124.546 518.743 124.771 518.678 124.968C515.12 135.98 517.521 145.557 522.666 154.598C524.08 157.104 525.152 159.977 526.181 162.822C528.174 168.342 527.317 173.327 524.273 177.749C523.48 178.904 522.623 180.087 521.658 180.988C508.625 192.817 494.392 198.394 478.487 194.986C472.72 193.747 468.733 189.832 467.469 181.946C466.075 173.299 462.581 166.23 458.058 159.864C455.615 156.4 453.364 152.71 451.178 148.965C447.705 143.022 446.89 136.347 448.541 129.165C449.291 125.926 449.956 122.687 450.792 119.504C453.75 108.238 453.75 97.0565 450.706 85.7624C448.412 77.2565 446.869 68.5536 446.976 59.3718C447.041 52.077 448.37 45.4583 451.821 39.8816C458.208 29.6014 464.789 19.5183 471.456 9.54795C475.143 4.02762 480.244 1.63359 485.582 0.788644C493.084 -0.42245 500.63 -0.47878 508.004 2.33772C509.954 3.07001 511.905 4.02761 513.727 5.23871C519.793 9.29446 522.13 14.5613 519.75 22.8981C515.806 36.699 516.492 50.7533 516.728 64.8921C516.856 72.1587 516.213 73.2008 510.726 73.2571C506.096 73.3134 501.466 73.3698 496.857 73.2571C492.548 73.1444 490.662 70.7786 490.426 65.0611C490.255 61.0335 490.383 56.9496 490.383 52.922C490.319 52.922 490.255 52.922 490.19 52.922V52.8657Z" fill="#FF34CD"/>
</g>
<defs>
<clipPath id="clip0_248_16">
<rect width="789.282" height="196" fill="white"/>
</clipPath>
</defs>
</svg>
