<svg width="250" height="62" viewBox="0 0 250 62" fill="none" xmlns="http://www.w3.org/2000/svg">
<g clip-path="url(#clip0_13_399)">
<path d="M70.174 34.5861C70.8724 31.9667 70.5266 29.7216 70.3164 27.4854C70.2554 26.8528 70.1808 26.2202 70.0723 25.5966C69.6044 22.9238 70.2418 20.6965 71.6183 18.7453C72.4659 17.5426 73.2795 16.3042 74.1 15.0658C75.6324 12.7315 75.7816 10.2547 74.5882 7.59083C73.9034 6.05843 73.2863 4.48148 72.6693 2.90453C72.5337 2.55706 72.5201 2.12051 72.4116 1.47903C73.5643 1.47903 74.5814 1.47903 75.5917 1.47903C77.6531 1.47903 79.7144 1.52358 81.7689 1.4434C82.8674 1.39885 83.6336 2.0225 84.2371 3.10944C85.1321 4.71312 86.0068 6.34353 86.8748 7.97393C88.3597 10.7715 88.3936 12.589 86.9765 15.4399C86.2984 16.812 85.5254 18.1038 84.8134 19.4402C83.8506 21.2399 83.5116 23.1643 84.1354 25.2937C84.3117 25.8906 84.4269 26.5142 84.6032 27.1112C85.7153 31.0135 85.7017 34.8979 84.5829 38.8002C83.8302 41.4195 83.4573 44.128 83.4505 46.9433C83.4505 49.3132 83.8913 51.4425 84.9219 53.367C85.5458 54.5341 86.1831 55.6834 86.7731 56.8772C87.0917 57.5276 87.3901 58.2314 87.5732 58.962C87.8851 60.1915 87.4443 61.1359 86.4611 61.2161C84.6236 61.3586 82.7792 61.3764 80.9417 61.4388C80.1551 61.4655 79.6873 60.8419 79.5788 59.942C79.3279 57.7949 78.4328 56.0843 77.4429 54.5073C75.0425 50.6852 74.812 46.382 75.6256 41.8116C75.9443 40.0119 76.3851 38.2478 76.7309 36.4571C76.8597 35.8067 76.8936 35.1296 76.7987 34.4257C76.0189 36.8312 75.1646 39.2011 74.4729 41.6512C74.0051 43.3083 73.6999 45.0546 73.4287 46.7919C73.1168 48.743 73.4287 50.614 74.1339 52.3691C74.6153 53.563 75.1578 54.7212 75.6053 55.9328C75.9104 56.7525 76.1952 57.6256 76.3173 58.5255C76.6631 61.0112 76.2495 61.6259 74.3848 61.5992C72.554 61.5724 70.73 61.4923 68.7907 61.4299C68.9602 58.5076 67.8482 56.5119 66.6141 54.5875C66.092 53.7679 65.5903 52.9215 65.0546 52.1286C62.8305 48.841 62.2949 45.01 62.8102 40.7692C63.0814 38.5418 63.2374 36.2878 63.4408 34.0426C63.3323 34.0248 63.2238 33.9981 63.1221 33.9803C62.4711 37.4816 61.766 40.9741 61.1896 44.4933C60.7828 46.979 61.2913 49.2954 62.3694 51.3891C63.0068 52.6275 63.712 53.8124 64.3019 55.0865C64.7495 56.0487 65.1699 57.0732 65.4072 58.1513C65.814 59.9688 65.1699 61.1448 63.7527 61.2072C62.1321 61.2784 60.5048 61.1982 58.8774 61.1804C58.0502 61.1715 57.6772 60.5122 57.7179 59.5411C57.8061 57.5454 57.0805 55.9863 56.2601 54.4539C55.9482 53.8748 55.643 53.2779 55.2972 52.7344C53.1816 49.4379 52.8629 45.7138 53.7377 41.6957C54.036 40.3326 54.3344 38.9606 54.6598 37.6064C55.3786 34.595 55.3718 31.5837 54.6463 28.5723C54.3208 27.2181 54.036 25.846 53.7173 24.4829C53.1681 22.1398 53.4596 19.9748 54.5378 17.9969C55.1006 16.9545 55.6973 15.9389 56.2668 14.8965C58.0976 11.5466 58.118 9.81816 56.3753 6.34353C55.9007 5.39023 55.3515 4.4993 54.9039 3.52818C54.3072 2.25415 54.6124 1.52358 55.7719 1.51467C58.6401 1.47013 61.5151 1.47013 64.3901 1.52358C64.763 1.52358 65.2377 1.8265 65.475 2.19178C66.6209 3.99146 67.7262 5.8357 68.8111 7.70665C70.574 10.7358 70.6486 12.6691 69.1908 15.93C68.7229 16.9724 68.2483 18.0147 67.8075 19.075C67.0888 20.8034 67.0074 22.5941 67.5973 24.4206C67.6855 24.6789 67.7533 24.9551 67.8414 25.2135C68.8246 28.1268 69.8892 31.0135 70.1943 34.6039L70.174 34.5861Z" fill="#FCFCFC"/>
<path d="M225.377 1.47004C226.211 1.47004 226.74 1.47004 227.262 1.47004C229.431 1.46113 231.595 1.49676 233.764 1.39876C234.72 1.35421 235.398 1.76404 236.029 2.6728C237.141 4.29429 238.206 5.9247 237.894 8.3124C237.778 9.21224 237.602 10.1655 237.243 10.9317C235.249 15.1815 235.392 19.4045 237.134 23.6899C237.412 24.3759 237.616 25.1243 237.86 25.8281C237.901 25.935 238.016 25.9885 238.253 26.238C238.077 24.5452 237.982 23.0128 237.758 21.5249C237.304 18.5403 237.84 15.8853 239.135 13.4353C239.786 12.2058 240.443 10.9941 241.074 9.7468C242.105 7.69765 242.403 5.58614 241.406 3.33209C241.189 2.84207 241.169 2.20951 241.006 1.37203C243.305 1.37203 245.359 1.22948 247.393 1.41658C248.994 1.56804 250.167 4.13392 249.814 6.41471C249.692 7.23437 249.421 8.04512 249.109 8.78459C248.75 9.65771 248.336 10.513 247.841 11.2614C245.508 14.7984 245.102 18.87 245.841 23.2801C246.146 25.0887 246.437 26.8973 246.79 28.6791C247.393 31.7083 247.387 34.7285 246.837 37.7577C246.526 39.4861 246.281 41.2413 245.936 42.9519C245.461 45.3396 245.909 47.4511 246.898 49.4468C247.665 50.997 248.472 52.5205 249.19 54.1063C249.916 55.71 250.126 57.4028 249.516 59.2025C249.048 60.5834 248.207 61.4654 247.176 61.5278C244.552 61.6882 241.915 61.5813 239.094 61.5813C239.345 60.6992 239.487 60.1023 239.677 59.541C240.389 57.4741 240.226 55.514 239.284 53.6609C238.836 52.7699 238.341 51.9235 237.833 51.095C237.256 50.1506 236.646 49.2508 236.049 48.3242C234.497 45.8919 233.656 43.1122 233.676 39.9049C233.697 36.359 233.093 32.9912 231.981 29.775C231.873 29.4631 231.737 29.1691 231.411 28.9108C231.411 29.2048 231.371 29.5077 231.411 29.7928C231.947 33.0625 231.805 36.3233 231.161 39.5218C230.55 42.542 230.944 45.2861 232.151 47.9054C232.679 49.0637 233.215 50.2219 233.717 51.3979C234.727 53.7411 234.571 55.9506 233.412 58.1957C232.245 60.4587 230.842 61.706 228.665 61.3585C227.329 61.1447 225.96 61.3051 224.604 61.2338C223.492 61.1714 223.241 60.5032 223.885 59.3539C224.427 58.3828 225.051 57.483 225.614 56.5297C226.801 54.5162 226.916 52.3601 226.028 50.1328C225.424 48.6182 224.746 47.1571 224.095 45.687C223.098 43.433 222.746 41.0809 223.295 38.515C224.048 35.0047 223.959 31.4945 223.295 27.9664C222.895 25.8281 222.651 23.6364 222.352 21.4715C221.966 18.665 222.38 16.0991 223.668 13.7827C224.373 12.5176 225.072 11.2525 225.722 9.94281C226.692 8.00057 226.814 5.98706 225.933 3.89337C225.675 3.26972 225.594 2.52134 225.343 1.45222L225.377 1.47004Z" fill="#FCFCFC"/>
<path d="M109.027 29.3296C112.879 33.1517 113.455 35.1919 112.18 41.0453C111.428 44.4933 111.441 47.7362 112.797 50.9525C114.248 54.4004 113.862 56.7258 110.627 58.8105C109.156 59.7638 107.59 60.2984 105.942 60.3875C102.206 60.6013 98.4697 60.8151 94.7335 61.029C93.6757 61.0913 93.3096 60.726 92.8214 59.5322C92.184 57.9731 91.6212 56.307 90.7668 54.9795C88.3868 51.3 88.2309 47.0859 88.814 42.6847C89.0513 40.8761 89.5395 39.112 89.9735 37.3569C90.699 34.4079 90.7126 31.4856 89.9735 28.5456C89.6887 27.3963 89.465 26.2202 89.1734 25.0709C88.692 23.1911 88.8682 21.4181 89.6548 19.7521C90.1091 18.7809 90.6177 17.8633 91.0923 16.9011C91.5331 16.0101 92.0009 15.1281 92.3806 14.1837C93.2214 12.1168 93.174 10.0676 92.123 8.1432C91.3364 6.69098 90.4549 5.33677 89.6955 3.86673C88.8954 2.31651 89.2412 1.47903 90.6651 1.47012C94.8352 1.42557 99.0121 1.32757 103.182 1.46121C105.969 1.5503 108.627 2.58378 111.116 4.24983C111.692 4.63293 112.248 5.09622 112.75 5.63077C114.364 7.32355 114.675 9.00741 113.814 11.4664C113.428 12.5622 112.953 13.6046 112.465 14.6292C111.36 16.9011 110.783 19.3511 110.668 22.0596C110.56 24.6076 110.471 27.2181 109.02 29.3474L109.027 29.3296ZM97.5543 50.4714C98.8969 50.4714 100.083 50.5605 101.257 50.4447C102.396 50.3289 102.823 49.7943 102.83 48.2619C102.843 45.108 103.162 42.0343 103.854 39.014C103.915 38.7467 103.901 38.4527 103.908 38.1676C103.928 36.5461 103.487 35.7621 102.253 35.5928C101.202 35.4503 100.131 35.5661 99.0596 35.5661C97.9204 40.4395 96.5643 45.1258 97.5543 50.4714ZM101.589 11.1991C100.728 13.1324 99.9207 14.8876 99.1613 16.6783C98.6392 17.9167 98.1306 19.173 97.717 20.4826C97.2627 21.9081 97.3034 23.3692 97.8798 24.8927C98.3273 24.8927 98.7545 24.9016 99.1816 24.8927C101.338 24.8393 101.894 24.2869 102.226 21.5606C102.463 19.6184 103.067 17.9078 103.806 16.2329C104.186 15.3776 104.586 14.5134 104.864 13.5957C105.359 11.992 105.013 11.2971 103.738 11.208C102.986 11.1546 102.233 11.1991 101.582 11.1991H101.589Z" fill="#FCFCFC"/>
<path d="M183.574 35.575H178.075C177.607 37.8379 177.098 40.1365 176.671 42.4619C176.407 43.9319 176.78 45.295 177.397 46.5156C178.088 47.8787 178.827 49.1973 179.573 50.507C181.587 54.0618 180.794 56.6544 178.888 59.737C178.482 60.3874 177.709 60.6993 177.071 61.0289C176.739 61.1982 176.319 61.1002 175.946 61.1002C174.217 61.1002 172.494 61.1002 170.494 61.1002C170.657 60.2627 170.65 59.5143 170.921 59.0421C172.718 55.8793 172.311 52.9749 170.501 50.115C169.843 49.0815 169.28 47.9411 168.717 46.8096C167.863 45.099 167.693 43.2281 168.094 41.2769C168.392 39.8336 168.724 38.4081 169.084 36.9826C169.87 33.8376 169.958 30.657 169.077 27.5566C167.897 23.4048 167.612 19.1283 167.721 14.7449C167.775 12.6067 168.175 10.6823 169.05 8.90043C170.074 6.81565 171.07 4.70414 172.101 2.61936C172.501 1.81752 173.03 1.29187 173.85 1.36314C175.688 1.53242 177.532 1.59478 179.37 1.79079C180.523 1.91552 180.895 2.79754 180.36 4.11612C179.953 5.11397 179.478 6.09399 178.902 6.93147C177.071 9.61318 176.129 12.6424 176.42 16.2952C176.603 18.6205 176.637 20.9726 176.773 23.3068C176.8 23.779 176.99 24.2423 177.119 24.7769H182.231C182.15 21.5339 182.082 18.3532 181.98 15.1815C181.906 13.0165 182.441 11.1367 183.336 9.37263C184.381 7.30566 185.357 5.18524 186.395 3.11828C186.788 2.32535 187.296 1.77297 188.124 1.7997C189.859 1.85316 191.595 1.75515 193.324 1.7997C194.85 1.83534 195.393 2.92227 194.769 4.73978C194.436 5.70198 193.941 6.5751 193.48 7.4393C192.924 8.4906 192.219 9.42608 191.758 10.5397C191.297 11.6356 190.836 12.874 190.761 14.0857C190.531 17.9969 190.483 21.9526 191.514 25.7123C192.721 30.1224 192.782 34.5058 191.521 38.8714C190.565 42.1857 191.1 44.9832 192.918 47.4956C193.474 48.2618 193.948 49.1439 194.403 50.0259C195.23 51.6385 195.331 53.3936 194.66 55.0953C194.064 56.601 193.372 58.0621 192.612 59.443C192.097 60.3696 191.344 60.9754 190.388 60.9754C188.707 60.9754 187.025 61.0289 185.35 60.9843C184.34 60.9576 184.109 60.3696 184.611 59.2203C184.991 58.3561 185.452 57.5543 185.811 56.6811C186.598 54.7656 186.578 52.8501 185.649 51.0237C185.167 50.0793 184.693 49.1171 184.116 48.2707C182.285 45.5623 181.777 42.6044 182.841 39.1832C183.187 38.0785 183.336 36.8757 183.608 35.5482L183.574 35.575Z" fill="#FCFCFC"/>
<path d="M38.9694 0.908865C43.743 1.08705 47.7503 3.66185 51.161 7.89378C52.8291 9.96965 52.9036 11.7782 51.6696 14.3887C51.1542 15.4756 50.5643 16.4913 49.9947 17.5337C48.8488 19.6452 48.564 21.9349 49.12 24.4206C49.337 25.3739 49.4997 26.3539 49.7642 27.2805C50.8627 31.1828 50.8288 35.0494 49.7981 38.9784C49.3777 40.5821 49.1268 42.266 48.8624 43.932C48.4691 46.4533 48.7946 48.8767 49.554 51.2287C49.8727 52.2088 50.1914 53.1977 50.4219 54.2134C50.8423 56.022 50.5575 57.6524 49.3574 58.7749C48.5301 59.5501 47.6283 60.2717 46.6722 60.7083C44.082 61.9021 41.3968 62.4189 38.6914 61.5992C37.4573 61.225 36.1825 60.5657 35.1654 59.5946C32.9346 57.4742 30.8529 55.0687 28.717 52.779C26.3166 50.2042 25.5979 46.9344 26.4387 43.0411C26.6625 42.0165 26.8252 40.9652 27.1032 39.9674C28.2627 35.78 28.283 31.6282 27.0354 27.4765C26.2692 24.9195 26.0793 22.2556 26.1132 19.5204C26.1403 17.498 26.5879 15.734 27.605 14.255C28.4729 12.9899 29.4018 11.7961 30.3308 10.5933C31.4225 9.17672 32.4057 7.63541 32.8668 5.70208C33.694 2.24526 35.5384 0.891046 38.1489 0.908865C38.4201 0.908865 38.6914 0.908865 38.9626 0.908865H38.9694ZM34.7789 45.01C34.7179 48.645 35.7079 50.516 37.5793 51.2287C39.5661 51.9771 40.3662 51.1931 40.1831 48.5203C39.9729 45.4199 40.2374 42.4263 41.0036 39.4773C41.3697 38.0697 41.6206 36.5996 41.824 35.1385C42.258 32.0113 41.5596 29.0623 40.8001 26.1579C39.7695 22.1932 39.7966 18.4959 42.041 15.1549C42.5224 14.4421 43.1463 13.4532 42.6513 12.4732C42.102 11.3951 41.1121 11.6624 40.2509 11.8406C40.095 11.8762 39.939 11.9564 39.783 12.0099C36.8674 13.1592 34.5416 17.5337 34.8399 21.5161C34.962 23.1287 35.1519 24.7948 35.5858 26.3004C36.9555 31.058 36.9013 35.7176 35.5655 40.4752C35.084 42.1858 34.9417 44.0656 34.7857 44.9922L34.7789 45.01Z" fill="#FCFCFC"/>
<path d="M9.18185 20.6162C10.4498 15.7517 13.4876 13.0165 16.2676 9.97847C16.3897 9.84483 16.5117 9.69337 16.6338 9.55973C18.4578 7.53731 19.8817 5.29216 19.0952 1.72843C19.6309 1.67497 19.9902 1.58588 20.3564 1.6037C21.9837 1.65715 23.6043 1.73734 25.2317 1.7997C27.4083 1.8888 28.5067 4.00922 27.5507 6.5751C27.0964 7.80459 26.3234 8.91826 25.53 9.84483C24.357 11.208 23.0687 12.4107 21.7803 13.5957C19.2579 15.921 17.9764 19.36 16.8711 22.9415C16.7016 23.4939 16.8237 24.3581 17.0406 24.9283C17.6238 26.4518 18.3086 27.9129 19.007 29.3473C20.5666 32.5725 21.2853 36.0828 21.1362 39.9049C21.1023 40.6889 21.1226 41.4729 21.1294 42.257C21.1497 46.4978 22.3906 49.9546 24.8316 52.7521C26.0115 54.0975 27.0896 55.6209 28.127 57.1534C28.6017 57.8572 29.1916 58.7303 28.7983 59.8083C28.3644 60.9933 27.5168 61.1715 26.5878 61.1625C24.4316 61.1269 22.2685 61.1536 20.0445 61.1536C19.9631 58.6768 18.9392 56.8772 17.6916 55.2378C17 54.3291 16.3355 53.3936 15.6167 52.5294C13.1011 49.5002 11.9958 45.7049 11.9687 41.2858C11.9687 40.3771 11.9687 39.4772 11.9687 38.417C8.58515 41.4284 8.2868 46.4889 9.71752 49.9992C10.382 51.6207 11.2974 53.064 11.989 54.6676C12.5112 55.8882 13.0129 57.1979 13.2163 58.5521C13.4808 60.3073 12.7214 61.4655 11.3381 61.5457C9.3378 61.6704 7.33073 61.6347 5.32365 61.5991C4.46251 61.5813 4.08957 61.0378 4.34045 59.9598C4.89647 57.581 4.22518 55.6388 3.28945 53.7411C2.78768 52.7254 2.29269 51.7008 1.75702 50.7208C0.299177 48.0391 0.00760889 45.1168 0.63143 41.9808C0.875534 40.7424 1.1332 39.504 1.43833 38.2923C2.31982 34.7999 2.29947 31.3341 1.49936 27.7971C0.977244 25.4896 0.63143 23.1019 0.3263 20.7231C-0.0398558 17.8543 0.489036 15.2171 1.77058 12.8384C2.42831 11.6178 3.07247 10.3883 3.67595 9.12317C4.50319 7.38585 4.67271 5.57726 4.05567 3.62612C3.53356 1.97789 3.81834 1.51461 5.24228 1.48788C6.86964 1.46115 8.497 1.49679 10.1176 1.47006C12.5586 1.43442 13.5622 4.2765 13.2909 6.45928C13.1621 7.47494 12.8027 8.49061 12.3959 9.39936C11.8806 10.5576 11.2025 11.6 10.6126 12.7047C9.0937 15.5379 8.80891 16.9277 9.17507 20.6251L9.18185 20.6162Z" fill="#FCFCFC"/>
<path d="M132.678 1.33647C134.875 1.33647 137.031 1.2652 139.188 1.3632C140.483 1.42557 141.371 2.73524 141.608 4.58838C141.778 5.89805 141.595 7.15426 141.107 8.30357C140.632 9.41723 140.171 10.5665 139.581 11.5733C137.119 15.8052 136.875 20.4203 138.055 25.3293C138.313 26.4162 138.543 27.5121 138.794 28.599C139.418 31.2629 139.418 33.9268 138.821 36.5907C138.516 37.9538 138.265 39.3437 137.92 40.689C137.296 43.0945 137.533 45.2951 138.652 47.371C139.188 48.3599 139.683 49.3756 140.137 50.4358C141.188 52.8948 141.032 54.7835 139.398 56.5208C135.655 60.5033 131.336 62.2317 126.528 61.5546C125.009 61.3408 123.748 60.334 122.914 58.6145C121.7 56.1199 120.175 54.0084 118.412 52.2176C115.34 49.1083 114.486 45.2595 115.937 40.5197C116.14 39.8604 116.255 39.1566 116.418 38.4795C117.239 35.1919 117.171 31.9311 116.405 28.6168C115.903 26.4519 115.503 24.2245 115.231 21.9883C114.872 19.0482 115.489 16.3576 116.825 13.9343C117.428 12.8384 117.984 11.698 118.547 10.5665C119.7 8.23229 119.754 5.90696 118.5 3.59944C118.344 3.31434 118.168 3.02034 118.059 2.6996C117.815 1.95122 117.984 1.3632 118.629 1.3632C120.9 1.34538 123.192 1.18501 125.45 1.48793C127.294 1.73739 128.65 5.19421 128.108 7.67991C127.945 8.41939 127.674 9.14104 127.369 9.80033C126.982 10.6556 126.562 11.502 126.067 12.2504C123.592 16.019 123.341 20.3222 124.243 24.9106C124.433 25.8728 124.636 26.835 124.894 27.7704C125.938 31.5391 125.904 35.2899 124.928 39.0675C124.568 40.4751 124.277 41.9274 124.046 43.3885C123.395 47.4779 126.542 51.3802 129.471 51.0416C130.759 50.8902 131.017 50.409 130.529 48.8677C130.488 48.7341 130.441 48.6005 130.379 48.4935C128.861 45.7227 128.956 42.7827 129.83 39.7535C129.966 39.2902 130.04 38.8002 130.163 38.328C131.058 34.7554 131.024 31.2094 130.081 27.6546C129.403 25.0977 128.949 22.4783 128.935 19.7253C128.922 17.4891 129.396 15.5201 130.366 13.7293C131.058 12.4553 131.797 11.2258 132.488 9.94288C133.621 7.84919 133.919 5.67532 132.814 3.37671C132.671 3.0827 132.576 2.74415 132.515 2.40559C132.482 2.2185 132.57 1.99576 132.671 1.34538L132.678 1.33647Z" fill="#FCFCFC"/>
<path d="M205.028 2.36977C205.726 2.32523 206.255 2.28959 206.784 2.26286C209.056 2.17377 211.334 2.17377 213.599 1.96885C214.616 1.87976 215.199 2.35195 215.735 3.39435C216.833 5.53258 217.057 7.70646 216.094 10.014C215.599 11.1989 215.084 12.366 214.622 13.5777C213.89 15.4843 213.592 17.48 214.114 19.5648C214.717 21.9881 215.253 24.4649 215.999 26.817C217.165 30.4965 217.843 34.2473 217.45 38.2476C217.233 40.4839 217.708 42.4796 218.691 44.2792C219.477 45.7226 220.332 47.1124 221.118 48.5557C222.983 51.9502 223.024 53.6073 221.369 57.1176C221.084 57.7234 220.786 58.3203 220.515 58.9351C219.837 60.4764 218.881 61.2693 217.47 61.2248C215.328 61.1535 213.178 61.207 210.947 61.207C211.022 59.5944 211.551 58.5253 212.012 57.4205C212.432 56.4227 212.9 55.4694 213.28 54.4448C213.795 53.0549 213.978 51.6205 213.273 49.9545C211.354 49.8387 209.367 49.7139 207.238 49.5892C207.36 52.6006 206.153 54.6675 204.838 56.6721C204.275 57.5363 203.631 58.3649 203.231 59.3449C202.621 60.8417 201.753 61.1446 200.559 61.0377C198.952 60.8951 197.339 61.0021 195.854 61.0021C195.379 59.8528 195.691 59.2291 196.084 58.5876C196.83 57.3671 197.576 56.1465 198.247 54.8546C199.366 52.7164 199.427 50.489 198.383 48.2439C197.99 47.3975 197.61 46.5333 197.217 45.6869C196.288 43.709 196.24 41.6866 196.972 39.584C197.447 38.2298 197.895 36.8578 198.315 35.4679C199.108 32.8308 199.359 30.1134 199.027 27.2981C198.607 23.6809 198.62 20.0904 199.129 16.4732C199.407 14.4954 200.003 12.8293 201.02 11.386C201.536 10.6554 202.078 9.96052 202.627 9.2745C204.092 7.42136 205.53 5.5504 205.035 2.37868L205.028 2.36977ZM206.309 22.5316C206.459 25.4093 206.886 28.3137 206.689 31.1558C206.492 34.0513 205.692 36.8756 205.15 39.7711H208.75C210.283 33.4722 208.377 28.0197 206.303 22.5316H206.309Z" fill="#FCFCFC"/>
<path d="M155.278 16.7227C155.332 15.4398 155.427 14.1657 155.434 12.8828C155.434 11.4395 155.02 10.9673 153.936 11.0029C152.22 11.0475 150.586 13.0164 150.41 15.5378C150.193 18.5937 150.043 21.7209 150.952 24.6164C152.6 29.8373 152.532 34.8978 150.979 40.1721C149.806 44.1456 151.393 48.8587 154.295 50.8187C154.973 51.282 155.848 51.4067 156.634 51.4156C157.489 51.4245 157.794 50.7385 157.475 49.6783C157.224 48.823 156.865 48.0034 156.478 47.2372C155.109 44.5733 155.4 41.8203 156.241 39.0762C156.56 38.0338 157.217 37.3835 158.126 37.3745C159.808 37.3567 161.489 37.3211 163.164 37.3745C164.14 37.4013 164.493 38.0784 164.33 39.3257C164.324 39.397 164.31 39.4682 164.29 39.5306C163.164 43.0141 163.923 46.0433 165.551 48.9032C165.998 49.6961 166.337 50.6049 166.663 51.5047C167.293 53.251 167.022 54.8279 166.059 56.2267C165.808 56.592 165.537 56.9662 165.232 57.2513C161.109 60.9932 156.607 62.7572 151.576 61.6792C149.752 61.2872 148.491 60.0488 148.091 57.5542C147.65 54.819 146.545 52.5828 145.114 50.5693C144.341 49.4734 143.629 48.3063 142.937 47.1213C141.839 45.2415 141.581 43.13 142.103 40.8581C142.341 39.8335 142.551 38.8089 142.815 37.8022C143.751 34.2385 143.751 30.7015 142.788 27.1288C142.063 24.4382 141.574 21.6852 141.608 18.7808C141.629 16.4733 142.049 14.3796 143.141 12.6155C145.161 9.36362 147.243 6.17408 149.352 3.02018C150.518 1.27395 152.132 0.516659 153.82 0.249379C156.193 -0.133722 158.58 -0.15154 160.913 0.739392C161.53 0.971035 162.147 1.27395 162.723 1.65705C164.642 2.94 165.381 4.60604 164.629 7.2432C163.381 11.6088 163.598 16.0545 163.673 20.527C163.713 22.8256 163.51 23.1553 161.774 23.1731C160.309 23.1909 158.845 23.2087 157.387 23.1731C156.024 23.1374 155.427 22.3891 155.353 20.5805C155.298 19.3064 155.339 18.0146 155.339 16.7405C155.319 16.7405 155.298 16.7405 155.278 16.7405V16.7227Z" fill="#FCFCFC"/>
</g>
<defs>
<clipPath id="clip0_13_399">
<rect width="249.671" height="62" fill="white" transform="translate(0.217834)"/>
</clipPath>
</defs>
</svg>
