<svg width="59" height="58" viewBox="0 0 59 58" fill="none" xmlns="http://www.w3.org/2000/svg">
<path d="M40.6 22.8476L29 30.1839L17.4 22.8476V19.913L29 27.2493L40.6 19.913M40.6 16.9785H17.4C15.7905 16.9785 14.5 18.2844 14.5 19.913V37.5202C14.5 38.2985 14.8055 39.0449 15.3494 39.5952C15.8932 40.1455 16.6309 40.4547 17.4 40.4547H40.6C41.3691 40.4547 42.1068 40.1455 42.6506 39.5952C43.1945 39.0449 43.5 38.2985 43.5 37.5202V19.913C43.5 19.1348 43.1945 18.3883 42.6506 17.838C42.1068 17.2877 41.3691 16.9785 40.6 16.9785Z" fill="#FCFCFC"/>
</svg>
