<svg width="59" height="58" viewBox="0 0 59 58" fill="none" xmlns="http://www.w3.org/2000/svg">
<path d="M29.5014 14.812C37.3256 14.812 43.6681 21.1544 43.6681 28.9787C43.6681 36.8029 37.3256 43.1453 29.5014 43.1453C26.9978 43.1494 24.5383 42.4868 22.3756 41.2258L15.3404 43.1453L17.2557 36.1073C15.9936 33.9439 15.3306 31.4833 15.3347 28.9787C15.3347 21.1544 21.6772 14.812 29.5014 14.812ZM24.6734 22.3203L24.3901 22.3317C24.2066 22.3428 24.0274 22.391 23.8631 22.4733C23.7094 22.5604 23.5691 22.6692 23.4466 22.7963C23.2766 22.9564 23.1802 23.0953 23.0768 23.2298C22.5528 23.9111 22.2707 24.7475 22.275 25.607C22.2778 26.3012 22.4592 26.9769 22.7425 27.6088C23.3219 28.8866 24.2753 30.2395 25.5333 31.4933C25.8365 31.795 26.134 32.0982 26.4542 32.3801C28.0173 33.7563 29.88 34.7488 31.8941 35.2786L32.6988 35.4018C32.9609 35.416 33.223 35.3962 33.4865 35.3834C33.8991 35.3621 34.3019 35.2504 34.6666 35.0562C34.8521 34.9606 35.0331 34.8566 35.2091 34.7445C35.2091 34.7445 35.2701 34.7048 35.3862 34.617C35.5775 34.4753 35.6951 34.3748 35.8537 34.209C35.9713 34.0872 36.0733 33.9441 36.1512 33.7812C36.2617 33.5503 36.3722 33.1097 36.4176 32.7428C36.4516 32.4623 36.4416 32.3093 36.4374 32.2143C36.4317 32.0628 36.3056 31.9055 36.1682 31.8389L35.3437 31.4692C35.3437 31.4692 34.1112 30.9323 33.3576 30.5894C33.2787 30.555 33.1942 30.5353 33.1082 30.5313C33.0113 30.5214 32.9134 30.5323 32.821 30.5633C32.7286 30.5944 32.644 30.6448 32.5727 30.7113C32.5656 30.7084 32.4707 30.7892 31.4465 32.0302C31.3877 32.1092 31.3067 32.1689 31.2139 32.2017C31.121 32.2345 31.0205 32.2389 30.9251 32.2143C30.8329 32.1896 30.7424 32.1583 30.6546 32.1208C30.4789 32.0472 30.418 32.0188 30.2976 31.9678C29.4845 31.613 28.7317 31.1336 28.0663 30.5469C27.8878 30.3911 27.7221 30.2211 27.5521 30.0568C26.9947 29.523 26.509 28.9192 26.1071 28.2604L26.0235 28.1258C25.9634 28.0354 25.9149 27.9379 25.879 27.8354C25.8252 27.6272 25.9654 27.46 25.9654 27.46C25.9654 27.46 26.3097 27.0832 26.4697 26.8792C26.6256 26.6808 26.7573 26.4882 26.8423 26.3508C27.0095 26.0816 27.0619 25.8053 26.9741 25.5914C26.5774 24.6224 26.1666 23.6577 25.7444 22.7C25.6608 22.5102 25.4129 22.3742 25.1877 22.3473C25.1112 22.3388 25.0346 22.3303 24.9581 22.3246C24.7679 22.3151 24.5773 22.317 24.3872 22.3303L24.672 22.3189L24.6734 22.3203Z" fill="#FCFCFC"/>
</svg>
